<svg width="18" height="18" viewBox="0 0 18 18" fill="none" xmlns="http://www.w3.org/2000/svg">
<path d="M17.3084 14.2743C17.3084 14.5743 17.2417 14.8827 17.1 15.1827C16.9584 15.4827 16.775 15.766 16.5334 16.0327C16.125 16.4827 15.675 16.8077 15.1667 17.016C14.6667 17.2244 14.125 17.3327 13.5417 17.3327C12.6917 17.3327 11.7834 17.1327 10.825 16.7244C9.86669 16.316 8.90835 15.766 7.95835 15.0744C7.00002 14.3744 6.09169 13.5993 5.22502 12.741C4.36669 11.8743 3.59169 10.966 2.90002 10.016C2.21669 9.06602 1.66669 8.11602 1.26669 7.17435C0.866687 6.22435 0.666687 5.31602 0.666687 4.44935C0.666687 3.88268 0.766687 3.34102 0.966687 2.84102C1.16669 2.33268 1.48335 1.86602 1.92502 1.44935C2.45835 0.924349 3.04169 0.666016 3.65835 0.666016C3.89169 0.666016 4.12502 0.716016 4.33335 0.816016C4.55002 0.916016 4.74169 1.06602 4.89169 1.28268L6.82502 4.00768C6.97502 4.21602 7.08335 4.40768 7.15835 4.59102C7.23335 4.76602 7.27502 4.94102 7.27502 5.09935C7.27502 5.29935 7.21669 5.49935 7.10002 5.69102C6.99169 5.88268 6.83335 6.08268 6.63335 6.28268L6.00002 6.94102C5.90835 7.03268 5.86669 7.14102 5.86669 7.27435C5.86669 7.34102 5.87502 7.39935 5.89169 7.46602C5.91669 7.53268 5.94169 7.58268 5.95835 7.63268C6.10835 7.90768 6.36669 8.26602 6.73335 8.69935C7.10835 9.13268 7.50835 9.57435 7.94169 10.016C8.39169 10.4577 8.82502 10.866 9.26669 11.241C9.70002 11.6077 10.0584 11.8577 10.3417 12.0077C10.3834 12.0243 10.4334 12.0493 10.4917 12.0743C10.5584 12.0993 10.625 12.1077 10.7 12.1077C10.8417 12.1077 10.95 12.0577 11.0417 11.966L11.675 11.341C11.8834 11.1327 12.0834 10.9743 12.275 10.8743C12.4667 10.7577 12.6584 10.6993 12.8667 10.6993C13.025 10.6993 13.1917 10.7327 13.375 10.8077C13.5584 10.8827 13.75 10.991 13.9584 11.1327L16.7167 13.091C16.9334 13.241 17.0834 13.416 17.175 13.6243C17.2584 13.8327 17.3084 14.041 17.3084 14.2743Z" stroke="#3862FF" stroke-width="1.2" stroke-miterlimit="10"/>
<path d="M14.4167 6.49967C14.4167 5.99967 14.0251 5.23301 13.4417 4.60801C12.9084 4.03301 12.2001 3.58301 11.5001 3.58301" stroke="#3862FF" stroke-width="1.2" stroke-linecap="round" stroke-linejoin="round"/>
<path d="M17.3334 6.49935C17.3334 3.27435 14.7251 0.666016 11.5001 0.666016" stroke="#3862FF" stroke-width="1.2" stroke-linecap="round" stroke-linejoin="round"/>
</svg>
