<svg width="56" height="52" viewBox="0 0 56 52" fill="none" xmlns="http://www.w3.org/2000/svg">
<path d="M55.9689 16.7355C55.6703 11.9899 53.8162 6.03967 48.5672 5.15854C44.2862 4.43984 39.4781 8.74626 35.8286 6.39558C17.9006 -5.15136 -2.17744 5.09292 0.191298 24.9738C2.12549 39.6526 18.9191 30.9523 25.7009 38.7099C28.0178 41.36 28.9744 49.5251 32.146 50.7624C42.2367 54.6995 56.7605 29.315 55.9689 16.7355Z" fill="url(#paint0_linear_42_3709)"/>
<path opacity="0.1" d="M51.7384 45.6055V36.771C52.5804 36.771 53.2629 36.0885 53.2629 35.2466C53.2629 34.4046 52.5804 33.7221 51.7384 33.7221C50.8965 33.7221 50.214 34.4046 50.214 35.2466H48.4225V13.6307C48.4225 12.724 47.6886 11.9901 46.7819 11.9901H16.562V7.41162C16.562 7.10964 16.3171 6.86475 16.0151 6.86475H4.66266C4.36067 6.86475 4.11578 7.10964 4.11578 7.41162V18.7641C4.11578 19.0661 4.36067 19.311 4.66266 19.311H7.5775V38.2247C7.5775 39.1315 8.31141 39.8654 9.21813 39.8654H22.9783L22.3814 46.3224H22.3827L22.3822 46.3227L20.396 48.0911C20.0207 48.4254 20.2571 49.0464 20.7597 49.0464H35.2403C35.7429 49.0464 35.9793 48.4254 35.604 48.0911L33.6178 46.3227L33.6174 46.3224H33.6186L33.0217 39.8654H41.605V45.6056C40.7631 45.6056 40.0806 46.2881 40.0806 47.1301C40.0806 47.972 40.7631 48.6545 41.605 48.6545C42.447 48.6545 43.1295 47.972 43.1295 47.1301H50.214C50.214 47.972 50.8965 48.6545 51.7384 48.6545C52.5804 48.6545 53.2629 47.972 53.2629 47.1301C53.2628 46.288 52.5803 45.6055 51.7384 45.6055ZM28 43.436C27.0163 43.436 26.229 42.6199 26.2643 41.6368L26.328 39.8654H29.6719L29.7356 41.6368C29.771 42.6199 28.9837 43.436 28 43.436Z" fill="#2747BC"/>
<path d="M32.7927 34.7629H29.5829L29.7357 39.0117C29.771 39.9948 28.9837 40.8109 28 40.8109C27.0163 40.8109 26.229 39.9948 26.2643 39.0117L26.4171 34.7629H23.2073L22.3814 43.6973H33.6186L32.7927 34.7629Z" fill="#4B71FF"/>
<path d="M33.6179 43.6975H22.3821L20.3959 45.466C20.0205 45.8002 20.257 46.4213 20.7596 46.4213H35.2402C35.7428 46.4213 35.9792 45.8002 35.6039 45.466L33.6179 43.6975Z" fill="white"/>
<path d="M48.4225 11.0056V32.6192L30.8588 32.9473L12.6273 32.6192L12.2992 21.1562L12.6273 9.36499H46.7819C47.6886 9.36499 48.4225 10.0989 48.4225 11.0056Z" fill="#4B71FF"/>
<path d="M23.7267 15.4976V20.053C23.7267 20.2947 23.5309 20.4905 23.2892 20.4905H15.8134C15.5717 20.4905 15.3759 20.2947 15.3759 20.053V15.4976C15.3759 15.2569 15.5717 15.0601 15.8134 15.0601H23.2892C23.5309 15.0601 23.7267 15.2569 23.7267 15.4976Z" fill="white"/>
<path d="M12.6274 9.36499V37.2403H9.2182C8.31148 37.2403 7.57758 36.5064 7.57758 35.5997V11.0056C7.57758 10.0989 8.31148 9.36499 9.2182 9.36499H12.6274Z" fill="white"/>
<path d="M7.57717 32.6191V35.6C7.57717 36.5061 8.31173 37.2407 9.2178 37.2407H46.7822C47.6883 37.2407 48.4228 36.5061 48.4228 35.6V32.6191H7.57717Z" fill="white"/>
<path d="M48.4228 33.166H7.57717C7.27519 33.166 7.0303 32.9211 7.0303 32.6191C7.0303 32.3172 7.27519 32.0723 7.57717 32.0723H48.4228C48.7249 32.0723 48.9697 32.3172 48.9697 32.6191C48.9697 32.9211 48.7248 33.166 48.4228 33.166Z" fill="#2747BC"/>
<path d="M16.0151 16.686H4.66266C4.36067 16.686 4.11578 16.4411 4.11578 16.1391V4.78662C4.11578 4.48464 4.36067 4.23975 4.66266 4.23975H16.0151C16.3171 4.23975 16.562 4.48464 16.562 4.78662V16.1391C16.562 16.4411 16.3172 16.686 16.0151 16.686Z" fill="white"/>
<path d="M6.24007 6.76743C5.93808 6.76743 5.69319 6.52254 5.69319 6.22055V6.20557C5.69319 5.90358 5.93808 5.65869 6.24007 5.65869C6.54205 5.65869 6.78694 5.90358 6.78694 6.20557V6.22055C6.78694 6.52254 6.54205 6.76743 6.24007 6.76743Z" fill="#4B71FF"/>
<path d="M8.21964 8.45498C7.29586 8.50442 6.55583 9.28787 6.55594 10.213C6.55594 11.0684 7.16625 11.7806 7.97497 11.9397C7.8983 12.0779 7.80566 12.2095 7.69399 12.3196C7.63241 12.3803 7.68064 12.4838 7.76639 12.4723C8.45906 12.3801 10.077 11.9762 10.077 10.2129C10.0769 9.20847 9.23585 8.40062 8.21964 8.45498Z" fill="#4B71FF"/>
<path d="M12.2647 8.45498C11.3409 8.50442 10.6008 9.28787 10.601 10.213C10.601 11.0684 11.2113 11.7806 12.02 11.9397C11.9433 12.0779 11.8507 12.2095 11.739 12.3196C11.6774 12.3803 11.7257 12.4838 11.8114 12.4723C12.5041 12.3801 14.1221 11.9762 14.1221 10.2129C14.122 9.20847 13.2809 8.40062 12.2647 8.45498Z" fill="#4B71FF"/>
<path d="M38.9424 25.1852C42.4369 25.1852 45.2697 22.3524 45.2697 18.858C45.2697 15.3636 42.4369 12.5308 38.9424 12.5308C35.448 12.5308 32.6152 15.3636 32.6152 18.858C32.6152 22.3524 35.448 25.1852 38.9424 25.1852Z" fill="#2747BC"/>
<path d="M41.0799 18.858C42.2605 18.858 43.2176 17.901 43.2176 16.7204C43.2176 15.5398 42.2605 14.5828 41.0799 14.5828C39.8994 14.5828 38.9423 15.5398 38.9423 16.7204C38.9423 17.901 39.8994 18.858 41.0799 18.858Z" fill="white"/>
<path d="M35.781 26.7882H27.9109C27.6089 26.7882 27.364 26.5433 27.364 26.2413V18.3711C27.364 18.0691 27.6089 17.8242 27.9109 17.8242H35.781C36.083 17.8242 36.3279 18.0691 36.3279 18.3711V26.2413C36.3279 26.5434 36.0831 26.7882 35.781 26.7882Z" fill="white"/>
<path d="M44.6237 28.7157L39.3859 21.4521C39.1676 21.1494 38.717 21.1494 38.4988 21.4521L33.2612 28.7157C33.0003 29.0774 33.2588 29.5824 33.7048 29.5824H44.1802C44.626 29.5825 44.8844 29.0774 44.6237 28.7157Z" fill="white"/>
<path d="M29.8872 21.8867C29.5851 21.8867 29.3403 21.6418 29.3403 21.3399V19.3965C29.3403 19.0945 29.5851 18.8496 29.8872 18.8496C30.1892 18.8496 30.434 19.0945 30.434 19.3965V21.3399C30.434 21.6418 30.1892 21.8867 29.8872 21.8867Z" fill="#4B71FF"/>
<path d="M30.8588 20.915H28.9155C28.6134 20.915 28.3686 20.6701 28.3686 20.3682C28.3686 20.0662 28.6134 19.8213 28.9155 19.8213H30.8588C31.1609 19.8213 31.4057 20.0662 31.4057 20.3682C31.4057 20.6701 31.1608 20.915 30.8588 20.915Z" fill="#4B71FF"/>
<path d="M23.0316 23.2905H15.9005C15.5985 23.2905 15.3536 23.0456 15.3536 22.7437C15.3536 22.4417 15.5985 22.1968 15.9005 22.1968H23.0316C23.3336 22.1968 23.5785 22.4417 23.5785 22.7437C23.5785 23.0456 23.3336 23.2905 23.0316 23.2905Z" fill="white"/>
<path d="M23.0316 25.5198H22.0929C21.7909 25.5198 21.546 25.2749 21.546 24.9729C21.546 24.6709 21.7909 24.426 22.0929 24.426H23.0316C23.3336 24.426 23.5785 24.6709 23.5785 24.9729C23.5785 25.2749 23.3336 25.5198 23.0316 25.5198Z" fill="white"/>
<path d="M23.0316 13.7095H22.0929C21.7909 13.7095 21.546 13.4646 21.546 13.1626C21.546 12.8606 21.7909 12.6157 22.0929 12.6157H23.0316C23.3336 12.6157 23.5785 12.8606 23.5785 13.1626C23.5785 13.4646 23.3336 13.7095 23.0316 13.7095Z" fill="white"/>
<path d="M19.8027 25.5198H15.9004C15.5984 25.5198 15.3535 25.2749 15.3535 24.9729C15.3535 24.6709 15.5984 24.426 15.9004 24.426H19.8027C20.1047 24.426 20.3495 24.6709 20.3495 24.9729C20.3495 25.2749 20.1047 25.5198 19.8027 25.5198Z" fill="white"/>
<path d="M23.0316 27.749H15.9005C15.5985 27.749 15.3536 27.5041 15.3536 27.2021C15.3536 26.9002 15.5985 26.6553 15.9005 26.6553H23.0316C23.3336 26.6553 23.5785 26.9002 23.5785 27.2021C23.5785 27.5041 23.3336 27.749 23.0316 27.749Z" fill="white"/>
<path d="M23.0316 29.9783H15.9005C15.5985 29.9783 15.3536 29.7334 15.3536 29.4314C15.3536 29.1294 15.5985 28.8845 15.9005 28.8845H23.0316C23.3336 28.8845 23.5785 29.1294 23.5785 29.4314C23.5785 29.7334 23.3336 29.9783 23.0316 29.9783Z" fill="white"/>
<path d="M41.6052 32.6216H51.7388V44.5052H41.6052V32.6216Z" fill="white"/>
<path d="M48.7951 39.1104H44.5483C44.2462 39.1104 44.0015 38.8655 44.0015 38.5635C44.0015 38.2615 44.2462 38.0166 44.5483 38.0166H48.7951C49.0972 38.0166 49.342 38.2615 49.342 38.5635C49.342 38.8655 49.0972 39.1104 48.7951 39.1104Z" fill="#4B71FF"/>
<path d="M48.7951 41.3396H44.5483C44.2462 41.3396 44.0015 41.0947 44.0015 40.7927C44.0015 40.4907 44.2462 40.2458 44.5483 40.2458H48.7951C49.0972 40.2458 49.342 40.4907 49.342 40.7927C49.342 41.0947 49.0972 41.3396 48.7951 41.3396Z" fill="#4B71FF"/>
<path d="M47.7014 36.8811H45.6421C45.34 36.8811 45.0952 36.6362 45.0952 36.3342C45.0952 36.0322 45.34 35.7874 45.6421 35.7874H47.7014C48.0035 35.7874 48.2483 36.0322 48.2483 36.3342C48.2483 36.6362 48.0035 36.8811 47.7014 36.8811Z" fill="#4B71FF"/>
<path d="M41.6051 34.1461C42.447 34.1461 43.1295 33.4636 43.1295 32.6216C43.1295 31.7797 42.447 31.0972 41.6051 31.0972C40.7631 31.0972 40.0806 31.7797 40.0806 32.6216C40.0806 33.4636 40.7631 34.1461 41.6051 34.1461Z" fill="#4B71FF"/>
<path d="M51.7384 34.1461C52.5804 34.1461 53.2629 33.4636 53.2629 32.6216C53.2629 31.7797 52.5804 31.0972 51.7384 31.0972C50.8965 31.0972 50.214 31.7797 50.214 32.6216C50.214 33.4636 50.8965 34.1461 51.7384 34.1461Z" fill="#4B71FF"/>
<path d="M41.6051 46.0294C42.447 46.0294 43.1295 45.3469 43.1295 44.5049C43.1295 43.663 42.447 42.9805 41.6051 42.9805C40.7631 42.9805 40.0806 43.663 40.0806 44.5049C40.0806 45.3469 40.7631 46.0294 41.6051 46.0294Z" fill="#4B71FF"/>
<path d="M51.7384 46.0294C52.5804 46.0294 53.2629 45.3469 53.2629 44.5049C53.2629 43.663 52.5804 42.9805 51.7384 42.9805C50.8965 42.9805 50.214 43.663 50.214 44.5049C50.214 45.3469 50.8965 46.0294 51.7384 46.0294Z" fill="#4B71FF"/>
<path d="M38.5587 36.6938H9.2178C8.6147 36.6938 8.12405 36.2032 8.12405 35.6001V19.8047C8.12405 19.5027 7.87916 19.2578 7.57717 19.2578C7.27519 19.2578 7.0303 19.5027 7.0303 19.8047V35.6001C7.0303 36.8063 8.01161 37.7876 9.2178 37.7876H22.3788L21.8567 43.4331L20.0324 45.0576C19.6903 45.3622 19.5745 45.8356 19.7376 46.2636C19.9006 46.6916 20.3017 46.9682 20.7597 46.9682H35.2404C35.6985 46.9682 36.0995 46.6917 36.2626 46.2636C36.4256 45.8356 36.3099 45.3622 35.9679 45.0575L34.1435 43.4331L33.6214 37.7876H38.559C38.861 37.7876 39.1058 37.5427 39.1058 37.2407C39.1058 36.9387 38.8608 36.6938 38.5587 36.6938ZM29.1892 39.0316C29.2008 39.3572 29.0825 39.6658 28.856 39.9006C28.6296 40.1353 28.3255 40.2645 28 40.2645C27.3439 40.2645 26.81 39.7312 26.81 39.0756C26.81 39.0633 26.8098 39.0518 26.8107 39.0317L26.8552 37.7876H29.1446L29.1892 39.0316ZM20.7597 45.8744L22.5902 44.2444H33.4096L35.2402 45.8744H20.7597ZM33.0188 43.1506H22.9812L23.4771 37.7875H25.7609L25.7181 38.9839C25.7166 39.0139 25.7162 39.0439 25.7162 39.0755C25.7162 40.334 26.7408 41.3581 28 41.3581C28.6251 41.3581 29.2086 41.1102 29.6429 40.66C30.0776 40.2097 30.3045 39.6175 30.2823 38.9925L30.2391 37.7874H32.5228L33.0188 43.1506Z" fill="#2747BC"/>
<path d="M52.2856 42.5094V34.6172C53.1627 34.3764 53.8098 33.5741 53.8098 32.6217C53.8098 31.4796 52.8806 30.5503 51.7384 30.5503C50.7859 30.5503 49.9836 31.1975 49.7428 32.0746H48.9697V11.0056C48.9697 9.79939 47.9884 8.81807 46.7822 8.81807H17.1089V4.78662C17.1089 4.18353 16.6182 3.69287 16.0151 3.69287H4.66266C4.05956 3.69287 3.56891 4.18353 3.56891 4.78662V16.1391C3.56891 16.7422 4.05956 17.2328 4.66266 17.2328H16.0151C16.6182 17.2328 17.1089 16.7422 17.1089 16.1391V9.91182H46.7821C47.3852 9.91182 47.8758 10.4025 47.8758 11.0056V32.0746H43.6006C43.3598 31.1975 42.5575 30.5503 41.605 30.5503C40.463 30.5503 39.5337 31.4796 39.5337 32.6217C39.5337 33.5742 40.1809 34.3766 41.0582 34.6173V42.5093C40.181 42.75 39.5337 43.5524 39.5337 44.5049C39.5337 45.647 40.4628 46.5763 41.605 46.5763C42.5576 46.5763 43.3599 45.9291 43.6007 45.0519H49.7427C49.9835 45.9291 50.7858 46.5763 51.7384 46.5763C52.8805 46.5763 53.8098 45.6471 53.8098 44.5049C53.8098 43.5525 53.1627 42.7502 52.2856 42.5094ZM4.66266 16.1391V4.78662H16.0151L16.0158 16.139L4.66266 16.1391ZM49.7427 43.9582H43.6007C43.4079 43.2554 42.8547 42.7022 42.1519 42.5093V34.6173C42.8547 34.4245 43.408 33.8711 43.6007 33.1683H49.7425C49.9354 33.8712 50.4889 34.4246 51.1918 34.6174V42.5093C50.489 42.702 49.9356 43.2553 49.7427 43.9582ZM51.7384 31.6441C52.2774 31.6441 52.716 32.0827 52.716 32.6217C52.716 33.1607 52.2774 33.5993 51.7384 33.5993C51.1995 33.5993 50.7612 33.1611 50.7608 32.6223C50.7608 32.6221 50.7609 32.6218 50.7609 32.6216C50.7609 32.6214 50.7608 32.6211 50.7608 32.6209C50.7613 32.0821 51.1996 31.6441 51.7384 31.6441ZM40.6276 32.6217C40.6276 32.0827 41.0662 31.6441 41.6052 31.6441C42.1442 31.6441 42.5828 32.0827 42.5828 32.6217C42.5828 33.1607 42.1442 33.5993 41.6052 33.5993C41.0662 33.5993 40.6276 33.1607 40.6276 32.6217ZM41.6052 45.4825C41.0662 45.4825 40.6276 45.0441 40.6276 44.5049C40.6276 43.9658 41.0662 43.5274 41.6052 43.5274C42.1442 43.5274 42.5828 43.9659 42.5828 44.5049C42.5828 45.0439 42.1441 45.4825 41.6052 45.4825ZM51.7384 45.4825C51.1995 45.4825 50.7613 45.0444 50.7608 44.5057C50.7608 44.5055 50.7609 44.5053 50.7609 44.5051C50.7609 44.5048 50.7608 44.5046 50.7608 44.5043C50.7612 43.9656 51.1996 43.5274 51.7384 43.5274C52.2774 43.5274 52.716 43.9659 52.716 44.5049C52.716 45.0439 52.2774 45.4825 51.7384 45.4825Z" fill="#2747BC"/>
<path d="M22.163 7.21582C21.2583 7.21582 20.5224 6.47984 20.5224 5.5752C20.5224 4.67055 21.2583 3.93457 22.163 3.93457C23.0676 3.93457 23.8036 4.67055 23.8036 5.5752C23.8036 6.47984 23.0676 7.21582 22.163 7.21582ZM22.163 5.02832C21.8614 5.02832 21.6161 5.27365 21.6161 5.5752C21.6161 5.87674 21.8614 6.12207 22.163 6.12207C22.4645 6.12207 22.7099 5.87674 22.7099 5.5752C22.7099 5.27365 22.4645 5.02832 22.163 5.02832Z" fill="#4B71FF"/>
<path d="M14.7131 48.6731C13.8085 48.6731 13.0725 47.9371 13.0725 47.0325C13.0725 46.1278 13.8085 45.3918 14.7131 45.3918C15.6178 45.3918 16.3538 46.1278 16.3538 47.0325C16.3538 47.9371 15.6178 48.6731 14.7131 48.6731ZM14.7131 46.4856C14.4116 46.4856 14.1663 46.7309 14.1663 47.0325C14.1663 47.334 14.4116 47.5793 14.7131 47.5793C15.0147 47.5793 15.26 47.334 15.26 47.0325C15.26 46.7309 15.0146 46.4856 14.7131 46.4856Z" fill="#4B71FF"/>
<path d="M51.3078 4.10767C50.4032 4.10767 49.6672 3.37168 49.6672 2.46704C49.6672 1.5624 50.4032 0.826416 51.3078 0.826416C52.2125 0.826416 52.9484 1.5624 52.9484 2.46704C52.9484 3.37168 52.2125 4.10767 51.3078 4.10767ZM51.3078 1.92017C51.0063 1.92017 50.7609 2.16549 50.7609 2.46704C50.7609 2.76859 51.0063 3.01392 51.3078 3.01392C51.6094 3.01392 51.8547 2.76859 51.8547 2.46704C51.8547 2.16549 51.6093 1.92017 51.3078 1.92017Z" fill="#4B71FF"/>
<path d="M9.53007 44.0744C9.39007 44.0744 9.25017 44.021 9.14332 43.9142C8.92971 43.7006 8.92971 43.3543 9.14332 43.1408L10.2371 42.0471C10.4507 41.8336 10.7968 41.8336 11.0105 42.0471C11.2241 42.2607 11.2241 42.607 11.0105 42.8205L9.91671 43.9142C9.80996 44.021 9.67007 44.0744 9.53007 44.0744Z" fill="#4B71FF"/>
<path d="M44.0015 3.56068C43.8616 3.56068 43.7215 3.50731 43.6148 3.40056C43.4012 3.18695 43.4012 2.84067 43.6148 2.62717L44.7086 1.53342C44.922 1.31992 45.2685 1.31992 45.4818 1.53342C45.6955 1.74703 45.6955 2.09331 45.4818 2.30681L44.3881 3.40056C44.2813 3.50731 44.1413 3.56068 44.0015 3.56068Z" fill="#4B71FF"/>
<defs>
<linearGradient id="paint0_linear_42_3709" x1="28" y1="1.55103" x2="28" y2="51.1727" gradientUnits="userSpaceOnUse">
<stop stop-color="#CAE2FF"/>
<stop offset="1" stop-color="#EAF4FF" stop-opacity="0"/>
</linearGradient>
</defs>
</svg>
