<svg width="20" height="20" viewBox="0 0 20 20" fill="none" xmlns="http://www.w3.org/2000/svg">
<path d="M11.6667 7.74951V10.1662H13.8333C14 10.1662 14.0833 10.3328 14.0833 10.4995L13.75 12.0828C13.75 12.1662 13.5833 12.2495 13.5 12.2495H11.6667V18.3328H9.16667V12.3328H7.75C7.58333 12.3328 7.5 12.2495 7.5 12.0828V10.4995C7.5 10.3328 7.58333 10.2495 7.75 10.2495H9.16667V7.49951C9.16667 6.08285 10.25 4.99951 11.6667 4.99951H13.9167C14.0833 4.99951 14.1667 5.08285 14.1667 5.24951V7.24951C14.1667 7.41618 14.0833 7.49951 13.9167 7.49951H11.9167C11.75 7.49951 11.6667 7.58285 11.6667 7.74951Z" stroke="#3862FF" stroke-miterlimit="10" stroke-linecap="round"/>
<path d="M12.5 18.3327H7.49999C3.33332 18.3327 1.66666 16.666 1.66666 12.4993V7.49935C1.66666 3.33268 3.33332 1.66602 7.49999 1.66602H12.5C16.6667 1.66602 18.3333 3.33268 18.3333 7.49935V12.4993C18.3333 16.666 16.6667 18.3327 12.5 18.3327Z" stroke="#3862FF" stroke-linecap="round" stroke-linejoin="round"/>
</svg>
