<svg width="20" height="20" viewBox="0 0 20 20" fill="none" xmlns="http://www.w3.org/2000/svg">
<path d="M9.99999 1.66602H7.24999C5.66666 1.66602 4.41666 2.91602 4.41666 4.41602C4.41666 5.91602 5.66666 7.16602 7.16666 7.16602H9.99999V1.66602Z" stroke="#3862FF" stroke-miterlimit="10"/>
<path d="M10 7.24951H7.25C5.75 7.24951 4.5 8.49951 4.5 9.99951C4.5 11.4995 5.75 12.7495 7.25 12.7495H10V7.24951Z" stroke="#3862FF" stroke-miterlimit="10"/>
<path d="M10 12.7495H7.25C5.75 12.7495 4.5 13.9995 4.5 15.4995C4.5 16.9995 5.75 18.2495 7.25 18.2495C8.75 18.2495 10 16.9995 10 15.4995V12.7495Z" stroke="#3862FF" stroke-miterlimit="10"/>
<path d="M10 1.66602H12.75C14.25 1.66602 15.5 2.91602 15.5 4.41602C15.5 5.91602 14.25 7.16602 12.75 7.16602H10V1.66602Z" stroke="#3862FF" stroke-miterlimit="10"/>
<path d="M12.75 7.24951C14.25 7.24951 15.5 8.49951 15.5 9.99951C15.5 11.4995 14.25 12.7495 12.75 12.7495C11.25 12.7495 10 11.4995 10 9.99951C10 8.49951 11.25 7.24951 12.75 7.24951Z" stroke="#3862FF" stroke-miterlimit="10"/>
</svg>
