<svg width="17" height="16" viewBox="0 0 17 16" fill="none" xmlns="http://www.w3.org/2000/svg">
<path d="M15.1667 0.5C16.0872 0.5 16.8334 1.24619 16.8334 2.16667V13.8333C16.8334 14.7538 16.0872 15.5 15.1667 15.5H1.83341C0.91294 15.5 0.166748 14.7538 0.166748 13.8333V2.16667C0.166748 1.24619 0.91294 0.5 1.83341 0.5H15.1667ZM15.1667 2.16667H1.83341V10.5837L5.99575 6.42142C6.40255 6.01464 7.06208 6.01464 7.46892 6.42142L10.8571 9.80967L11.8883 8.7785C12.2951 8.37167 12.9547 8.37167 13.3614 8.7785L15.1667 10.5837V2.16667ZM11.4167 3.83333C12.1071 3.83333 12.6667 4.39297 12.6667 5.08333C12.6667 5.77369 12.1071 6.33333 11.4167 6.33333C10.7264 6.33333 10.1667 5.77369 10.1667 5.08333C10.1667 4.39297 10.7264 3.83333 11.4167 3.83333Z" fill="white"/>
</svg>
