<svg width="18" height="19" viewBox="0 0 18 19" fill="none" xmlns="http://www.w3.org/2000/svg">
<path d="M16 3C17.0544 3 17.9183 3.81588 17.9947 4.85074L18.0002 5V17C18.0002 18.0544 17.1842 18.9182 16.1493 18.9945L16 19H2C0.945638 19 0.0818349 18.1841 0.00548577 17.1493L0 17V5C0 3.94564 0.815877 3.08183 1.85074 3.00549L2 3H16ZM16 5H2V17H2.92905L11.2375 8.6915C11.7257 8.2034 12.5171 8.2034 13.0053 8.6915L16 11.6862V5ZM12.1214 10.6361L5.75748 17H16V14.5146L12.1214 10.6361ZM5.5 7C6.32843 7 7 7.67157 7 8.5C7 9.3284 6.32843 10 5.5 10C4.67157 10 4 9.3284 4 8.5C4 7.67157 4.67157 7 5.5 7ZM15 0C15.5523 0 16 0.44772 16 1C16 1.55228 15.5523 2 15 2H3C2.44772 2 2 1.55228 2 1C2 0.44772 2.44772 0 3 0H15Z" fill="#323232"/>
</svg>
