<svg width="56" height="56" viewBox="0 0 56 56" fill="none" xmlns="http://www.w3.org/2000/svg">
<path d="M50.4437 2.99644C43.4656 -1.15981 34.4422 -0.930127 27.5953 3.32456C23.7453 5.71987 20.7703 9.16518 17.4016 12.1402C14.4484 14.7433 11.0141 16.6027 7.95156 19.0527C-3.11719 27.9558 -2.06719 51.9746 13.5297 55.1574C20.2891 56.5355 29.5203 56.9839 33.4906 50.3886C37.275 44.0996 38.5437 37.6574 45.9484 34.3214C48.5297 33.1621 52.8391 33.2167 54.5781 30.6574C56.7875 27.4308 54.0422 24.0949 52.5875 21.2839C50.7062 17.6636 50.3125 14.098 51.6359 10.2152C52.7625 6.91206 53.5609 5.42456 50.4437 2.99644Z" fill="url(#paint0_linear_42_3949)"/>
<path opacity="0.1" d="M49 23.734H45.2484C44.7344 23.734 44.3188 24.1496 44.3188 24.6637V25.0246H41.7812V7.4043C41.7812 7.09805 41.5406 6.85742 41.2344 6.85742H20.7266L14.2188 13.3652V17.8715C11.6375 18.3965 9.69062 20.6715 9.69062 23.4059C9.69062 23.5152 9.69062 23.6246 9.70156 23.734H7C6.48594 23.734 6.07031 24.1496 6.07031 24.6637V41.7699C6.07031 42.284 6.48594 42.6996 7 42.6996H10.7516C11.2656 42.6996 11.6813 42.284 11.6813 41.7699V41.1246H14.875C14.7984 41.8027 15.0172 42.5137 15.5312 43.0277C16.2094 43.7059 17.1937 43.8699 18.0359 43.5418L18.2984 43.8043C17.9594 44.6355 18.1344 45.6309 18.8125 46.309C19.4906 46.9871 20.475 47.1512 21.3172 46.823L21.5797 47.0855C21.2406 47.9168 21.4156 48.9121 22.0938 49.5902C22.7719 50.2684 23.7562 50.4324 24.5984 50.1043L24.8609 50.3668C24.5219 51.198 24.6969 52.1934 25.375 52.8715C26.0531 53.5496 27.0375 53.7137 27.8797 53.3855L28.2078 53.7137C29.1156 54.6215 30.5812 54.6215 31.4891 53.7137C32.3969 52.8059 32.3969 51.3402 31.4891 50.4324C32.3969 51.3402 33.8625 51.3402 34.7703 50.4324C35.2188 49.984 35.4484 49.3824 35.4484 48.7918C35.4484 48.2012 35.2188 47.6105 34.7703 47.1512C35.6781 48.059 37.1437 48.059 38.0516 47.1512C38.9594 46.2434 38.9594 44.7777 38.0516 43.8699C38.9484 44.7668 40.3922 44.7777 41.3 43.9027C42.0656 43.1699 42.1859 42.0215 41.7156 41.1246H44.3516V41.7699C44.3516 42.284 44.7672 42.6996 45.2812 42.6996H49C49.5141 42.6996 49.9297 42.284 49.9297 41.7699V24.6637C49.9406 24.1496 49.5141 23.734 49 23.734Z" fill="#172A70"/>
<path d="M41.7812 31.084V4.7793C41.7812 4.47305 41.5406 4.23242 41.2344 4.23242H20.7266L14.2188 10.7402V31.084H41.7812Z" fill="white"/>
<path d="M14.2188 10.7402H20.1797C20.4859 10.7402 20.7266 10.4996 20.7266 10.1934V4.23242L14.2188 10.7402Z" fill="#4B71FF"/>
<path d="M29.4547 23.2197L17.3359 35.3385C16.4172 36.2572 16.3953 37.7775 17.3359 38.6854C18.2438 39.5604 19.6875 39.5494 20.5844 38.6525C19.6766 39.5604 19.6766 41.026 20.5844 41.9338C21.4922 42.8416 22.9578 42.8416 23.8656 41.9338C22.9578 42.8416 22.9578 44.3072 23.8656 45.215C24.7734 46.1229 26.2391 46.1229 27.1469 45.215C26.2391 46.1229 26.2391 47.5885 27.1469 48.4963C28.0547 49.4041 29.5203 49.4041 30.4281 48.4963L40.4031 38.5213H46.3313V22.3994H31.4344C30.6906 22.3994 29.9797 22.6947 29.4547 23.2197Z" fill="white"/>
<path d="M41.2781 41.2885C40.3703 42.1635 38.9266 42.1525 38.0297 41.2557C38.9375 42.1635 38.9375 43.6291 38.0297 44.5369C37.1219 45.4447 35.6563 45.4447 34.7484 44.5369C35.1969 44.9854 35.4266 45.5869 35.4266 46.1775C35.4266 46.7682 35.1969 47.3588 34.7484 47.8182C33.8406 48.726 32.375 48.726 31.4672 47.8182C32.375 48.726 32.375 50.1916 31.4672 51.0994C30.5594 52.0072 29.0938 52.0072 28.1859 51.0994L15.6078 38.5213H9.69063V22.3994H24.5766C25.3203 22.3994 26.0313 22.6947 26.5563 23.2197L41.2781 37.9416C42.1969 38.8603 42.2188 40.3916 41.2781 41.2885Z" fill="white"/>
<path d="M28.6453 50.2463L30.8219 48.0698C31.7297 47.162 31.7297 45.6963 30.8219 44.7885C29.9141 43.8807 28.4484 43.8807 27.5406 44.7885L25.3641 46.9651C24.4562 47.8729 24.4562 49.3385 25.3641 50.2463C26.2719 51.1541 27.7375 51.1541 28.6453 50.2463Z" fill="white"/>
<path d="M25.3641 46.9651L27.5406 44.7885C28.4484 43.8807 28.4484 42.4151 27.5406 41.5073C26.6328 40.5995 25.1672 40.5995 24.2594 41.5073L22.0937 43.6948C21.1859 44.6026 21.1859 46.0682 22.0937 46.976C22.9906 47.8729 24.4562 47.8729 25.3641 46.9651Z" fill="white"/>
<path d="M22.0937 43.6948L24.2703 41.5183C25.1781 40.6104 25.1781 39.1448 24.2703 38.237C23.3625 37.3292 21.8969 37.3292 20.9891 38.237L18.8125 40.4136C17.9047 41.3214 17.9047 42.787 18.8125 43.6948C19.7203 44.5917 21.1859 44.5917 22.0937 43.6948Z" fill="white"/>
<path d="M18.8125 40.4136L20.9891 38.237C21.8969 37.3292 21.8969 35.8636 20.9891 34.9558C20.0812 34.0479 18.6156 34.0479 17.7078 34.9558L15.5312 37.1323C14.6234 38.0401 14.6234 39.5058 15.5312 40.4136C16.4391 41.3214 17.9047 41.3214 18.8125 40.4136Z" fill="white"/>
<path d="M38.1391 22.3994H31.4234C30.6797 22.3994 29.9687 22.6947 29.4437 23.2197L24.2156 28.4479C23.3078 29.3557 23.3078 30.8432 24.2156 31.751C25.1234 32.6588 26.6109 32.6588 27.5187 31.751L30.6906 28.5791C31.1937 28.076 31.8719 27.7916 32.5828 27.7916H38.1391V22.3994Z" fill="white"/>
<path d="M11.6813 22.0495V39.1558C11.6813 39.6698 11.2656 40.0855 10.7516 40.0855H7C6.48594 40.0855 6.07031 39.6698 6.07031 39.1558V22.0495C6.07031 21.5355 6.48594 21.1198 7 21.1198H10.7516C11.2547 21.1089 11.6813 21.5245 11.6813 22.0495Z" fill="#4B71FF"/>
<path d="M49 40.0854H45.2484C44.7344 40.0854 44.3188 39.6698 44.3188 39.1558V22.0386C44.3188 21.5245 44.7344 21.1089 45.2484 21.1089H49C49.5141 21.1089 49.9297 21.5245 49.9297 22.0386V39.1558C49.9406 39.6698 49.5141 40.0854 49 40.0854Z" fill="#4B71FF"/>
<path d="M29.1047 19.8185H27.6062C27.0047 19.8185 26.5125 19.3263 26.5125 18.7247V8.30127C26.5125 7.69971 27.0047 7.20752 27.6062 7.20752H29.1047C29.7062 7.20752 30.1984 7.69971 30.1984 8.30127V18.7247C30.1984 19.3263 29.7172 19.8185 29.1047 19.8185ZM27.6172 8.30127V18.7247H29.1156V8.30127H27.6172Z" fill="#172A70"/>
<path d="M27.0703 14.0872V18.7247C27.0703 19.0309 27.3109 19.2715 27.6172 19.2715H29.1156C29.4219 19.2715 29.6625 19.0309 29.6625 18.7247V14.0872H27.0703Z" fill="#4B71FF"/>
<path d="M33.5453 19.8185H32.0469C31.4453 19.8185 30.9531 19.3263 30.9531 18.7247V11.5825C30.9531 10.981 31.4453 10.4888 32.0469 10.4888H33.5453C34.1469 10.4888 34.6391 10.981 34.6391 11.5825V18.7247C34.6391 19.3263 34.1469 19.8185 33.5453 19.8185ZM32.0469 11.5825V18.7247H33.5453V11.5825H32.0469Z" fill="#172A70"/>
<path d="M31.5 17.3684V18.7247C31.5 19.0309 31.7406 19.2715 32.0469 19.2715H33.5453C33.8516 19.2715 34.0922 19.0309 34.0922 18.7247V17.3684H31.5Z" fill="#4B71FF"/>
<path d="M37.975 19.2716H36.4766C36.1703 19.2716 35.9297 19.031 35.9297 18.7247V8.30127C35.9297 7.99502 36.1703 7.75439 36.4766 7.75439H37.975C38.2813 7.75439 38.5219 7.99502 38.5219 8.30127V18.7247C38.5219 19.02 38.2813 19.2716 37.975 19.2716Z" fill="white"/>
<path d="M35.9406 10.8059V18.7247C35.9406 19.0309 36.1813 19.2715 36.4875 19.2715H37.9859C38.2922 19.2715 38.5328 19.0309 38.5328 18.7247V10.8059C38.5219 10.8059 35.9406 10.8059 35.9406 10.8059Z" fill="#4B71FF"/>
<path d="M29.1047 19.8185H27.6062C27.0047 19.8185 26.5125 19.3263 26.5125 18.7247V8.30127C26.5125 7.69971 27.0047 7.20752 27.6062 7.20752H29.1047C29.7062 7.20752 30.1984 7.69971 30.1984 8.30127V18.7247C30.1984 19.3263 29.7172 19.8185 29.1047 19.8185ZM27.6172 8.30127V18.7247H29.1156V8.30127H27.6172Z" fill="#172A70"/>
<path d="M33.5453 19.8185H32.0469C31.4453 19.8185 30.9531 19.3263 30.9531 18.7247V11.5825C30.9531 10.981 31.4453 10.4888 32.0469 10.4888H33.5453C34.1469 10.4888 34.6391 10.981 34.6391 11.5825V18.7247C34.6391 19.3263 34.1469 19.8185 33.5453 19.8185ZM32.0469 11.5825V18.7247H33.5453V11.5825H32.0469Z" fill="#172A70"/>
<path d="M37.975 19.8185H36.4766C35.875 19.8185 35.3828 19.3263 35.3828 18.7247V8.30127C35.3828 7.69971 35.875 7.20752 36.4766 7.20752H37.975C38.5766 7.20752 39.0688 7.69971 39.0688 8.30127V18.7247C39.0688 19.3263 38.5766 19.8185 37.975 19.8185ZM36.4875 8.30127V18.7247H37.9859V8.30127H36.4875Z" fill="#172A70"/>
<path d="M24.1172 15.1699H22.9688C22.6625 15.1699 22.4219 14.9293 22.4219 14.623C22.4219 14.3168 22.6625 14.0762 22.9688 14.0762H24.1172C24.4234 14.0762 24.6641 14.3168 24.6641 14.623C24.6641 14.9293 24.4234 15.1699 24.1172 15.1699Z" fill="#172A70"/>
<path d="M20.4969 15.1699H20.0047C19.6984 15.1699 19.4578 14.9293 19.4578 14.623C19.4578 14.3168 19.6984 14.0762 20.0047 14.0762H20.4969C20.8031 14.0762 21.0437 14.3168 21.0437 14.623C21.0437 14.9293 20.8031 15.1699 20.4969 15.1699Z" fill="#172A70"/>
<path d="M24.1172 17.3901H18.025C17.7187 17.3901 17.4781 17.1495 17.4781 16.8433C17.4781 16.537 17.7187 16.2964 18.025 16.2964H24.1172C24.4234 16.2964 24.6641 16.537 24.6641 16.8433C24.6641 17.1495 24.4234 17.3901 24.1172 17.3901Z" fill="#172A70"/>
<path d="M24.1172 19.2825H18.025C17.7187 19.2825 17.4781 19.0418 17.4781 18.7356C17.4781 18.4293 17.7187 18.1887 18.025 18.1887H24.1172C24.4234 18.1887 24.6641 18.4293 24.6641 18.7356C24.6641 19.0309 24.4234 19.2825 24.1172 19.2825Z" fill="#172A70"/>
<path d="M15.3344 26.4247C18.4513 26.4247 20.9781 23.8979 20.9781 20.781C20.9781 17.664 18.4513 15.1372 15.3344 15.1372C12.2174 15.1372 9.69063 17.664 9.69063 20.781C9.69063 23.8979 12.2174 26.4247 15.3344 26.4247Z" fill="white"/>
<path d="M49 20.5621H45.2484C44.4938 20.5621 43.8703 21.1309 43.7828 21.8527H42.3281V4.7793C42.3281 4.17773 41.8359 3.68555 41.2344 3.68555H36.2578C35.9516 3.68555 35.7109 3.92617 35.7109 4.23242C35.7109 4.53867 35.9516 4.7793 36.2578 4.7793H41.2344V21.8527H31.4234C30.5266 21.8527 29.6844 22.2027 29.0609 22.8371L28 23.898L26.9391 22.8371C26.3047 22.2027 25.4625 21.8527 24.5766 21.8527H21.4375C21.5031 21.5027 21.5359 21.1527 21.5359 20.7809C21.5359 17.3684 18.7578 14.5902 15.3453 14.5902C15.1484 14.5902 14.9625 14.6012 14.7766 14.623V11.298H20.1906C20.7922 11.298 21.2844 10.8059 21.2844 10.2043V4.79023H32.6594C32.9656 4.79023 33.2063 4.54961 33.2063 4.24336C33.2063 3.93711 32.9656 3.69648 32.6594 3.69648H20.7375C20.5953 3.69648 20.4531 3.75117 20.3547 3.86055L13.8469 10.3684C13.7484 10.4668 13.6828 10.609 13.6828 10.7512V14.8309C11.1344 15.5309 9.24219 17.8277 9.14375 20.5621H7C6.17969 20.5621 5.52344 21.2293 5.52344 22.0387V39.1559C5.52344 39.9762 6.19063 40.6324 7 40.6324H10.7516C11.5719 40.6324 12.2281 39.9652 12.2281 39.1559V39.0574H14.3281C14.3938 39.6918 14.6672 40.3152 15.1484 40.8074C15.6844 41.3434 16.4062 41.6496 17.1719 41.6496C17.325 41.6496 17.4781 41.6387 17.6203 41.6168C17.4781 42.4918 17.7516 43.4215 18.4187 44.0887C18.9766 44.6465 19.7094 44.9309 20.4422 44.9309C20.5953 44.9309 20.7484 44.9199 20.8906 44.898C20.7484 45.773 21.0219 46.7027 21.6891 47.3699C22.2469 47.9277 22.9797 48.2121 23.7125 48.2121C23.8656 48.2121 24.0187 48.2012 24.1609 48.1793C24.0187 49.0543 24.2922 49.984 24.9594 50.6512C25.5172 51.209 26.25 51.4934 26.9828 51.4934C27.2234 51.4934 27.4641 51.4605 27.6938 51.4059L27.7922 51.5043C28.3281 52.0402 29.05 52.3465 29.8156 52.3465C30.5813 52.3465 31.3031 52.0512 31.8391 51.5043C32.5172 50.8371 32.7797 49.9074 32.6375 49.0324C33.5125 49.1746 34.4422 48.9012 35.1094 48.234C35.6453 47.698 35.9516 46.9762 35.9516 46.2105C35.9516 46.0574 35.9406 45.9043 35.9187 45.7621C36.0609 45.784 36.2141 45.7949 36.3672 45.7949C37.1328 45.7949 37.8547 45.4996 38.3906 44.9527C39.0687 44.2746 39.3312 43.3449 39.1891 42.4699C40.0531 42.6012 40.9609 42.3496 41.6281 41.7152C42.175 41.1902 42.4813 40.4684 42.4922 39.6918C42.4922 39.484 42.4703 39.2871 42.4375 39.0793H43.75V39.1777C43.75 39.998 44.4172 40.6543 45.2266 40.6543H49C49.8203 40.6543 50.4766 39.9871 50.4766 39.1777V22.0387C50.4875 21.2293 49.8203 20.5621 49 20.5621ZM15.5312 10.1934L20.1797 5.54492V10.1934H15.5312ZM15.3344 15.684C18.1453 15.684 20.4313 17.9699 20.4313 20.7809C20.4313 23.5918 18.1453 25.8777 15.3344 25.8777C12.5234 25.8777 10.2375 23.5918 10.2375 20.7809C10.2375 17.9699 12.5234 15.684 15.3344 15.684ZM10.7406 39.5387H7C6.79219 39.5387 6.61719 39.3637 6.61719 39.1559V22.0387C6.61719 21.8309 6.79219 21.6559 7 21.6559H9.20937C9.41719 23.0996 10.1172 24.3793 11.1344 25.3309V39.1559C11.1344 39.3637 10.9594 39.5387 10.7406 39.5387ZM17.1719 40.5449C16.7016 40.5449 16.2531 40.359 15.925 40.0309C15.2359 39.3418 15.2359 38.2152 15.925 37.5262L18.1016 35.3496C18.4406 35.0105 18.8781 34.8355 19.3484 34.8355C19.8187 34.8355 20.2672 35.0215 20.5953 35.3496C21.2844 36.0387 21.2844 37.1652 20.5953 37.8543L18.4297 40.0309C18.0906 40.359 17.6422 40.5449 17.1719 40.5449ZM20.4531 43.8262C19.9828 43.8262 19.5344 43.6402 19.2063 43.3121C18.5172 42.623 18.5172 41.4965 19.2063 40.8074L21.3828 38.6309C21.7219 38.2918 22.1594 38.1168 22.6297 38.1168C23.1 38.1168 23.5484 38.3027 23.8766 38.6309C24.5656 39.3199 24.5656 40.4465 23.8766 41.1355L21.7 43.3121C21.3719 43.6402 20.9234 43.8262 20.4531 43.8262ZM23.7234 47.0965C23.2531 47.0965 22.8047 46.9105 22.4766 46.5824C21.7875 45.8934 21.7875 44.7668 22.4766 44.0777L24.6531 41.9012C25.0031 41.5512 25.4516 41.3871 25.9 41.3871C26.3484 41.3871 26.8078 41.5621 27.1469 41.9012C27.4859 42.2402 27.6609 42.6777 27.6609 43.148C27.6609 43.6184 27.475 44.0668 27.1469 44.3949L24.9703 46.5715C24.6422 46.9105 24.2047 47.0965 23.7234 47.0965ZM25.7469 49.8527C25.0578 49.1637 25.0578 48.0371 25.7469 47.348L27.9234 45.1715C28.2734 44.8215 28.7219 44.6574 29.1703 44.6574C29.6188 44.6574 30.0781 44.8324 30.4172 45.1715C31.1063 45.8605 31.1063 46.9871 30.4172 47.6762L28.2406 49.8527C27.5625 50.5527 26.4469 50.5527 25.7469 49.8527ZM31.0953 50.7059C30.7562 51.0449 30.3187 51.2199 29.8484 51.2199C29.4547 51.2199 29.0828 51.0887 28.7766 50.859C28.8641 50.7934 28.9516 50.7168 29.0391 50.6293L31.2156 48.4527L31.2703 48.398C31.5 48.7043 31.6203 49.0652 31.6203 49.448C31.6094 49.9184 31.4234 50.3668 31.0953 50.7059ZM42 37.9637C41.9016 37.8215 41.7922 37.6793 41.6609 37.559L34.3328 30.2309C34.1141 30.0121 33.775 30.0121 33.5562 30.2309C33.3375 30.4496 33.3375 30.7887 33.5562 31.0074L40.8844 38.3355C41.2344 38.6855 41.4313 39.1668 41.4203 39.659C41.4203 40.1402 41.2344 40.5777 40.8953 40.8949C40.2062 41.5621 39.0906 41.5512 38.4125 40.873L31.4563 33.9168C31.2375 33.698 30.8984 33.698 30.6797 33.9168C30.4609 34.1355 30.4609 34.4746 30.6797 34.6934L37.6359 41.6496C38.325 42.3387 38.325 43.4652 37.6359 44.1543C36.9469 44.8434 35.8203 44.8434 35.1313 44.1543L28.175 37.198C27.9563 36.9793 27.6172 36.9793 27.3984 37.198C27.1797 37.4168 27.1797 37.7559 27.3984 37.9746L34.3547 44.9309C34.6938 45.2699 34.8687 45.7074 34.8687 46.1777C34.8687 46.648 34.6828 47.0965 34.3547 47.4246C33.6656 48.1137 32.5391 48.1137 31.85 47.4246C32.2328 46.4074 32.0141 45.2152 31.1938 44.3949C30.5266 43.7277 29.5969 43.4543 28.7219 43.5965C28.7438 43.4543 28.7547 43.3012 28.7547 43.148C28.7547 42.3824 28.4594 41.6605 27.9125 41.1246C27.2344 40.4465 26.3156 40.184 25.4406 40.3262C25.5828 39.4512 25.3094 38.5215 24.6422 37.8543C24.1063 37.3184 23.3844 37.0121 22.6187 37.0121C22.4656 37.0121 22.3125 37.023 22.1703 37.0449C22.3125 36.1699 22.0391 35.2402 21.3719 34.573C20.8359 34.0371 20.1141 33.7309 19.3484 33.7309C18.5828 33.7309 17.8609 34.0262 17.325 34.573L15.1484 36.7496C14.7984 37.0996 14.5578 37.5152 14.4266 37.9637H12.2281V26.1402C13.1469 26.6762 14.2078 26.9824 15.3344 26.9824C17.9922 26.9824 20.2563 25.298 21.1422 22.9465H24.5766C25.1781 22.9465 25.7469 23.1762 26.1734 23.6027L27.2344 24.6637L23.8438 28.0543C23.2969 28.6012 23.0016 29.323 23.0016 30.0887C23.0016 30.8543 23.2969 31.5871 23.8438 32.123C24.4016 32.6809 25.1453 32.9652 25.8781 32.9652C26.6109 32.9652 27.3547 32.6809 27.9125 32.123L31.0844 28.9512C31.4891 28.5465 32.025 28.3277 32.5938 28.3277H38.15C38.4562 28.3277 38.6969 28.0871 38.6969 27.7809C38.6969 27.4746 38.4562 27.234 38.15 27.234H32.5938C31.7297 27.234 30.9203 27.573 30.3078 28.1746L27.1359 31.3465C26.4359 32.0465 25.3094 32.0465 24.6094 31.3465C24.2703 31.0074 24.0844 30.559 24.0844 30.0777C24.0844 29.5965 24.2703 29.148 24.6094 28.809L29.8375 23.5809C30.2641 23.1543 30.8328 22.9246 31.4344 22.9246H43.7828V37.9418L42 37.9637ZM49.3937 39.1559C49.3937 39.3637 49.2188 39.5387 49.0109 39.5387H45.2594C45.0516 39.5387 44.8766 39.3637 44.8766 39.1559V22.0387C44.8766 21.8309 45.0516 21.6559 45.2594 21.6559H49C49.2078 21.6559 49.3828 21.8309 49.3828 22.0387V39.1559H49.3937Z" fill="#172A70"/>
<path d="M15.9687 20.234H15.8812V19.359H16.7453C17.0516 19.359 17.2922 19.1184 17.2922 18.8122C17.2922 18.5059 17.0516 18.2653 16.7453 18.2653H15.8812V18.0793C15.8812 17.7731 15.6406 17.5325 15.3344 17.5325C15.0281 17.5325 14.7875 17.7731 14.7875 18.0793V18.2653H14.7C13.8578 18.2653 13.1687 18.9543 13.1687 19.7965C13.1687 20.6387 13.8578 21.3278 14.7 21.3278H14.7875V22.2028H13.9234C13.6172 22.2028 13.3766 22.4434 13.3766 22.7497C13.3766 23.0559 13.6172 23.2965 13.9234 23.2965H14.7875V23.4825C14.7875 23.7887 15.0281 24.0293 15.3344 24.0293C15.6406 24.0293 15.8812 23.7887 15.8812 23.4825V23.2965H15.9687C16.8109 23.2965 17.5 22.6075 17.5 21.7653C17.5 20.9231 16.8109 20.234 15.9687 20.234ZM14.7 20.234C14.4594 20.234 14.2625 20.0372 14.2625 19.7965C14.2625 19.5559 14.4594 19.359 14.7 19.359H14.7875V20.234H14.7ZM15.9687 22.2028H15.8812V21.3278H15.9687C16.2094 21.3278 16.4062 21.5247 16.4062 21.7653C16.4062 22.0059 16.2094 22.2028 15.9687 22.2028Z" fill="#172A70"/>
<path d="M10.5656 13.7263C10.4234 13.7263 10.2812 13.6716 10.1828 13.5622L9.69062 13.07L9.19844 13.5622C8.97969 13.781 8.64062 13.781 8.42187 13.5622C8.20313 13.3435 8.20313 13.0044 8.42187 12.7856L9.29687 11.9106C9.51562 11.6919 9.85469 11.6919 10.0734 11.9106L10.9484 12.7856C11.1672 13.0044 11.1672 13.3435 10.9484 13.5622C10.8391 13.6716 10.7078 13.7263 10.5656 13.7263Z" fill="#4B71FF"/>
<path d="M19.3266 49.6997C19.1844 49.6997 19.0422 49.645 18.9438 49.5356L18.4516 49.0434L17.9594 49.5356C17.7406 49.7543 17.4016 49.7543 17.1828 49.5356C16.9641 49.3168 16.9641 48.9778 17.1828 48.759L18.0578 47.884C18.2766 47.6653 18.6156 47.6653 18.8344 47.884L19.7094 48.759C19.9281 48.9778 19.9281 49.3168 19.7094 49.5356C19.6109 49.645 19.4688 49.6997 19.3266 49.6997Z" fill="#4B71FF"/>
<path d="M47.9281 15.9683H47.6V15.6401C47.6 15.3339 47.3594 15.0933 47.0531 15.0933C46.7469 15.0933 46.5063 15.3339 46.5063 15.6401V15.9683H46.1781C45.8719 15.9683 45.6313 16.2089 45.6313 16.5151C45.6313 16.8214 45.8719 17.062 46.1781 17.062H46.5063V17.3901C46.5063 17.6964 46.7469 17.937 47.0531 17.937C47.3594 17.937 47.6 17.6964 47.6 17.3901V17.062H47.9281C48.2344 17.062 48.475 16.8214 48.475 16.5151C48.475 16.2089 48.2344 15.9683 47.9281 15.9683Z" fill="#4B71FF"/>
<path d="M14.5906 46.0903H14.2625V45.7622C14.2625 45.456 14.0219 45.2153 13.7156 45.2153C13.4094 45.2153 13.1687 45.456 13.1687 45.7622V46.0903H12.8406C12.5344 46.0903 12.2937 46.331 12.2937 46.6372C12.2937 46.9435 12.5344 47.1841 12.8406 47.1841H13.1687V47.5122C13.1687 47.8185 13.4094 48.0591 13.7156 48.0591C14.0219 48.0591 14.2625 47.8185 14.2625 47.5122V47.1841H14.5906C14.8969 47.1841 15.1375 46.9435 15.1375 46.6372C15.1375 46.331 14.8969 46.0903 14.5906 46.0903Z" fill="#4B71FF"/>
<path d="M47.075 11.7246C46.9328 11.7246 46.7906 11.6699 46.6922 11.5605L46.2 11.0683L45.7844 11.4839C45.5656 11.7027 45.2266 11.7027 45.0078 11.4839C44.7891 11.2652 44.7891 10.9261 45.0078 10.7074L45.8062 9.90894C46.025 9.69019 46.3641 9.69019 46.5828 9.90894L47.4578 10.7839C47.6766 11.0027 47.6766 11.3417 47.4578 11.5605C47.3484 11.6699 47.2172 11.7246 47.075 11.7246Z" fill="#4B71FF"/>
<defs>
<linearGradient id="paint0_linear_42_3949" x1="27.9965" y1="0.00292969" x2="27.9965" y2="56.0007" gradientUnits="userSpaceOnUse">
<stop stop-color="#CAE2FF"/>
<stop offset="1" stop-color="#EAF4FF" stop-opacity="0"/>
</linearGradient>
</defs>
</svg>
