<svg width="26" height="21" viewBox="0 0 26 21" fill="none" xmlns="http://www.w3.org/2000/svg">
<path d="M0 20.2339V14.4136C0 12.7209 0.325521 10.9761 0.976562 9.1792C1.6276 7.38232 2.48698 5.68962 3.55469 4.10107C4.6224 2.48649 5.79427 1.1193 7.07031 -0.000488281L12.3047 3.04639C11.3672 4.60889 10.5599 6.28857 9.88281 8.08545C9.20573 9.88232 8.86719 11.9917 8.86719 14.4136V20.2339H0ZM13.2812 20.2339V14.4136C13.2812 12.7209 13.6068 10.9761 14.2578 9.1792C14.9089 7.38232 15.7682 5.68962 16.8359 4.10107C17.9036 2.48649 19.0755 1.1193 20.3516 -0.000488281L25.5859 3.04639C24.6484 4.60889 23.8411 6.28857 23.1641 8.08545C22.487 9.88232 22.1484 11.9917 22.1484 14.4136V20.2339H13.2812Z" fill="#172A70"/>
</svg>
