<svg width="48" height="43" viewBox="0 0 48 43" fill="none" xmlns="http://www.w3.org/2000/svg">
<path opacity="0.1" d="M46.1086 11.2998H34.6996V9.9873C34.6996 9.38323 34.2099 8.89355 33.6058 8.89355H14.3941C13.79 8.89355 13.3004 9.38323 13.3004 9.9873V11.2998H1.89136C1.28728 11.2998 0.797607 11.7895 0.797607 12.3936V36.3867C0.797607 36.9908 1.28728 37.4805 1.89136 37.4805H13.3004V38.793C13.3004 39.397 13.79 39.8867 14.3941 39.8867H33.6059C34.21 39.8867 34.6997 39.397 34.6997 38.793V37.4805H46.1087C46.7128 37.4805 47.2025 36.9908 47.2025 36.3867V12.3936C47.2024 11.7895 46.7127 11.2998 46.1086 11.2998Z" fill="#172A70"/>
<path d="M46.1086 34.8555H29.5219C28.9178 34.8555 28.4281 34.3658 28.4281 33.7617V9.76855C28.4281 9.16448 28.9178 8.6748 29.5219 8.6748H46.1087C46.7128 8.6748 47.2025 9.16448 47.2025 9.76855V33.7617C47.2024 34.3658 46.7127 34.8555 46.1086 34.8555Z" fill="#4B71FF"/>
<path d="M45.5618 25.4338V10.6436C45.5618 10.4623 45.4149 10.3154 45.2337 10.3154H30.3969C30.2156 10.3154 30.0688 10.4623 30.0688 10.6436V25.4338C30.0688 25.615 30.2156 25.7619 30.3969 25.7619H45.2337C45.4148 25.7619 45.5618 25.615 45.5618 25.4338Z" fill="white"/>
<path d="M38.937 24.6841H37.5734C37.3922 24.6841 37.2453 24.5372 37.2453 24.356V22.9924C37.2453 22.8112 37.3922 22.6643 37.5734 22.6643H38.937C39.1182 22.6643 39.2651 22.8112 39.2651 22.9924V24.356C39.2651 24.5372 39.1182 24.6841 38.937 24.6841Z" fill="#4B71FF"/>
<path d="M41.6281 24.6841H40.2645C40.0833 24.6841 39.9364 24.5372 39.9364 24.356V22.9924C39.9364 22.8112 40.0833 22.6643 40.2645 22.6643H41.6281C41.8093 22.6643 41.9562 22.8112 41.9562 22.9924V24.356C41.9562 24.5372 41.8093 24.6841 41.6281 24.6841Z" fill="#4B71FF"/>
<path d="M44.3191 24.6841H42.9556C42.7743 24.6841 42.6274 24.5372 42.6274 24.356V22.9924C42.6274 22.8112 42.7743 22.6643 42.9556 22.6643H44.3191C44.5004 22.6643 44.6473 22.8112 44.6473 22.9924V24.356C44.6473 24.5372 44.5003 24.6841 44.3191 24.6841Z" fill="#4B71FF"/>
<path d="M38.0912 29.1639C37.7892 29.1639 37.5443 28.919 37.5443 28.617V28.6021C37.5443 28.3001 37.7892 28.0552 38.0912 28.0552C38.3932 28.0552 38.6381 28.3001 38.6381 28.6021V28.617C38.6381 28.9191 38.3933 29.1639 38.0912 29.1639Z" fill="white"/>
<path d="M38.3099 32.3118H31.5126C31.2106 32.3118 30.9657 32.0669 30.9657 31.7649C30.9657 31.4629 31.2106 31.218 31.5126 31.218H38.3099C38.6119 31.218 38.8568 31.4629 38.8568 31.7649C38.8568 32.0669 38.612 32.3118 38.3099 32.3118Z" fill="white"/>
<path d="M44.3366 32.3118H42.1972C41.8953 32.3118 41.6504 32.0669 41.6504 31.7649C41.6504 31.4629 41.8953 31.218 42.1972 31.218H44.3366C44.6386 31.218 44.8835 31.4629 44.8835 31.7649C44.8835 32.0669 44.6386 32.3118 44.3366 32.3118Z" fill="white"/>
<path d="M44.3366 30.4092H43.5702C43.2682 30.4092 43.0233 30.1643 43.0233 29.8623C43.0233 29.5603 43.2682 29.3154 43.5702 29.3154H44.3366C44.6386 29.3154 44.8835 29.5603 44.8835 29.8623C44.8835 30.1643 44.6386 30.4092 44.3366 30.4092Z" fill="white"/>
<path d="M36.2801 30.0812H31.4221C31.1201 30.0812 30.8752 29.8363 30.8752 29.5343V28.5066C30.8752 28.2046 31.1201 27.9597 31.4221 27.9597H36.2801C36.582 27.9597 36.8269 28.2046 36.8269 28.5066V29.5343C36.8269 29.8364 36.582 30.0812 36.2801 30.0812Z" fill="white"/>
<path d="M18.4781 34.8555H1.89136C1.28728 34.8555 0.797607 34.3658 0.797607 33.7617V9.76855C0.797607 9.16448 1.28728 8.6748 1.89136 8.6748H18.4782C19.0823 8.6748 19.5719 9.16448 19.5719 9.76855V33.7617C19.5718 34.3658 19.0822 34.8555 18.4781 34.8555Z" fill="#4B71FF"/>
<path d="M17.9312 25.4338V10.6436C17.9312 10.4623 17.7843 10.3154 17.6031 10.3154H2.76624C2.585 10.3154 2.43811 10.4623 2.43811 10.6436V25.4338C2.43811 25.615 2.585 25.7619 2.76624 25.7619H17.6031C17.7843 25.7619 17.9312 25.615 17.9312 25.4338Z" fill="white"/>
<path d="M11.3065 24.6841H9.9429C9.76167 24.6841 9.61478 24.5372 9.61478 24.356V22.9924C9.61478 22.8112 9.76167 22.6643 9.9429 22.6643H11.3065C11.4877 22.6643 11.6346 22.8112 11.6346 22.9924V24.356C11.6346 24.5372 11.4877 24.6841 11.3065 24.6841Z" fill="#4B71FF"/>
<path d="M13.9975 24.6841H12.634C12.4527 24.6841 12.3058 24.5372 12.3058 24.356V22.9924C12.3058 22.8112 12.4527 22.6643 12.634 22.6643H13.9975C14.1788 22.6643 14.3257 22.8112 14.3257 22.9924V24.356C14.3257 24.5372 14.1788 24.6841 13.9975 24.6841Z" fill="#4B71FF"/>
<path d="M16.6885 24.6841H15.3249C15.1437 24.6841 14.9968 24.5372 14.9968 24.356V22.9924C14.9968 22.8112 15.1437 22.6643 15.3249 22.6643H16.6885C16.8697 22.6643 17.0166 22.8112 17.0166 22.9924V24.356C17.0166 24.5372 16.8697 24.6841 16.6885 24.6841Z" fill="#4B71FF"/>
<path d="M10.4607 29.1639C10.1587 29.1639 9.91379 28.919 9.91379 28.617V28.6021C9.91379 28.3001 10.1587 28.0552 10.4607 28.0552C10.7626 28.0552 11.0075 28.3001 11.0075 28.6021V28.617C11.0075 28.9191 10.7628 29.1639 10.4607 29.1639Z" fill="white"/>
<path d="M10.6794 32.3118H3.88208C3.5801 32.3118 3.33521 32.0669 3.33521 31.7649C3.33521 31.4629 3.5801 31.218 3.88208 31.218H10.6794C10.9814 31.218 11.2263 31.4629 11.2263 31.7649C11.2263 32.0669 10.9815 32.3118 10.6794 32.3118Z" fill="white"/>
<path d="M16.7061 32.3118H14.5667C14.2647 32.3118 14.0198 32.0669 14.0198 31.7649C14.0198 31.4629 14.2647 31.218 14.5667 31.218H16.7061C17.0081 31.218 17.253 31.4629 17.253 31.7649C17.253 32.0669 17.0081 32.3118 16.7061 32.3118Z" fill="white"/>
<path d="M16.7061 30.4092H15.9397C15.6377 30.4092 15.3928 30.1643 15.3928 29.8623C15.3928 29.5603 15.6377 29.3154 15.9397 29.3154H16.7061C17.0081 29.3154 17.253 29.5603 17.253 29.8623C17.253 30.1643 17.0081 30.4092 16.7061 30.4092Z" fill="white"/>
<path d="M8.64953 30.0812H3.79153C3.48955 30.0812 3.24466 29.8363 3.24466 29.5343V28.5066C3.24466 28.2046 3.48955 27.9597 3.79153 27.9597H8.64953C8.95152 27.9597 9.19641 28.2046 9.19641 28.5066V29.5343C9.19641 29.8364 8.95152 30.0812 8.64953 30.0812Z" fill="white"/>
<path d="M5.86713 13.0498H4.62561C4.32363 13.0498 4.07874 12.8049 4.07874 12.5029C4.07874 12.2009 4.32363 11.9561 4.62561 11.9561H5.86713C6.16911 11.9561 6.414 12.2009 6.414 12.5029C6.414 12.8049 6.16911 13.0498 5.86713 13.0498Z" fill="#4B71FF"/>
<path d="M33.6059 37.2617H14.3941C13.7901 37.2617 13.3004 36.772 13.3004 36.168V7.3623C13.3004 6.75823 13.7901 6.26855 14.3941 6.26855H33.606C34.21 6.26855 34.6997 6.75823 34.6997 7.3623V36.168C34.6996 36.772 34.2099 37.2617 33.6059 37.2617Z" fill="white"/>
<path d="M33.059 27.84V8.2373C33.059 8.05607 32.9121 7.90918 32.7309 7.90918H15.2691C15.0879 7.90918 14.941 8.05607 14.941 8.2373V27.84C14.941 28.0213 15.0879 28.1682 15.2691 28.1682H32.731C32.9121 28.1682 33.059 28.0213 33.059 27.84Z" fill="#4B71FF"/>
<path d="M46.1086 8.12793H35.2465V7.3623C35.2465 6.45766 34.5105 5.72168 33.6058 5.72168H14.3941C13.4895 5.72168 12.7535 6.45766 12.7535 7.3623V34.3086H1.89136C1.58981 34.3086 1.34448 34.0633 1.34448 33.7617V9.76855C1.34448 9.46701 1.58981 9.22168 1.89136 9.22168H10.0825C10.3844 9.22168 10.6293 8.97679 10.6293 8.6748C10.6293 8.37282 10.3844 8.12793 10.0825 8.12793H1.89136C0.986717 8.12793 0.250732 8.86391 0.250732 9.76855V33.7617C0.250732 34.6664 0.986717 35.4023 1.89136 35.4023H12.7535V36.168C12.7535 37.0726 13.4895 37.8086 14.3941 37.8086H33.6058C34.5105 37.8086 35.2465 37.0726 35.2465 36.168V35.4023H46.1086C47.0132 35.4023 47.7492 34.6664 47.7492 33.7617V9.76855C47.7492 8.86391 47.0132 8.12793 46.1086 8.12793ZM46.6555 33.7617C46.6555 34.0633 46.4102 34.3086 46.1086 34.3086H35.2465V21.199C35.2465 20.897 35.0016 20.6521 34.6996 20.6521C34.3976 20.6521 34.1527 20.897 34.1527 21.199V36.1679C34.1527 36.4694 33.9074 36.7147 33.6058 36.7147H14.3941C14.0926 36.7147 13.8472 36.4694 13.8472 36.1679V7.3623C13.8472 7.06076 14.0926 6.81543 14.3941 6.81543H33.6058C33.9074 6.81543 34.1527 7.06076 34.1527 7.3623V18.0946C34.1527 18.3966 34.3976 18.6415 34.6996 18.6415C35.0016 18.6415 35.2465 18.3966 35.2465 18.0946V9.22168H46.1086C46.4102 9.22168 46.6555 9.46701 46.6555 9.76855V33.7617Z" fill="#172A70"/>
<path d="M25.3697 31.5702C25.0677 31.5702 24.8228 31.3253 24.8228 31.0233V31.0083C24.8228 30.7063 25.0677 30.4614 25.3697 30.4614C25.6717 30.4614 25.9166 30.7063 25.9166 31.0083V31.0233C25.9166 31.3254 25.6718 31.5702 25.3697 31.5702Z" fill="#4B71FF"/>
<path d="M25.5884 34.718H16.3849C16.0829 34.718 15.838 34.4731 15.838 34.1711C15.838 33.8692 16.0829 33.6243 16.3849 33.6243H25.5884C25.8904 33.6243 26.1353 33.8692 26.1353 34.1711C26.1353 34.4731 25.8905 34.718 25.5884 34.718Z" fill="#4B71FF"/>
<path d="M31.8339 34.718H29.6945C29.3925 34.718 29.1476 34.4731 29.1476 34.1711C29.1476 33.8692 29.3925 33.6243 29.6945 33.6243H31.8339C32.1358 33.6243 32.3807 33.8692 32.3807 34.1711C32.3807 34.4731 32.1358 34.718 31.8339 34.718Z" fill="#4B71FF"/>
<path d="M31.8339 32.8154H31.0675C30.7655 32.8154 30.5206 32.5705 30.5206 32.2686C30.5206 31.9666 30.7655 31.7217 31.0675 31.7217H31.8339C32.1358 31.7217 32.3807 31.9666 32.3807 32.2686C32.3807 32.5705 32.1358 32.8154 31.8339 32.8154Z" fill="#4B71FF"/>
<path d="M23.5585 32.4874H16.2943C15.9923 32.4874 15.7474 32.2425 15.7474 31.9405V30.9128C15.7474 30.6109 15.9923 30.366 16.2943 30.366H23.5585C23.8605 30.366 24.1054 30.6109 24.1054 30.9128V31.9405C24.1054 32.2426 23.8605 32.4874 23.5585 32.4874Z" fill="#4B71FF"/>
<path d="M18.3699 10.6436H17.1284C16.8264 10.6436 16.5815 10.3987 16.5815 10.0967C16.5815 9.7947 16.8264 9.5498 17.1284 9.5498H18.3699C18.6719 9.5498 18.9168 9.7947 18.9168 10.0967C18.9168 10.3987 18.672 10.6436 18.3699 10.6436Z" fill="white"/>
<path d="M25.9449 26.9229H24.3625C24.1813 26.9229 24.0344 26.776 24.0344 26.5948V25.0125C24.0344 24.8312 24.1813 24.6843 24.3625 24.6843H25.9449C26.1261 24.6843 26.273 24.8312 26.273 25.0125V26.5948C26.273 26.776 26.126 26.9229 25.9449 26.9229Z" fill="white"/>
<path d="M28.8546 26.9229H27.2722C27.091 26.9229 26.9441 26.776 26.9441 26.5948V25.0125C26.9441 24.8312 27.091 24.6843 27.2722 24.6843H28.8546C29.0358 24.6843 29.1827 24.8312 29.1827 25.0125V26.5948C29.1827 26.776 29.0358 26.9229 28.8546 26.9229Z" fill="white"/>
<path d="M31.7644 26.9229H30.1821C30.0008 26.9229 29.8539 26.776 29.8539 26.5948V25.0125C29.8539 24.8312 30.0008 24.6843 30.1821 24.6843H31.7644C31.9456 24.6843 32.0925 24.8312 32.0925 25.0125V26.5948C32.0925 26.776 31.9456 26.9229 31.7644 26.9229Z" fill="white"/>
<path d="M43.2669 42.6394C42.3623 42.6394 41.6263 41.9034 41.6263 40.9988C41.6263 40.0941 42.3623 39.3582 43.2669 39.3582C44.1716 39.3582 44.9076 40.0941 44.9076 40.9988C44.9076 41.9034 44.1716 42.6394 43.2669 42.6394ZM43.2669 40.4519C42.9654 40.4519 42.7201 40.6972 42.7201 40.9988C42.7201 41.3003 42.9654 41.5457 43.2669 41.5457C43.5685 41.5457 43.8138 41.3003 43.8138 40.9988C43.8138 40.6972 43.5685 40.4519 43.2669 40.4519Z" fill="#4B71FF"/>
<path d="M8.10266 4.81567C7.19802 4.81567 6.46204 4.07969 6.46204 3.17505C6.46204 2.27041 7.19802 1.53442 8.10266 1.53442C9.0073 1.53442 9.74329 2.27041 9.74329 3.17505C9.74329 4.07969 9.0073 4.81567 8.10266 4.81567ZM8.10266 2.62817C7.80111 2.62817 7.55579 2.8735 7.55579 3.17505C7.55579 3.4766 7.80111 3.72192 8.10266 3.72192C8.40421 3.72192 8.64954 3.4766 8.64954 3.17505C8.64954 2.8735 8.40421 2.62817 8.10266 2.62817Z" fill="#4B71FF"/>
<path d="M31.8339 3.8313C30.9292 3.8313 30.1932 3.09531 30.1932 2.19067C30.1932 1.28603 30.9292 0.550049 31.8339 0.550049C32.7385 0.550049 33.4745 1.28603 33.4745 2.19067C33.4745 3.09531 32.7385 3.8313 31.8339 3.8313ZM31.8339 1.6438C31.5323 1.6438 31.287 1.88913 31.287 2.19067C31.287 2.49222 31.5323 2.73755 31.8339 2.73755C32.1354 2.73755 32.3807 2.49222 32.3807 2.19067C32.3807 1.88913 32.1354 1.6438 31.8339 1.6438Z" fill="#4B71FF"/>
<path d="M34.3699 42.6393C34.2299 42.6393 34.09 42.5859 33.9832 42.4792C33.7696 42.2656 33.7696 41.9193 33.9832 41.7058L35.0769 40.612C35.2905 40.3985 35.6367 40.3985 35.8503 40.612C36.0639 40.8256 36.0639 41.1719 35.8503 41.3854L34.7566 42.4792C34.6498 42.5858 34.5098 42.6393 34.3699 42.6393Z" fill="#4B71FF"/>
<path d="M12.7535 4.26869C12.6135 4.26869 12.4736 4.21531 12.3667 4.10856C12.1531 3.89496 12.1531 3.54867 12.3667 3.33517L13.4605 2.24142C13.6741 2.02792 14.0203 2.02792 14.2339 2.24142C14.4475 2.45503 14.4475 2.80131 14.2339 3.01481L13.1401 4.10856C13.0334 4.2152 12.8935 4.26869 12.7535 4.26869Z" fill="#4B71FF"/>
</svg>
