<svg width="15" height="14" viewBox="0 0 15 14" fill="none" xmlns="http://www.w3.org/2000/svg">
<path fill-rule="evenodd" clip-rule="evenodd" d="M7.5 0.333344C3.81809 0.333344 0.833328 3.31811 0.833328 7.00001C0.833328 10.6819 3.81809 13.6667 7.5 13.6667C11.1819 13.6667 14.1667 10.6819 14.1667 7.00001C14.1667 3.31811 11.1819 0.333344 7.5 0.333344ZM5.16666 4.66668C5.16666 3.37801 6.21133 2.33334 7.5 2.33334C8.78866 2.33334 9.83333 3.37801 9.83333 4.66668C9.83333 5.95534 8.78866 7.00001 7.5 7.00001C6.21133 7.00001 5.16666 5.95534 5.16666 4.66668ZM3.0188 9.89308C4.11795 8.99454 5.72314 8.33334 7.5 8.33334C9.27686 8.33334 10.8821 8.99454 11.9812 9.89308C11.0313 11.3615 9.37913 12.3333 7.5 12.3333C5.6209 12.3333 3.96878 11.3615 3.0188 9.89308Z" fill="white"/>
</svg>
