<svg width="20" height="20" viewBox="0 0 20 20" fill="none" xmlns="http://www.w3.org/2000/svg">
<path d="M15.4167 3.99121C13.25 7.78288 9.07501 9.95788 4.72501 9.56621L2.08334 9.32454" stroke="#3862FF" stroke-miterlimit="10" stroke-linecap="round" stroke-linejoin="round"/>
<path d="M4.58334 16.1413C6.75001 12.3496 10.925 10.1746 15.275 10.5663L17.9167 10.8079" stroke="#3862FF" stroke-miterlimit="10" stroke-linecap="round" stroke-linejoin="round"/>
<path d="M9.99999 18.3327C14.6024 18.3327 18.3333 14.6017 18.3333 9.99935C18.3333 5.39698 14.6024 1.66602 9.99999 1.66602C5.39762 1.66602 1.66666 5.39698 1.66666 9.99935C1.66666 14.6017 5.39762 18.3327 9.99999 18.3327Z" stroke="#3862FF" stroke-miterlimit="10" stroke-linecap="round" stroke-linejoin="round"/>
<path d="M6.35834 2.49951L9.00834 5.79118C10.7833 7.99118 12.0417 10.5495 12.7083 13.2912L13.7167 17.4495" stroke="#3862FF" stroke-miterlimit="10" stroke-linecap="round" stroke-linejoin="round"/>
</svg>
