<svg width="20" height="20" viewBox="0 0 20 20" fill="none" xmlns="http://www.w3.org/2000/svg">
<path d="M5.75002 17.166C7.00002 17.916 8.50002 18.3327 10 18.3327C14.5834 18.3327 18.3334 14.5827 18.3334 9.99935C18.3334 5.41602 14.5834 1.66602 10 1.66602C5.41669 1.66602 1.66669 5.41602 1.66669 9.99935C1.66669 11.4993 2.08335 12.916 2.75002 14.166L2.10713 16.6387C1.91241 17.3876 2.60561 18.0644 3.34967 17.8518L5.75002 17.166Z" stroke="#3862FF" stroke-miterlimit="10" stroke-linecap="round" stroke-linejoin="round"/>
<path d="M13.75 12.3733C13.75 12.5083 13.72 12.647 13.6561 12.782C13.5923 12.917 13.5096 13.0445 13.4007 13.1645C13.2167 13.367 13.0139 13.5133 12.7848 13.607C12.5595 13.7008 12.3153 13.7495 12.0525 13.7495C11.6694 13.7495 11.26 13.6595 10.8281 13.4758C10.3962 13.292 9.96432 13.0445 9.53618 12.7333C9.10428 12.4183 8.69492 12.0695 8.30433 11.6833C7.9175 11.2933 7.56823 10.8845 7.25651 10.457C6.94855 10.0295 6.70068 9.60201 6.52041 9.17826C6.34014 8.75076 6.25 8.34201 6.25 7.95201C6.25 7.69701 6.29507 7.45326 6.3852 7.22826C6.47534 6.99951 6.61805 6.78951 6.8171 6.60201C7.05746 6.36576 7.32036 6.24951 7.59827 6.24951C7.70343 6.24951 7.80859 6.27201 7.90248 6.31701C8.00013 6.36201 8.0865 6.42951 8.15411 6.52701L9.02541 7.75326C9.09301 7.84701 9.14184 7.93326 9.17564 8.01576C9.20944 8.09451 9.22822 8.17326 9.22822 8.24451C9.22822 8.33451 9.20193 8.42451 9.14935 8.51076C9.10053 8.59701 9.02917 8.68701 8.93903 8.77701L8.65361 9.07326C8.61229 9.11451 8.59352 9.16326 8.59352 9.22326C8.59352 9.25326 8.59727 9.27951 8.60478 9.30951C8.61605 9.33951 8.62732 9.36201 8.63483 9.38451C8.70243 9.50826 8.81885 9.66951 8.9841 9.86451C9.1531 10.0595 9.33337 10.2583 9.52867 10.457C9.73147 10.6558 9.92677 10.8395 10.1258 11.0083C10.3211 11.1733 10.4826 11.2858 10.6103 11.3533C10.6291 11.3608 10.6516 11.372 10.6779 11.3833C10.7079 11.3945 10.738 11.3983 10.7718 11.3983C10.8356 11.3983 10.8845 11.3758 10.9258 11.3345L11.2112 11.0533C11.3051 10.9595 11.3952 10.8883 11.4816 10.8433C11.568 10.7908 11.6544 10.7645 11.7482 10.7645C11.8196 10.7645 11.8947 10.7795 11.9773 10.8133C12.06 10.847 12.1463 10.8958 12.2402 10.9595L13.4834 11.8408C13.581 11.9083 13.6486 11.987 13.6899 12.0808C13.7275 12.1745 13.75 12.2683 13.75 12.3733Z" stroke="#3862FF" stroke-miterlimit="10"/>
</svg>
