<svg width="55" height="56" viewBox="0 0 55 56" fill="none" xmlns="http://www.w3.org/2000/svg">
<path d="M49.481 44.5308C52.5155 40.1873 54.2969 34.9036 54.2969 29.2031C54.2969 14.4036 42.2995 2.40625 27.5 2.40625C12.7005 2.40625 0.703125 14.4036 0.703125 29.2031C0.703125 34.9036 2.48452 40.1873 5.51902 44.5308H49.481Z" fill="#2D23BF"/>
<path d="M27.5 43.9688C38.3731 43.9688 47.1875 35.1544 47.1875 24.2812C47.1875 13.4081 38.3731 4.59375 27.5 4.59375C16.6269 4.59375 7.8125 13.4081 7.8125 24.2812C7.8125 35.1544 16.6269 43.9688 27.5 43.9688Z" fill="#47477F"/>
<path d="M44.5874 28.343C42.2335 27.5191 41.5914 25.8856 42.6091 22.6756C43.5284 19.7758 39.7407 16.751 39 16.1934V12.8125C39 9.8152 37.853 7.08608 35.9744 5.03923C35.9744 5.03923 35.8736 2.00834 34.3657 1.3125C32.8577 0.616656 31.246 0 27.5 0C23.754 0 20.7093 1.5423 18.5455 3.98377C16.3816 6.42523 16 10.2959 16 12.8125V12.8257C16 14.7518 15.2744 16.5982 13.9997 18.0423C12.8899 19.2995 11.8623 21.0082 12.3909 22.6756C13.4086 25.8857 12.7666 27.5191 10.4126 28.343C8.05859 29.1669 2.49446 34.4457 8.34384 42.1497H46.656C52.5054 34.4457 46.9414 29.1669 44.5874 28.343Z" fill="#FFDD40"/>
<path d="M36.6996 19.9504H18.3228C18.3228 19.9504 15.9731 15.835 15.9971 12.9465C15.9674 14.8288 15.2477 16.6285 13.9997 18.0423C12.8899 19.2995 11.8623 21.0082 12.3909 22.6756C13.4086 25.8857 12.7666 27.5191 10.4126 28.343C8.05859 29.1669 2.49446 34.4457 8.34384 42.1497H42.3447C41.2215 25.9161 36.6996 19.9504 36.6996 19.9504Z" fill="#FFC839"/>
<path d="M46.4829 38.5479C43.9221 36.2868 32.9655 34.4536 32.6828 34.4066H22.3172C22.0345 34.4535 11.0779 36.2868 8.5171 38.5479C7.60371 39.3543 6.52976 41.7569 5.52121 44.5309C10.3648 51.4639 18.401 56 27.5 56C36.599 56 44.6352 51.4639 49.4788 44.5308C48.4703 41.7568 47.3963 39.3543 46.4829 38.5479Z" fill="#FCAD6D"/>
<path d="M11.9357 51.0161H43.0642C45.5533 49.236 47.7253 47.0407 49.4787 44.5308C48.4702 41.7567 47.3962 39.3543 46.4828 38.5478C43.922 36.2867 32.9654 34.4534 32.6827 34.4065H22.317C22.0344 34.4533 11.0778 36.2867 8.51698 38.5478C7.60359 39.3542 6.52963 41.7567 5.52109 44.5308C7.27459 47.0407 9.44667 49.236 11.9357 51.0161Z" fill="#FCAD6D"/>
<path d="M11.9357 51.0161H27.5V34.4066H22.3172C22.0345 34.4535 11.0779 36.2868 8.5171 38.5479C7.60371 39.3543 6.52976 41.7569 5.52121 44.5309C7.2746 47.0407 9.44668 49.236 11.9357 51.0161Z" fill="#FD995B"/>
<path d="M12.5724 51.0161C12.3037 49.7512 11.9812 46.4401 14.8793 43.2311C14.8793 43.2311 10.9617 44.658 10.0421 49.5298C10.6507 50.0532 11.284 50.5484 11.9383 51.0161H12.5724Z" fill="#EA7E42"/>
<path d="M32.6828 24.1428H22.3172V34.4067C22.3172 34.4067 24.3976 36.6043 27.4764 36.6043C30.5552 36.6043 32.6828 34.4067 32.6828 34.4067V24.1428Z" fill="#FCAD6D"/>
<path d="M22.3172 24.1428V34.4067C32.6775 34.4067 32.6828 28.566 32.6828 28.566V24.1429H22.3172V24.1428Z" fill="#FD995B"/>
<path d="M34.6829 35.517C33.9615 34.8991 33.5473 33.9972 33.5473 33.0474C33.5473 32.4433 33.0577 31.9537 32.4536 31.9537H22.5465C21.9424 31.9537 21.4528 32.4433 21.4528 33.0474C21.4528 33.9972 21.0386 34.8991 20.3172 35.517C18.3133 37.2335 14.2147 41.1557 12.6648 45.6871C12.0931 47.3585 11.9052 49.2094 11.9329 51.0161C16.3208 54.1533 21.6946 56 27.5 56C33.3054 56 38.6792 54.1533 43.0672 51.0161C43.0949 49.2094 42.907 47.3586 42.3353 45.6871C40.7855 41.1557 36.6868 37.2335 34.6829 35.517Z" fill="#FF4155"/>
<path d="M18.4953 51.0161C18.4676 49.2094 18.6555 47.3586 19.2272 45.6871C20.777 41.1557 24.8757 37.2335 26.8796 35.517C27.601 34.8991 28.0152 33.9972 28.0152 33.0474C28.0152 32.4433 28.5048 31.9537 29.1089 31.9537H22.5464C21.9423 31.9537 21.4527 32.4433 21.4527 33.0474C21.4527 33.9972 21.0385 34.8991 20.3171 35.517C18.3132 37.2335 14.2145 41.1557 12.6647 45.6871C12.093 47.3585 11.9051 49.2094 11.9328 51.0161C14.1345 52.5902 16.5846 53.8392 19.2127 54.6933C18.828 53.5668 18.5775 52.343 18.4953 51.0161Z" fill="#E80054"/>
<path d="M35.7095 17.4526C35.7095 17.4526 36.8453 14.6871 38.8701 15.3291C40.8948 15.9711 38.8211 21.9642 34.8699 22.3418L35.7095 17.4526Z" fill="#FCAD6D"/>
<path d="M36.6996 23.3635C37.6057 23.3635 38.3403 22.629 38.3403 21.7229C38.3403 20.8168 37.6057 20.0822 36.6996 20.0822C35.7936 20.0822 35.059 20.8168 35.059 21.7229C35.059 22.629 35.7936 23.3635 36.6996 23.3635Z" fill="white"/>
<path d="M34.0625 10.0462C34.7375 13.7139 37.0678 15.6406 37.0757 15.6472C37.0788 15.7813 37.0809 15.9158 37.0809 16.0513C37.0809 23.1066 32.7913 31.3808 27.5 31.3808C23.1676 31.3808 19.5073 25.8336 18.3228 19.9504C28.4054 18.9448 34.0625 10.0462 34.0625 10.0462Z" fill="#F9BA8F"/>
<path d="M22.5327 19.0288C21.2303 19.4741 19.8261 19.8005 18.3228 19.9503C19.5073 25.8336 23.1676 31.3808 27.5 31.3808C28.2526 31.3808 28.9849 31.2129 29.6875 30.9054C26.1347 29.3507 23.3422 24.215 22.5327 19.0288Z" fill="#FCAD6D"/>
<path d="M29.0298 21.0489L28.1071 19.5788C27.8261 19.1311 27.1738 19.1311 26.8929 19.5788L25.9702 21.0489C25.6706 21.5263 26.0137 22.1468 26.5773 22.1468H28.4226C28.9863 22.1467 29.3294 21.5262 29.0298 21.0489Z" fill="#FCAD6D"/>
<path d="M29.7549 26.3451H25.245C24.7954 25.949 24.4512 25.4364 24.2595 24.8543C24.0863 24.3281 24.4858 23.7874 25.0398 23.7874H29.9601C30.514 23.7874 30.9136 24.3281 30.7403 24.8543C30.5487 25.4364 30.2045 25.949 29.7549 26.3451Z" fill="#2D2D59"/>
<path d="M25.2451 26.3452C25.8459 26.8755 26.6357 27.1981 27.5 27.1981C28.3643 27.1981 29.1542 26.8756 29.7549 26.3452C29.1533 25.8148 28.3643 25.4922 27.5 25.4922C26.6357 25.4922 25.8467 25.8148 25.2451 26.3452Z" fill="#FF4155"/>
<path d="M33.5155 17.7281C33.5202 17.3458 33.3656 16.962 33.0515 16.6847C32.5402 16.2332 31.7565 16.2332 31.2452 16.6847C30.9312 16.962 30.7766 17.3458 30.7812 17.7281C30.7873 18.2244 31.3969 18.4626 31.7479 18.1116C31.9691 17.8905 32.3276 17.8905 32.5487 18.1116C32.8998 18.4627 33.5095 18.2245 33.5155 17.7281Z" fill="#2D2D59"/>
<path d="M31.0547 15.1996H33.2422C33.6952 15.1996 34.0625 14.8323 34.0625 14.3793C34.0625 13.9263 33.6952 13.559 33.2422 13.559H31.0547C30.6017 13.559 30.2344 13.9263 30.2344 14.3793C30.2344 14.8323 30.6017 15.1996 31.0547 15.1996Z" fill="#FF9100"/>
<path d="M33.2293 23.7873C34.1354 23.7873 34.8699 23.0528 34.8699 22.1467C34.8699 21.2406 34.1354 20.5061 33.2293 20.5061C32.3232 20.5061 31.5887 21.2406 31.5887 22.1467C31.5887 23.0528 32.3232 23.7873 33.2293 23.7873Z" fill="#F9896E"/>
<path d="M21.7707 23.7873C22.6768 23.7873 23.4113 23.0528 23.4113 22.1467C23.4113 21.2406 22.6768 20.5061 21.7707 20.5061C20.8646 20.5061 20.1301 21.2406 20.1301 22.1467C20.1301 23.0528 20.8646 23.7873 21.7707 23.7873Z" fill="#F9896E"/>
<path d="M46.8645 33.2562C47.6685 32.7494 48.0606 31.7792 47.8171 30.8605C47.0846 28.0969 44.5663 26.0601 41.5723 26.0601C38.5783 26.0601 36.06 28.0969 35.3275 30.8605C35.084 31.7792 35.4761 32.7494 36.2801 33.2562L41.5723 36.5926L46.8645 33.2562Z" fill="#FCF9EB"/>
<path d="M35.3275 30.8605C35.084 31.7792 35.4761 32.7494 36.2801 33.2562L41.5723 36.5926L43.7597 35.2136C37.4166 30.4902 41.5723 26.0601 41.5723 26.0601C38.5784 26.0601 36.0601 28.0969 35.3275 30.8605Z" fill="#FCECA9"/>
<path d="M41.5724 45.7626C40.9509 45.7626 40.43 45.2928 40.3659 44.6746L39.3849 35.2136H43.7599L42.7789 44.6746C42.7148 45.2929 42.1939 45.7626 41.5724 45.7626Z" fill="#47477F"/>
<path d="M36.1693 42.6506C36.1693 43.4057 36.7813 44.0178 37.5365 44.0178H36.625C35.8699 44.0178 35.2579 44.6298 35.2579 45.3849C35.2579 46.1401 35.8699 46.7521 36.625 46.7521H37.5365C36.7813 46.7521 36.1693 47.3642 36.1693 48.1193C36.1693 48.8744 36.7813 49.4865 37.5365 49.4865H38.4479C37.6928 49.4865 37.0807 50.0986 37.0807 50.8537C37.0807 51.6088 37.6928 52.2209 38.4479 52.2209H41.8203C44.8405 52.2209 47.289 49.7724 47.289 46.7521C47.289 43.7319 44.8405 41.2834 41.8203 41.2834H37.5364C36.7815 41.2834 36.1693 41.8956 36.1693 42.6506Z" fill="#F9BA8F"/>
<path d="M37.2652 50.1701C37.1486 50.3714 37.0808 50.6044 37.0808 50.8537C37.0808 51.6088 37.6929 52.2209 38.448 52.2209H39.3321C39.7096 52.2209 40.0157 51.9149 40.0157 51.5373C40.0157 51.1597 39.7096 50.8537 39.3321 50.8537H38.448C37.9421 50.8537 37.5017 50.5784 37.2652 50.1701Z" fill="#FCAD6D"/>
<path d="M36.3537 47.4357C36.2371 47.637 36.1693 47.8701 36.1693 48.1193C36.1693 48.8744 36.7813 49.4865 37.5365 49.4865H39.3321C39.7096 49.4865 40.0157 49.1805 40.0157 48.8029C40.0157 48.4254 39.7096 48.1193 39.3321 48.1193H37.5365C37.0307 48.1193 36.5902 47.844 36.3537 47.4357Z" fill="#FCAD6D"/>
<path d="M36.3537 41.967C36.2371 42.1682 36.1693 42.4013 36.1693 42.6506C36.1693 43.4057 36.7813 44.0178 37.5365 44.0178H39.3321C39.7096 44.0178 40.0157 43.7117 40.0157 43.3342C40.0157 42.9566 39.7096 42.6506 39.3321 42.6506H37.5365C37.0307 42.6506 36.5902 42.3753 36.3537 41.967Z" fill="#FCAD6D"/>
<path d="M35.4423 44.7014C35.3257 44.9026 35.2579 45.1357 35.2579 45.3849C35.2579 46.1401 35.8699 46.7521 36.625 46.7521H39.3321C39.7096 46.7521 40.0157 46.4461 40.0157 46.0685C40.0157 45.691 39.7096 45.3849 39.3321 45.3849H36.625C36.1193 45.3849 35.6787 45.1097 35.4423 44.7014Z" fill="#FCAD6D"/>
</svg>
