<svg width="57" height="56" viewBox="0 0 57 56" fill="none" xmlns="http://www.w3.org/2000/svg">
<path d="M47.9805 48.1124C45.5042 50.5113 42.1859 51.8438 38.7383 51.8438H15.3618C14.3067 51.8438 13.2736 51.5256 12.4106 50.9186C5.20706 45.8522 0.5 37.4758 0.5 28C0.5 12.5532 13.0082 0.0279061 28.4485 1.54978e-05C43.8592 -0.0277658 56.4668 12.5275 56.5 27.9383C56.517 35.8555 53.248 43.0094 47.9805 48.1124Z" fill="#8078BF"/>
<path d="M46.7656 29.4219C46.7656 41.1406 37.2656 50.6406 25.5469 50.6406C13.8281 50.6406 4.32812 41.1406 4.32812 29.4219C4.32812 17.7031 13.8281 8.20312 25.5469 8.20312C37.2656 8.20312 46.7656 17.7031 46.7656 29.4219Z" fill="#6A61B4"/>
<path d="M48.0158 48.0782C43.3367 52.627 37.073 55.5543 30.1318 55.9532H26.8682C21.4626 55.6426 16.4679 53.7984 12.3125 50.8492V49.7188C12.3125 48.8127 13.0471 48.0782 13.9531 48.0782H48.0158Z" fill="#EA552D"/>
<path d="M41.5156 52.8441C38.0804 54.651 34.2238 55.7648 30.1318 56H26.8682C24.5548 55.8671 22.3167 55.4532 20.1875 54.7922V48.125H41.5156V52.8441Z" fill="#D1462A"/>
<path d="M41.4062 48.125V52.8546C40.3501 53.4041 39.2546 53.8883 38.125 54.3018V48.125H41.4062ZM20.1875 54.7455C21.2553 55.077 22.3505 55.3463 23.4688 55.5492V48.125H20.1875V54.7455Z" fill="#BC3F2A"/>
<path d="M34.4674 11.1807C34.4674 14.6978 31.6162 17.549 28.0991 17.549C24.5821 17.549 21.7309 14.6978 21.7309 11.1807C21.7309 7.66369 24.582 4.8125 28.099 4.8125C31.6161 4.8125 34.4674 7.66369 34.4674 11.1807ZM43.9932 4.8125C40.4761 4.8125 37.6249 7.66369 37.6249 11.1807C37.6249 14.6978 40.4761 17.549 43.9932 17.549C47.5103 17.549 50.3614 14.6978 50.3614 11.1807C50.3614 7.66369 47.5103 4.8125 43.9932 4.8125Z" fill="#ABA6D5"/>
<path d="M31.2709 14.3771C32.2087 14.3771 33.099 14.1744 33.9006 13.8104C32.8995 16.0154 30.6783 17.549 28.099 17.549C24.582 17.549 21.7308 14.6978 21.7308 11.1807C21.7308 8.60134 23.2643 6.38015 25.4693 5.37915C25.1054 6.18076 24.9027 7.07118 24.9027 8.00885C24.9027 11.5259 27.7538 14.3771 31.2709 14.3771ZM47.1651 14.3771C43.648 14.3771 40.7968 11.5259 40.7968 8.00885C40.7968 7.07118 40.9995 6.18076 41.3635 5.37915C39.1585 6.38026 37.6249 8.60145 37.6249 11.1807C37.6249 14.6978 40.4761 17.549 43.9932 17.549C46.5726 17.549 48.7938 16.0154 49.7948 13.8104C48.9932 14.1744 48.1027 14.3771 47.1651 14.3771Z" fill="#958FCA"/>
<path d="M11.692 12.78C11.7406 12.9459 11.5866 13.1 11.4207 13.0514L9.495 12.4873C9.45486 12.4756 9.4122 12.4756 9.37206 12.4873L7.44641 13.0514C7.28049 13.0999 7.12638 12.9459 7.17494 12.78L7.73899 10.8544C7.7508 10.8142 7.7508 10.7716 7.73899 10.7314L7.17494 8.80577C7.12638 8.63985 7.28038 8.48574 7.44641 8.5343L9.37206 9.09835C9.4122 9.11016 9.45486 9.11016 9.495 9.09835L11.4207 8.5343C11.5866 8.48574 11.7407 8.63974 11.692 8.80577L11.128 10.7314C11.1162 10.7716 11.1162 10.8142 11.128 10.8544L11.692 12.78Z" fill="#FFCD71"/>
<path d="M42.0625 34.4063V39.0001C42.0625 39.9061 41.3279 40.6407 40.4219 40.6407H8.70312C7.79706 40.6407 7.0625 39.9061 7.0625 39.0001V34.4063C7.0625 33.5002 7.79706 32.7657 8.70312 32.7657H40.4219C41.3279 32.7657 42.0625 33.5002 42.0625 34.4063Z" fill="#40C1FA"/>
<path d="M42.0625 34.4531V39.0469C42.0625 39.9529 41.3279 40.6875 40.4219 40.6875H16.5781C15.6721 40.6875 14.9375 39.9529 14.9375 39.0469V34.4531C14.9375 33.5471 15.6721 32.8125 16.5781 32.8125H40.4219C41.3279 32.8125 42.0625 33.5471 42.0625 34.4531Z" fill="#72D1FB"/>
<path d="M36.1562 32.8125V40.6875H20.625V32.8125H36.1562Z" fill="#07A9F0"/>
<path d="M22.2656 40.6875H19.4219V32.8125H22.2656V40.6875ZM37.0312 32.8125H34.1875V40.6875H37.0312V32.8125Z" fill="#0691CE"/>
<path d="M25.3863 21.1719C25.3863 23.3465 23.6234 25.1094 21.4488 25.1094H10.8906C9.98456 25.1094 9.25 24.3749 9.25 23.4688V18.8751C9.25 17.969 9.98456 17.2344 10.8906 17.2344H21.4488C23.6234 17.2344 25.3863 18.9973 25.3863 21.1719Z" fill="#FFA90B"/>
<path d="M48.4062 18.8751V23.4688C48.4062 24.3749 47.6717 25.1094 46.7656 25.1094H20.5703C18.3957 25.1094 16.6328 23.3465 16.6328 21.1719C16.6328 18.9973 18.3957 17.2344 20.5703 17.2344H22.8264L23.9201 18.2279H37.3061L38.1718 17.2344H46.7656C47.6717 17.2344 48.4062 17.969 48.4062 18.8751Z" fill="#FFC14F"/>
<path d="M36.4285 17.2344V25.1094H24.5625V17.2344H36.4285ZM14.9305 17.2344V25.1094H12.743V17.2344H14.9305ZM44.0312 17.2344V25.1094H41.8438V17.2344H44.0312Z" fill="#FF9100"/>
<path d="M25.0139 17.2344V25.1094H22.8264V17.2344H25.0139ZM38.1718 17.2344V25.1094H35.9843V17.2344H38.1718Z" fill="#FFA90B"/>
<path d="M6.19734 40.4219H47.9786V48.2969H6.19734C5.29128 48.2969 4.55672 47.5624 4.55672 46.6563V42.0626C4.55672 41.1565 5.29128 40.4219 6.19734 40.4219ZM16.25 25.1094C14.0754 25.1094 12.3125 26.8723 12.3125 29.0469C12.3125 31.2215 14.0754 32.9844 16.25 32.9844H51.9062C51.2599 30.3992 51.2599 27.6946 51.9062 25.1094H16.25Z" fill="#FFE7C0"/>
<path d="M43.9931 4.26562C40.85 4.26562 38.1899 6.37361 37.3523 9.25006H34.74C33.9024 6.37361 31.2423 4.26562 28.0991 4.26562C24.2861 4.26562 21.1839 7.36772 21.1839 11.1807C21.1839 11.2667 21.1855 11.3524 21.1886 11.4376H19.0938C15.7767 11.4376 13.0781 14.1362 13.0781 17.4532C13.0781 17.7552 13.3229 18.0001 13.625 18.0001C13.9271 18.0001 14.1719 17.7552 14.1719 17.4532C14.1719 14.7393 16.3798 12.5313 19.0938 12.5313H21.2812C21.293 12.5313 21.3045 12.5309 21.3161 12.5302C21.4175 13.0407 21.5752 13.531 21.7826 13.9946C19.2533 14.2854 17.3808 15.8004 17.3808 17.6811C17.3808 17.9831 17.6256 18.228 17.9277 18.228C18.2298 18.228 18.4746 17.9831 18.4746 17.6811C18.4746 16.313 20.2276 15.1476 22.3672 15.0453C23.6113 16.8845 25.7164 18.096 28.0992 18.096C30.4852 18.096 32.5927 16.8814 33.8361 15.038H38.2563C39.4996 16.8814 41.6072 18.096 43.9931 18.096C47.8061 18.096 50.9083 14.9939 50.9083 11.1809C50.9083 7.36783 47.8062 4.26562 43.9931 4.26562ZM43.9931 5.35938C47.2031 5.35938 49.8146 7.97081 49.8146 11.1807C49.8146 12.1801 49.5614 13.1215 49.1159 13.9441H38.8705C38.425 13.1215 38.1718 12.1801 38.1718 11.1807C38.1718 7.97081 40.7833 5.35938 43.9931 5.35938ZM37.1284 10.3438C37.0951 10.6182 37.0781 10.8975 37.0781 11.1807C37.0781 11.2667 37.0797 11.3524 37.0828 11.4376H35.0095C35.0126 11.3524 35.0142 11.2667 35.0142 11.1807C35.0142 10.8976 34.9971 10.6182 34.9638 10.3438H37.1284ZM28.0991 5.35938C31.3091 5.35938 33.9205 7.97081 33.9205 11.1807C33.9205 12.1801 33.6673 13.1215 33.2218 13.9441H22.9765C22.531 13.1215 22.2778 12.1801 22.2778 11.1807C22.2777 7.97081 24.8891 5.35938 28.0991 5.35938ZM28.0991 17.0021C26.3673 17.0021 24.8097 16.242 23.7424 15.0379H32.4558C31.3885 16.242 29.8309 17.0021 28.0991 17.0021ZM34.438 13.9441C34.6342 13.4958 34.7841 13.0228 34.8818 12.5313H37.2104C37.3081 13.0228 37.4581 13.4958 37.6543 13.9441H34.438ZM43.9931 17.0021C42.2613 17.0021 40.7037 16.242 39.6365 15.0379H48.3498C47.2825 16.242 45.7249 17.0021 43.9931 17.0021Z" fill="#453D83"/>
<path d="M30.9754 7.96994C31.9578 8.95235 32.356 10.1469 31.8648 10.6381C31.3736 11.1293 30.179 10.7311 29.1966 9.74871C28.2142 8.7663 27.816 7.57171 28.3072 7.0805C28.7984 6.5893 29.993 6.98754 30.9754 7.96994ZM44.3852 7.0805C43.894 7.57171 44.2922 8.7663 45.2746 9.74871C46.257 10.7311 47.4516 11.1293 47.9428 10.6381C48.434 10.1469 48.0358 8.95235 47.0534 7.96994C46.071 6.98754 44.8764 6.5893 44.3852 7.0805Z" fill="#C1BDE0"/>
<path d="M11.8213 15.6675L12.3136 16.725C12.3287 16.7573 12.3514 16.7854 12.3799 16.807L13.3098 17.511C13.4413 17.6106 13.4195 17.8141 13.2701 17.8838L12.2126 18.3761C12.1803 18.3912 12.1522 18.4139 12.1306 18.4424L11.4266 19.3723C11.327 19.5037 11.1235 19.482 11.0538 19.3326L10.5615 18.2751C10.5464 18.2428 10.5237 18.2146 10.4952 18.1931L9.56533 17.489C9.43386 17.3895 9.45563 17.186 9.60503 17.1163L10.6625 16.624C10.6948 16.6089 10.723 16.5862 10.7445 16.5577L11.4485 15.6278C11.5481 15.4963 11.7516 15.518 11.8213 15.6675ZM5.9798 25.4716L5.27575 26.4015C5.2542 26.4299 5.22599 26.4527 5.19372 26.4678L4.13628 26.9601C3.98688 27.0296 3.96511 27.2333 4.09658 27.3328L5.02649 28.0368C5.05492 28.0584 5.07767 28.0866 5.09277 28.1189L5.58506 29.1763C5.65463 29.3257 5.85828 29.3475 5.95781 29.216L6.66186 28.2861C6.68341 28.2577 6.71163 28.2349 6.74389 28.2198L7.80133 27.7275C7.95074 27.658 7.9725 27.4543 7.84103 27.3548L6.91113 26.6507C6.88269 26.6292 6.85994 26.601 6.84485 26.5687L6.35255 25.5113C6.28288 25.3618 6.07933 25.3401 5.9798 25.4716Z" fill="#FFE7C0"/>
<path d="M51.5512 37.5713L50.4938 38.0636C50.4614 38.0787 50.4333 38.1014 50.4117 38.1299L49.7077 39.0598C49.6082 39.1912 49.4046 39.1695 49.3351 39.0201L48.8428 37.9626C48.8277 37.9302 48.8049 37.9021 48.7765 37.8806L47.8466 37.1765C47.7151 37.077 47.7369 36.8735 47.8863 36.8038L48.9437 36.3115C48.9761 36.2964 49.0042 36.2737 49.0257 36.2452L49.7298 35.3153C49.8293 35.1838 50.0329 35.2056 50.1024 35.355L50.5947 36.4125C50.6098 36.4448 50.6326 36.4729 50.661 36.4945L51.5909 37.1985C51.7224 37.2981 51.7006 37.5016 51.5512 37.5713Z" fill="#453D83"/>
<path d="M12.3125 29.0469C12.3125 26.8723 14.0754 25.1094 16.25 25.1094H20.1875C18.898 25.1094 17.7532 25.7294 17.035 26.6875H28.8692C29.1712 26.6875 29.4161 26.9324 29.4161 27.2344C29.4161 27.5364 29.1712 27.7812 28.8692 27.7812H16.4578C16.3231 28.1785 16.2499 28.6042 16.2499 29.0469C16.2499 29.5448 16.3423 30.0211 16.511 30.4597H28.8691C29.1711 30.4597 29.416 30.7046 29.416 31.0066C29.416 31.3086 29.1711 31.5535 28.8691 31.5535H17.1507C17.8729 32.4275 18.9651 32.9844 20.1875 32.9844H16.25C14.0754 32.9844 12.3125 31.2216 12.3125 29.0469ZM47.213 28.5457H23.9644C23.6625 28.5457 23.4176 28.7906 23.4176 29.0925C23.4176 29.3945 23.6625 29.6394 23.9644 29.6394H47.213C47.5149 29.6394 47.7598 29.3945 47.7598 29.0925C47.7598 28.7906 47.5149 28.5457 47.213 28.5457ZM43.6349 45.0066H30.4517C30.1497 45.0066 29.9048 45.2515 29.9048 45.5535C29.9048 45.8555 30.1497 46.1004 30.4517 46.1004H43.6349C43.9369 46.1004 44.1817 45.8555 44.1817 45.5535C44.1817 45.2515 43.937 45.0066 43.6349 45.0066ZM21.7599 45.0066H9.14062V43.6941H30.25C30.552 43.6941 30.7969 43.4492 30.7969 43.1472C30.7969 42.8452 30.552 42.6004 30.25 42.6004H9.14062V42.1094C9.14062 41.2033 9.87519 40.4687 10.7812 40.4687H6.19734C5.29128 40.4687 4.55672 41.2033 4.55672 42.1094V46.7031C4.55672 47.6092 5.29128 48.3437 6.19734 48.3437H10.7812C9.87519 48.3437 9.14062 47.6092 9.14062 46.7031V46.1004H21.7599C22.0619 46.1004 22.3067 45.8555 22.3067 45.5535C22.3067 45.2515 22.062 45.0066 21.7599 45.0066Z" fill="#FFD399"/>
<path d="M5.10359 42.0626V46.6563C5.10359 47.2594 5.59425 47.7501 6.19734 47.7501H47.9786C48.2807 47.7501 48.5255 47.9949 48.5255 48.2969C48.5255 48.5989 48.2807 48.8438 47.9786 48.8438H6.19734C4.99115 48.8438 4.00984 47.8625 4.00984 46.6563V42.0626C4.00984 40.8564 4.99115 39.8751 6.19734 39.8751H47.9786C48.2807 39.8751 48.5255 40.12 48.5255 40.4219C48.5255 40.7239 48.2807 40.9688 47.9786 40.9688H6.19734C5.59425 40.9688 5.10359 41.4595 5.10359 42.0626ZM51.9062 32.4376H16.25C14.3803 32.4376 12.8594 30.9165 12.8594 29.0469C12.8594 27.1774 14.3803 25.6563 16.25 25.6563H51.9062C52.2083 25.6563 52.4531 25.4114 52.4531 25.1094C52.4531 24.8075 52.2083 24.5626 51.9062 24.5626H16.25C13.7774 24.5626 11.7656 26.5743 11.7656 29.0469C11.7656 31.5196 13.7774 33.5313 16.25 33.5313H51.9062C52.2083 33.5313 52.4531 33.2864 52.4531 32.9844C52.4531 32.6825 52.2083 32.4376 51.9062 32.4376Z" fill="#453D83"/>
<path d="M27.1875 34.1011V28.5457H34.4446V34.1011C34.4446 36.1051 32.8201 37.7297 30.8161 37.7297C28.812 37.7297 27.1875 36.1051 27.1875 34.1011Z" fill="#F77026"/>
<path d="M34.4446 31.908V43.6603C34.4446 43.8366 34.2468 43.9404 34.1018 43.8403L30.7969 41.5613L27.5314 43.8373C27.3863 43.9383 27.1875 43.8345 27.1875 43.6578V31.908C27.1875 33.9119 28.812 35.5365 30.816 35.5365C32.82 35.5365 34.4446 33.9119 34.4446 31.908Z" fill="#EA552D"/>
</svg>
