<svg width="57" height="56" viewBox="0 0 57 56" fill="none" xmlns="http://www.w3.org/2000/svg">
<path d="M16.9734 42.0863H48.5751C50.6612 42.0863 52.5858 40.9278 53.5286 39.0669C53.534 39.0563 53.5393 39.0457 53.5447 39.0352C55.3603 35.4397 56.3934 31.3819 56.4192 27.0849C56.5085 12.1956 44.3891 0 29.4996 0C24.9765 0 20.715 1.11716 16.9732 3.08809C16.9732 3.09159 16.9735 3.09498 16.9735 3.09848V42.0863H16.9734Z" fill="#4A81F6"/>
<path d="M6.45426 40.8407C9.50024 45.8724 14.1432 49.8121 19.6388 51.9766C22.6621 53.1675 25.9875 53.84 29.4996 53.84C32.1025 53.84 34.6713 53.4602 37.1289 52.7331C37.7262 52.5563 38.3198 51.0398 38.9029 50.8226C39.5236 50.5913 40.1328 51.6566 40.7348 51.3805C46.1281 48.9069 50.7177 44.6565 53.5465 39.0364C53.7715 38.5893 53.2584 38.1362 52.8369 38.4061C52.8269 38.4126 52.8168 38.419 52.8066 38.4255C52.4254 38.6689 51.9456 38.3054 52.0735 37.8716C52.2497 37.2736 52.2847 36.6297 52.1571 35.983L51.9466 35.4402C51.8043 34.8118 48.6838 29.1339 51.0422 21.6817L52.4284 17.3015C53.0572 15.3145 52.7251 13.1464 51.5255 11.4421C51.0273 10.7344 50.496 10.0518 49.9336 9.39639C49.0428 8.35853 47.8449 7.63064 46.5188 7.29639C45.6069 7.06659 44.9679 6.2465 44.9679 5.3062V4.88686C43.3887 3.77616 41.685 2.83083 39.8813 2.07614C39.0276 2.3393 38.4595 2.78227 38.4356 3.28681H38.4338V5.3062C38.4338 6.2465 37.7948 7.06659 36.8829 7.29639L35.9589 7.52925L32.8343 8.31675C30.5383 8.89534 29.2014 11.2174 29.7562 13.443C29.781 13.5427 31.763 19.7969 31.7666 19.8081C32.0937 21.0507 33.1946 23.4182 33.233 27.1497C33.276 31.3266 31.9538 34.1313 31.2445 35.9829C30.9328 37.5623 31.5987 39.1136 32.853 40.0008C33.8203 40.6852 34.6877 40.7341 35.4879 40.7272C35.9528 40.7233 36.3323 41.0975 36.3323 41.5625C36.3323 42.0312 35.9473 42.409 35.4788 42.3979C33.756 42.3568 29.7334 42.0386 26.2887 40.0923C25.2127 39.4844 24.5058 38.3632 24.4682 37.1279C24.4681 37.1237 24.4681 37.1207 24.4683 37.1185C24.4177 36.4038 24.1589 35.6863 23.65 35.0568C22.0651 33.0965 19.4188 29.2455 20.3402 26.3342L24.9702 14.2253C25.8391 11.8632 24.4695 9.26897 22.029 8.65384L19.1075 7.63348C18.1957 7.40369 17.5567 6.58359 17.5567 5.6433V3.62402H17.5548C17.5437 3.3893 17.4143 3.16803 17.1937 2.97181C8.28356 7.55955 2.57965 16.7357 2.57965 26.92C2.57965 31.8416 3.91249 36.6418 6.45426 40.8407Z" fill="#5766CB"/>
<path d="M11.4105 52.4941H16.2555V54.072H11.4105V52.4941Z" fill="#B9E4EF"/>
<path d="M9.87522 46.5295C9.82305 46.5295 9.77143 46.5275 9.71991 46.5256V56H13.3267V46.5295H9.87522Z" fill="#DAF1F4"/>
<path d="M9.71979 33.5055H13.3265V46.8398H9.71979V33.5055Z" fill="#B9E4EF"/>
<path d="M15.2946 51.6384H16.8726V54.9274H15.2946V51.6384Z" fill="#5362D4"/>
<path d="M9.20508 42.7337H16.7366V45.4507H9.20508V42.7337Z" fill="#DAF1F4"/>
<path d="M6.1546 42.7337H9.7199V45.4507H6.1546V42.7337Z" fill="#B9E4EF"/>
<path d="M22.2039 16.9423C23.0727 14.5802 21.7031 11.9859 19.2627 11.3708L16.3411 10.3505C15.4294 10.1207 14.7903 9.30057 14.7903 8.36027V6.34088H9.0454C9.06301 6.47465 9.07537 6.60994 9.08149 6.74655C9.14088 8.07207 8.45828 9.28362 7.4436 10.0748V40.2249H21.7098C21.7389 39.3848 21.4854 38.5178 20.8837 37.7736C19.2989 35.8134 16.6525 31.9624 17.5739 29.0511L22.2039 16.9423Z" fill="#FFBEE4"/>
<path d="M12.2019 39.8353C12.1476 39.8353 12.0936 39.8342 12.0397 39.8322C9.04133 39.7131 7.50549 36.1767 9.38587 33.8382C10.9598 31.8807 13.5977 28.0226 12.675 25.1069L8.07949 12.998C7.21072 10.6358 8.58032 8.04155 11.0208 7.42654L13.9423 6.40618C14.0132 6.38835 14.0818 6.36571 14.1493 6.34088H8.25613V8.36027C8.25613 9.30057 7.61716 10.1207 6.7053 10.3505L3.78379 11.3708C1.3433 11.9858 -0.0262896 14.5801 0.842585 16.9423L5.43808 29.0512C6.36077 31.9669 3.72287 35.825 2.14896 37.7825C0.268585 40.121 1.80432 43.6573 4.80283 43.7764C4.85654 43.7786 4.91068 43.7796 4.96504 43.7796H18.0816C18.1338 43.7796 18.1856 43.7786 18.2373 43.7767C20.4322 43.693 21.8396 41.7746 21.7021 39.8353H12.2019Z" fill="#EFA5C3"/>
<path d="M11.5231 7.8715C13.3275 7.8715 14.7902 7.20102 14.7902 6.37394C14.7902 5.54685 13.3275 4.87637 11.5231 4.87637C9.7188 4.87637 8.2561 5.54685 8.2561 6.37394C8.2561 7.20102 9.7188 7.8715 11.5231 7.8715Z" fill="#DAF1F4"/>
<path d="M37.1313 46.0829V52.7408C38.3733 52.3743 39.578 51.9211 40.7381 51.3873V46.0829H37.1313Z" fill="#DAF1F4"/>
<path d="M37.1313 33.1682H40.7381V46.5025H37.1313V33.1682Z" fill="#B9E4EF"/>
<path d="M36.4364 42.3962H44.1482V45.1132H36.4364V42.3962Z" fill="#DAF1F4"/>
<path d="M33.5662 42.3962H37.1315V45.1132H33.5662V42.3962Z" fill="#B9E4EF"/>
<path d="M49.3475 38.587L48.6721 36.8463C47.1267 32.8631 46.987 28.4718 48.2761 24.3984L50.7425 16.6049C51.6114 14.2428 50.2418 11.6485 47.8013 11.0334L43.7527 10.013C42.8408 9.78324 42.2019 8.96326 42.2019 8.02285V6.00357H35.6678V8.02296C35.6678 8.96326 35.0288 9.78335 34.117 10.0131L32.9063 10.3183V38.5872H49.3475V38.587Z" fill="#453D81"/>
<path d="M49.1805 38.157H38.6854C36.1823 38.157 34.3028 35.8703 34.7873 33.4145L35.5064 31.561C37.0518 27.5778 37.1915 23.1865 35.9024 19.1131L33.436 11.3195C33.3054 10.9644 33.2262 10.604 33.1928 10.2459L30.0682 11.0334C27.6277 11.6484 26.2581 14.2427 27.127 16.6049L29.5934 24.3984C30.8825 28.4717 30.7428 32.8631 29.1975 36.8463L28.4784 38.6998C27.9938 41.1556 29.8734 43.4423 32.3766 43.4423H45.4931C47.9963 43.4423 49.8758 41.1556 49.3913 38.6998L49.1805 38.157Z" fill="#21386B"/>
<path d="M38.9348 7.53407C40.7392 7.53407 42.2019 6.86358 42.2019 6.0365C42.2019 5.20942 40.7392 4.53894 38.9348 4.53894C37.1305 4.53894 35.6678 5.20942 35.6678 6.0365C35.6678 6.86358 37.1305 7.53407 38.9348 7.53407Z" fill="#5362D4"/>
</svg>
