<svg width="55" height="56" viewBox="0 0 55 56" fill="none" xmlns="http://www.w3.org/2000/svg">
<path d="M4.55476 43.051L48.2396 46.1716C52.0247 41.5508 54.2968 35.6426 54.2968 29.2032C54.2968 14.4038 42.2994 2.40656 27.5 2.40656C12.7006 2.40656 0.703232 14.4038 0.703232 29.2032C0.703232 34.2709 2.11045 39.0097 4.55476 43.051Z" fill="#FFDD40"/>
<path d="M13.9444 52.3212C17.9214 54.6583 22.5536 56 27.5 56C32.4464 56 37.0786 54.6583 41.0557 52.3212H13.9444Z" fill="#2A428C"/>
<path d="M25.3314 55.9126C24.5959 55.0236 24.6783 54.0852 24.9185 53.3998C25.0436 53.0429 25.0323 52.6649 24.9102 52.3212H13.9443C17.3342 54.3133 21.2005 55.5814 25.3314 55.9126Z" fill="#1C2E7A"/>
<path d="M10.8982 35.5334H33.5331V38.5232H10.8982V35.5334Z" fill="#E80054"/>
<path d="M50.8359 18.7781L38.569 25.8604C39.0568 26.8233 39.3372 27.8875 39.3372 29.0105C39.3372 30.329 38.4427 31.464 37.1619 31.771L36.8517 31.8452C36.8937 31.8653 38.009 33.2213 41.2139 33.91C41.2691 33.9219 42.5666 34.2166 42.5755 35.5153C42.5806 36.2613 41.7432 37.1583 40.4154 37.1521L38.0703 37.153V37.4987C38.6461 37.4987 39.1351 37.9969 39.0749 38.6091C39.0248 39.1187 38.5674 39.5178 38.0335 39.5178H37.1521V39.8635C38.3286 39.8635 38.6908 41.4742 37.6058 41.9694L36.8825 42.2996H38.2423C38.685 42.2996 39.0971 42.4301 39.4456 42.6521L49.1016 37.0773L50.8359 18.7781Z" fill="#E9EFFF"/>
<path d="M40.4153 37.1521L38.0702 37.1529V37.4987C38.646 37.4987 39.135 37.9969 39.0748 38.609C39.0247 39.1186 38.5673 39.5177 38.0334 39.5177H37.152V39.8635C38.3284 39.8635 38.6907 41.4741 37.6057 41.9694L36.8824 42.2996H38.2421C38.685 42.2996 39.097 42.4301 39.4455 42.6521L41.25 41.6103C41.25 40.2367 41.25 38.6763 41.25 37.0234C41.0003 37.1053 40.7216 37.1536 40.4153 37.1521Z" fill="#BEC8F7"/>
<path d="M39.3372 29.0105C39.3372 30.3289 38.4427 31.464 37.1619 31.7709L36.8517 31.8452C36.8937 31.8654 38.009 33.2213 41.2139 33.91C41.2182 33.911 41.2313 33.9139 41.2501 33.9187C41.2501 30.6227 41.2501 27.2023 41.2501 24.3124L38.569 25.8603C39.0567 26.8231 39.3372 27.8874 39.3372 29.0105Z" fill="#BEC8F7"/>
<path d="M29.5398 8.36096L28.4997 4.24059C28.3829 3.7776 28.6633 3.30773 29.1262 3.19091C29.5893 3.07356 30.059 3.35454 30.176 3.81741L31.2161 7.93779C31.3329 8.40077 31.0525 8.87065 30.5896 8.98746C30.1287 9.10427 29.657 8.82526 29.5398 8.36096Z" fill="#FF4155"/>
<path d="M25.645 2.01699H22.0903C21.6129 2.01699 21.2259 1.63002 21.2259 1.1526C21.2259 0.675177 21.6129 0.288208 22.0903 0.288208H25.6451C26.1225 0.288208 26.5095 0.675177 26.5095 1.1526C26.5095 1.63002 26.1224 2.01699 25.645 2.01699Z" fill="#E80054"/>
<path d="M30.7658 21.1306C34.076 21.1306 37.3415 23.183 38.6898 26.1129L50.8035 19.119L51.2775 14.119H25.0117L25.6763 21.1305H30.7658V21.1306Z" fill="#FF4155"/>
<path d="M25.0117 14.1191L25.6763 21.1306H30.7658C34.076 21.1306 37.3415 23.183 38.6898 26.1129L41.25 24.6348C41.25 23.9366 41.25 23.2666 41.25 22.635C41.25 16.5026 43.5286 14.6679 44.8516 14.1191H25.0117Z" fill="#E80054"/>
<path d="M49.1338 36.7363L39.1572 42.4963C39.9413 42.8475 40.4898 43.6338 40.4898 44.5472C40.4898 45.7452 39.551 46.7299 38.3526 46.7889L37.4995 46.8309L38.3019 47.1239C39.3332 47.5005 39.7356 48.877 38.8964 49.7602C37.3939 51.3411 35.366 52.2118 33.1864 52.2118H32.8362V52.3847H40.9481C43.737 50.7632 46.2066 48.6534 48.2396 46.1716L49.1338 36.7363Z" fill="#FF4155"/>
<path d="M41.25 41.2881L39.1571 42.4964C39.9412 42.8476 40.4897 43.6339 40.4897 44.5472C40.4897 45.7452 39.551 46.7299 38.3525 46.789L37.4994 46.831L38.3018 47.124C39.3331 47.5006 39.7354 48.8771 38.8963 49.7603C37.3938 51.3412 35.3659 52.2119 33.1863 52.2119H32.8362V52.3848H40.9481C41.7553 51.9155 42.5348 51.4041 43.2858 50.8558C41.1522 49.5361 41.2501 46.9677 41.2501 46.9677C41.2501 46.9677 41.25 44.6413 41.25 41.2881Z" fill="#E80054"/>
<path d="M50.6161 11.3529C50.4613 9.42508 48.8365 7.89514 46.8706 7.89514H29.0964C27.1305 7.89514 25.5058 9.42508 25.351 11.3529H50.6161Z" fill="#E9EFFF"/>
<path d="M41.1387 7.89526H29.0964C27.1305 7.89526 25.5058 9.4252 25.351 11.353H41.1546C39.408 10.9614 39.3526 8.27983 41.1387 7.89526Z" fill="#D3DCFB"/>
<path d="M51.4971 14.2344H24.792C23.9326 14.2344 23.236 13.5378 23.236 12.6784C23.236 11.819 23.9326 11.1224 24.792 11.1224H51.4971C52.3564 11.1224 53.0531 11.819 53.0531 12.6784C53.0532 13.5378 52.3566 14.2344 51.4971 14.2344Z" fill="#D3DCFB"/>
<path d="M39.5101 12.6784C39.5101 11.819 40.2067 11.1224 41.0661 11.1224H24.792C23.9326 11.1224 23.236 11.819 23.236 12.6784C23.236 13.5378 23.9326 14.2344 24.792 14.2344H41.0661C40.2067 14.2344 39.5101 13.5378 39.5101 12.6784Z" fill="#BEC8F7"/>
<path d="M34.5266 18.4029H28.6386C28.1612 18.4029 27.7742 18.0159 27.7742 17.5385C27.7742 17.0611 28.1613 16.6741 28.6386 16.6741H34.5266C35.004 16.6741 35.391 17.0611 35.391 17.5385C35.391 18.0159 35.004 18.4029 34.5266 18.4029Z" fill="#FF7186"/>
<path d="M37.7362 46.8524H23.9653L23.6432 47.1745C22.9273 47.8906 21.7681 47.8906 21.0521 47.1745L20.73 46.8524H7.33771C9.25461 49.0406 11.5217 50.9138 14.052 52.3848H33.1863C35.4834 52.3848 37.5551 51.4227 39.0216 49.8795C40.1072 48.7369 39.3123 46.8524 37.7362 46.8524Z" fill="#FCAD6D"/>
<path d="M23.553 47.9397C23.6112 47.706 23.6185 47.4656 23.5781 47.2334C22.8587 47.888 21.7472 47.8697 21.0521 47.1745L20.73 46.8524H7.42882L7.37807 46.8975C9.28655 49.0661 11.5393 50.924 14.052 52.3847H24.9316C24.8472 52.1136 24.695 51.8612 24.4849 51.6544C23.1959 50.3865 23.3374 48.8062 23.553 47.9397Z" fill="#FD995B"/>
<path d="M15.2505 41.387C14.4312 40.5677 13.4175 39.9887 12.3183 39.6909H7.54322C6.84158 39.6909 6.26758 40.2649 6.26758 40.9665C6.26758 41.6681 6.84158 42.2421 7.54322 42.2421H15.7119C15.8314 42.2421 15.9467 42.2243 16.0566 42.1931L15.2505 41.387Z" fill="#FF9100"/>
<path d="M37.152 39.6909H32.3769C31.2777 39.9887 30.264 40.5677 29.4447 41.387L28.6385 42.1932C28.7484 42.2243 28.8637 42.2422 28.9832 42.2422H37.1519C37.8536 42.2422 38.4276 41.6682 38.4276 40.9666C38.4277 40.2649 37.8537 39.6909 37.152 39.6909Z" fill="#FFB332"/>
<path d="M7.44008 46.9677H20.8453L16.0044 42.1269H6.45297C5.68548 42.1269 4.99905 42.4894 4.55476 43.051C5.39783 44.445 6.36525 45.755 7.44008 46.9677Z" fill="#823C26"/>
<path d="M38.2423 42.1269H28.6909L23.8499 46.9677H38.2421C39.5733 46.9677 40.6625 45.8786 40.6625 44.5473C40.6627 43.216 39.5735 42.1269 38.2423 42.1269Z" fill="#A05838"/>
<path d="M27.0744 35.7003C24.7117 35.7003 24.7104 33.3951 22.3477 33.3951C19.985 33.3951 19.9836 35.7003 17.6209 35.7003C15.3383 35.7003 15.2604 33.549 13.127 33.4033V35.9428C13.127 36.7035 13.7494 37.326 14.5101 37.326H29.7241C30.4848 37.326 31.1072 36.7035 31.1072 35.9428V33.4726C29.4103 33.8713 29.1798 35.7003 27.0744 35.7003Z" fill="#FF7186"/>
<path d="M19.9092 37.087C19.4744 36.6648 19.4402 35.9723 19.457 35.6058C19.4641 35.4502 19.3996 35.3012 19.2833 35.1976C19.2772 35.1921 19.2718 35.1868 19.2658 35.1813C18.8489 35.4825 18.3464 35.7003 17.6208 35.7003C15.3382 35.7003 15.2603 33.549 13.1269 33.4033V35.9428C13.1269 36.7035 13.7493 37.3259 14.51 37.3259H20.0398C20.0204 37.2371 19.9776 37.1535 19.9092 37.087Z" fill="#FF4155"/>
<path d="M8.17059 35.7003C7.78395 35.7003 7.46141 35.6378 7.18053 35.5345C6.12517 36.6343 5.04225 37.3583 4.13673 37.3197V37.3259H11.7438C12.5045 37.3259 13.1269 36.7034 13.1269 35.9427V33.4032C13.0522 33.3981 12.9753 33.395 12.8954 33.395C10.533 33.3951 10.533 35.7003 8.17059 35.7003Z" fill="#FF4155"/>
<path d="M40.4143 37.322C39.5392 37.3161 38.5146 36.5765 37.5147 35.5345C37.2338 35.6378 36.9114 35.7003 36.5246 35.7003C34.1623 35.7003 34.1623 33.3951 31.7999 33.3951C31.5426 33.3951 31.3147 33.4238 31.1073 33.4725V35.9427C31.1073 36.7034 31.7296 37.3259 32.4903 37.3259H40.4143V37.322Z" fill="#FF4155"/>
<path d="M29.3369 5.18175C28.8216 5.18175 28.3521 4.83361 28.2202 4.31112C27.9221 3.13009 26.8631 2.30508 25.645 2.30508C25.0084 2.30508 24.4924 1.78905 24.4924 1.15248C24.4925 0.516031 25.0084 0 25.645 0C27.9202 0 29.8984 1.54077 30.4553 3.74675C30.6112 4.36406 30.2371 4.99056 29.6199 5.14642C29.5253 5.17038 29.4304 5.18175 29.3369 5.18175Z" fill="#FF7186"/>
<path d="M5.02868 34.0267C4.52282 33.8567 3.98229 33.741 3.44526 33.741C3.44526 33.741 1.95688 34.0552 1.94693 35.5143C1.93654 37.0253 4.72068 38.5753 7.29274 35.7639C6.31471 35.4027 5.85151 34.5392 5.02868 34.0267Z" fill="#24B55E"/>
<path d="M39.6665 34.0267C40.1724 33.8567 40.713 33.741 41.25 33.741C41.25 33.741 42.7383 34.0552 42.7483 35.5143C42.7587 37.0253 39.9745 38.5753 37.4025 35.7639C38.3805 35.4027 38.8437 34.5392 39.6665 34.0267Z" fill="#24B55E"/>
<path d="M38.0702 37.3259H6.66188C6.04752 37.3259 5.5083 37.7792 5.44836 38.3906C5.37935 39.0933 5.93574 39.6908 6.62491 39.6908H10.5991C12.3436 39.6908 14.0168 40.3838 15.2504 41.6174L20.9297 47.2967C21.7128 48.0797 22.9823 48.0797 23.7653 47.2967L29.4446 41.6174C30.6782 40.3838 32.3514 39.6908 34.096 39.6908H38.0331C38.6475 39.6908 39.1867 39.2374 39.2467 38.626C39.3158 37.9235 38.7594 37.3259 38.0702 37.3259Z" fill="#FFDD40"/>
<path d="M5.44836 38.3906C5.37935 39.0932 5.93585 39.6908 6.62502 39.6908H10.5992C12.3437 39.6908 14.0169 40.3838 15.2506 41.6175L20.9298 47.2968C21.7129 48.0798 22.9824 48.0798 23.7654 47.2968L26.8802 44.182C24.2827 45.4674 21.6891 41.5249 20.2718 40.1076C19.3106 39.1463 19.6532 38.2094 19.9733 37.7059C20.0465 37.5905 20.0676 37.4528 20.0399 37.3257H6.66188C6.04752 37.3259 5.5083 37.7792 5.44836 38.3906Z" fill="#FFB332"/>
<path d="M37.0563 31.7921H7.63892C6.44685 33.0965 3.44527 33.7409 3.44527 33.7409C5.80799 33.7409 5.80799 36.0461 8.1706 36.0461C10.533 36.0461 10.533 33.7409 12.8954 33.7409C15.2581 33.7409 15.2581 36.0461 17.6208 36.0461C19.9835 36.0461 19.9848 33.7409 22.3476 33.7409C24.7103 33.7409 24.7116 36.0461 27.0743 36.0461C29.437 36.0461 29.437 33.7409 31.7998 33.7409C34.1621 33.7409 34.1621 36.0461 36.5245 36.0461C38.8873 36.0461 38.8873 33.7409 41.2499 33.7409C41.25 33.741 38.2483 33.0965 37.0563 31.7921Z" fill="#49D88B"/>
<path d="M3.44527 33.7409C5.80799 33.7409 5.80799 36.0461 8.1706 36.0461C10.533 36.0461 10.533 33.7409 12.8954 33.7409C15.2581 33.7409 15.2581 36.0461 17.6208 36.0461C18.4409 36.0461 18.9763 35.7682 19.425 35.4056C19.3956 35.3268 19.3478 35.2551 19.2833 35.1977C17.9866 34.0428 18.6086 32.8786 19.0361 32.3366C19.161 32.1783 19.1754 31.964 19.0837 31.7921H7.63892C6.44695 33.0965 3.44527 33.7409 3.44527 33.7409Z" fill="#38C674"/>
<path d="M30.7658 20.9578H13.9294C9.482 20.9578 5.18509 24.5631 5.18509 29.0105C5.18509 30.6741 6.53368 32.0226 8.19717 32.0226H36.4981C38.1617 32.0226 39.5101 30.6741 39.5101 29.0105C39.5101 24.5631 35.2132 20.9578 30.7658 20.9578Z" fill="#FCAD6D"/>
<path d="M19.0212 31.6988C16.3968 28.6861 19.0055 25.6828 19.0055 25.6828L19.3239 23.302C18.5221 22.5002 18.6299 21.8 18.833 21.3784C18.8977 21.2443 18.9206 21.0987 18.9065 20.9578H13.9294C9.482 20.9578 5.18509 24.5631 5.18509 29.0105C5.18509 30.674 6.53368 32.0226 8.19717 32.0226H19.1431C19.1422 31.9066 19.1019 31.7914 19.0212 31.6988Z" fill="#FD995B"/>
<path d="M29.9592 25.4296C29.6217 25.092 29.6217 24.5446 29.9593 24.2071L30.6114 23.5552C30.949 23.2178 31.4963 23.2177 31.8339 23.5553C32.1714 23.8929 32.1714 24.4403 31.8338 24.7778L31.1817 25.4297C30.844 25.7671 30.2967 25.7672 29.9592 25.4296Z" fill="#FCF0BE"/>
<path d="M24.0744 25.4296C23.7368 25.092 23.7368 24.5446 24.0745 24.2071L24.7265 23.5552C25.0641 23.2178 25.6114 23.2177 25.9491 23.5553C26.2866 23.8929 26.2866 24.4403 25.9489 24.7778L25.297 25.4297C24.9593 25.7671 24.4121 25.7672 24.0744 25.4296Z" fill="#FCF0BE"/>
<path d="M18.1897 25.4296C17.8521 25.092 17.8521 24.5446 18.1898 24.2071L18.8418 23.5552C19.1794 23.2178 19.7267 23.2177 20.0644 23.5553C20.4019 23.8929 20.4019 24.4403 20.0643 24.7778L19.4123 25.4297C19.0746 25.7671 18.5274 25.7672 18.1897 25.4296Z" fill="#FCF0BE"/>
<path d="M12.305 25.4296C11.9674 25.092 11.9674 24.5446 12.3051 24.2071L12.9571 23.5552C13.2947 23.2178 13.842 23.2177 14.1797 23.5553C14.5172 23.8929 14.5172 24.4403 14.1795 24.7778L13.5276 25.4297C13.1898 25.7671 12.6426 25.7672 12.305 25.4296Z" fill="#FCF0BE"/>
<path d="M29.1825 1.48181C28.2736 0.557813 27.0134 0 25.645 0C25.0084 0 24.4924 0.516141 24.4924 1.15259C24.4924 1.78916 25.0084 2.30519 25.645 2.30519C26.3728 2.30519 27.0424 2.60127 27.5282 3.09028C27.2968 2.10098 28.198 1.22194 29.1825 1.48181Z" fill="#FF4155"/>
</svg>
