<svg width="57" height="56" viewBox="0 0 57 56" fill="none" xmlns="http://www.w3.org/2000/svg">
<g clip-path="url(#clip0_33_1922)">
<path d="M56.5 28C56.5 43.4642 43.9642 56 28.5 56C13.0358 56 0.5 43.4642 0.5 28C0.5 12.5358 13.0358 0 28.5 0C43.9642 0 56.5 12.5358 56.5 28Z" fill="#68FCDF"/>
<path d="M56.5 28C56.5 43.4633 43.9633 56 28.5 56C13.0367 56 0.5 43.4633 0.5 28C0.5 22.9448 1.83984 18.2032 4.18372 14.1094C9.00946 22.5389 18.0919 28.2188 28.5 28.2188C38.9081 28.2188 47.9918 22.5389 52.8163 14.1094C55.1602 18.2032 56.5 22.9448 56.5 28Z" fill="#10E2C4"/>
<path d="M53.138 41.3109V41.3121C48.4028 50.0587 39.1444 56 28.5 56C17.8556 56 8.59717 50.0587 3.862 41.3121V41.3109H53.138Z" fill="#1ABA9F"/>
<path d="M52.539 24.6162C52.539 33.881 45.0284 41.3916 35.7636 41.3916C26.4988 41.3916 18.9882 33.881 18.9882 24.6162C18.9882 15.3514 26.4988 7.84082 35.7636 7.84082C45.0284 7.84082 52.539 15.3514 52.539 24.6162Z" fill="white"/>
<path d="M35.7636 41.392C38.8996 41.392 41.8335 40.5307 44.3444 39.0328C44.3367 39.0174 44.3299 39.002 44.3222 38.9862C44.3124 38.9666 44.3051 38.9473 44.2957 38.9281C44.2568 38.8482 44.2158 38.7709 44.1744 38.6906C44.1671 38.676 44.1577 38.6594 44.1505 38.6423C44.1069 38.5624 44.0607 38.4825 44.015 38.4026C44.0078 38.3906 44.0005 38.3782 43.9932 38.3641C43.9471 38.2842 43.8962 38.2018 43.8454 38.1219C43.8407 38.1121 43.8334 38.1027 43.8283 38.0928C43.7753 38.0104 43.7219 37.9283 43.6664 37.8484C43.6613 37.8412 43.6566 37.8339 43.6519 37.8267C43.5938 37.7442 43.5356 37.6643 43.475 37.5823C43.4724 37.5771 43.4703 37.5724 43.4651 37.5699C43.4049 37.4853 43.3417 37.4054 43.2767 37.3255C43.2742 37.3229 43.2742 37.3208 43.2716 37.3157C43.2041 37.2358 43.1362 37.1537 43.0682 37.0739H43.0661C42.1582 36.0258 40.994 35.1953 39.6434 34.68C39.6195 34.6702 39.5926 34.6582 39.5687 34.6484L39.1692 34.501H32.358L31.9586 34.6484C31.9346 34.6582 31.9077 34.6702 31.8838 34.68C31.2083 34.9368 30.579 35.2756 30.0056 35.6772C29.4318 36.0788 28.9136 36.5483 28.4611 37.0739C28.4586 37.0739 28.4586 37.0739 28.4586 37.0739C28.3911 37.1537 28.3231 37.2358 28.2556 37.3182C28.2531 37.3208 28.2531 37.3208 28.2505 37.3229C28.1851 37.4054 28.1223 37.4853 28.0616 37.5673C28.0569 37.5724 28.0548 37.5771 28.0497 37.5818C27.9916 37.6643 27.9313 37.7442 27.8754 37.8267C27.8707 37.8335 27.8655 37.8412 27.8608 37.848C27.8053 37.9279 27.7519 38.0104 27.6989 38.0928C27.6938 38.1022 27.6865 38.1121 27.6818 38.1219C27.631 38.2018 27.5801 38.2838 27.534 38.3637C27.5267 38.3761 27.5195 38.3881 27.5122 38.4C27.4665 38.4799 27.4203 38.5624 27.3768 38.6423C27.3695 38.6589 27.3622 38.6739 27.3528 38.6906C27.3114 38.7679 27.2704 38.8478 27.2315 38.9277C27.2217 38.9473 27.2144 38.9666 27.205 38.9836C27.1973 38.9999 27.1896 39.0161 27.1819 39.0323C29.6929 40.5303 32.6272 41.392 35.7636 41.392Z" fill="#D0F6FF"/>
<path d="M44.3222 38.9862C44.3124 38.9666 44.3055 38.9473 44.2957 38.9281C44.2568 38.8482 44.2158 38.7709 44.1748 38.6906C44.1675 38.676 44.1577 38.6594 44.1505 38.6423C44.1069 38.5624 44.0607 38.4825 44.015 38.4026C44.0078 38.3906 44.0005 38.3782 43.9932 38.3641C43.9471 38.2842 43.8962 38.2018 43.8454 38.1219C43.8407 38.1121 43.8334 38.1027 43.8287 38.0928C43.7753 38.0104 43.7219 37.9283 43.6664 37.8484C43.6617 37.8412 43.6566 37.8339 43.6519 37.8267C43.5938 37.7442 43.5356 37.6643 43.475 37.5823C43.4728 37.5771 43.4703 37.5724 43.4656 37.5699C43.4049 37.4853 43.3421 37.4054 43.2767 37.3255C43.2742 37.3229 43.2742 37.3208 43.272 37.3157C43.2041 37.2358 43.1362 37.1537 43.0687 37.0739H43.0661C42.1586 36.0258 40.9944 35.1953 39.6439 34.68C39.6195 34.6702 39.593 34.6582 39.5687 34.6484L39.1692 34.501H35.7636V41.3916C38.8996 41.3916 41.8335 40.5303 44.3444 39.0328C44.3367 39.0174 44.3303 39.002 44.3222 38.9862Z" fill="#8FC9F7"/>
<path d="M32.358 34.501L33.5227 37.869L35.7636 36.1147V34.0024L33.2429 33.4922L32.358 34.501Z" fill="white"/>
<path d="M39.1692 34.501L38.0045 37.869L35.7636 36.1147V34.0024L38.2724 33.4615L39.1692 34.501Z" fill="#D0F6FF"/>
<path d="M35.7636 36.1147C34.3712 36.1147 33.2429 34.9859 33.2429 33.5939V28.3136H38.2844V33.5939C38.2844 34.9859 37.156 36.1147 35.7636 36.1147Z" fill="#E3835A"/>
<path d="M28.3983 24.5769C27.3977 24.5769 26.5864 25.3882 26.5864 26.3889C26.5864 27.7821 27.7156 28.9113 29.1088 28.9113H30.2517V24.6162C30.2517 24.6162 28.512 24.5769 28.3983 24.5769Z" fill="#FFA87A"/>
<path d="M43.1289 24.5769C44.1295 24.5769 44.9409 25.3882 44.9409 26.3889C44.9409 27.7821 43.8116 28.9113 42.4184 28.9113H41.2755V24.6162C41.2755 24.6162 43.0153 24.5769 43.1289 24.5769Z" fill="#CC5A28"/>
<path d="M42.5748 25.284C42.5748 27.1985 42.1146 29.0041 41.299 30.5994C40.2343 32.6784 38.0947 33.9879 35.7636 34.0024H35.7226C33.3723 34.0024 31.2156 32.6903 30.1458 30.5994C29.3276 29.0041 28.8679 27.1985 28.8679 25.284C28.8679 24.8046 28.8969 24.3351 28.9525 23.8703C28.9695 23.7182 28.9913 23.5656 29.0153 23.4157C29.6301 19.6008 32.7015 17.7008 35.7636 17.7201C36.1678 17.7226 36.5694 17.7589 36.9689 17.829C37.9225 17.9939 38.8449 18.3494 39.6507 18.8988C41.038 19.8383 42.0954 21.3461 42.4274 23.4157C42.5021 23.8899 42.553 24.374 42.5675 24.8679C42.5748 25.0055 42.5748 25.1435 42.5748 25.284Z" fill="#FFA87A"/>
<path d="M42.5748 25.284C42.5748 27.1985 42.1146 29.004 41.299 30.5994C40.2343 32.6783 38.0947 33.9879 35.7636 34.0024V17.72C36.1678 17.7226 36.5694 17.7589 36.9689 17.829C37.9225 17.9935 38.8449 18.3494 39.6507 18.8988C41.038 19.8379 42.0954 21.3456 42.4274 23.4152C42.5021 23.8899 42.553 24.374 42.5675 24.8674C42.5748 25.0054 42.5748 25.1434 42.5748 25.284Z" fill="#EA824E"/>
<path d="M40.0625 17.4539C39.5879 20.6343 38.1258 22.9483 35.7636 24.248C34.7326 24.8192 33.5295 25.1943 32.1619 25.3639C30.9348 25.5164 29.5869 25.3665 28.4611 24.8751C28.1056 24.7201 27.8924 24.3475 27.9313 23.9626C27.9313 23.96 27.9334 23.9574 27.9334 23.9553C28.5072 18.6181 32.138 15.929 35.7636 15.9773C36.1485 15.9799 36.5356 16.0162 36.9159 16.0841C38.0267 16.2751 39.1064 16.7301 40.0625 17.4539Z" fill="#474F6F"/>
<path d="M40.0626 17.4539C39.5879 20.6343 38.1259 22.9482 35.7636 24.2479V15.9773C36.1486 15.9799 36.5356 16.0162 36.9159 16.0841C38.0267 16.2751 39.1064 16.7301 40.0626 17.4539Z" fill="#323B5A"/>
<path d="M42.6277 25.1323C37.6367 25.1067 36.096 20.8009 36.9163 16.0833C39.9314 16.6062 42.7119 19.0671 43.4485 23.5126C43.4891 23.7579 43.5164 23.9476 43.5369 24.1257C43.5993 24.6658 43.1716 25.1353 42.6277 25.1323Z" fill="#323B5A"/>
<path d="M18.2427 34.5287L11.3106 50.1036C10.9915 49.8553 10.6783 49.6003 10.3711 49.338C10.36 49.3294 10.3502 49.3204 10.3395 49.3119C10.0387 49.056 9.74347 48.7924 9.45337 48.524L16.109 33.5726L17.1754 34.0507L18.2427 34.5287Z" fill="#323B5A"/>
<path d="M18.2427 34.5287L11.3106 50.1036C10.9915 49.8553 10.6783 49.6003 10.3711 49.338L17.1754 34.0507L18.2427 34.5287Z" fill="#20273A"/>
<path d="M30.4636 31.5196C28.0095 36.9986 21.5483 39.4463 15.9851 37.0298C15.945 37.0132 15.9048 36.9952 15.8646 36.9773C10.2745 34.4728 7.74653 27.9684 10.2186 22.45C12.691 16.9317 19.2275 14.4879 24.818 16.9924C24.8577 17.0104 24.8979 17.0283 24.9372 17.0471C30.444 19.5901 32.9182 26.0411 30.4636 31.5196Z" fill="#474F6F"/>
<path d="M30.4636 31.5197C28.0095 36.9987 21.5483 39.4464 15.9851 37.0299C12.3826 33.7349 11.1017 28.4251 13.1837 23.7784C15.2652 19.1317 20.0798 16.5524 24.9372 17.0471C30.444 19.5901 32.9182 26.0411 30.4636 31.5197Z" fill="#323B5A"/>
<path d="M30.4636 31.5197C27.9916 37.038 21.4551 39.4818 15.8646 36.9773L24.8176 16.9924C30.4081 19.4969 32.9361 26.0013 30.4636 31.5197Z" fill="#20273A"/>
<path d="M23.5051 19.9182C19.5522 18.1477 14.9307 19.8755 13.1824 23.7775C11.4345 27.68 13.2221 32.2789 17.175 34.0494C21.1283 35.8203 25.7498 34.0926 27.4977 30.1901C29.246 26.288 27.4584 21.6892 23.5051 19.9182Z" fill="#D0F6FF"/>
<path d="M27.499 30.1913C25.7507 34.0938 21.1292 35.8216 17.1758 34.0502L23.5063 19.9191C27.4597 21.6904 29.2468 26.2889 27.499 30.1913Z" fill="#8FC9F7"/>
<path d="M22.3711 22.4501C19.8346 21.3141 16.8691 22.4228 15.7475 24.9264C14.6256 27.4305 15.7728 30.3815 18.3093 31.5175C20.8459 32.654 23.8114 31.5453 24.9329 29.0412C26.0544 26.5376 24.9077 23.5866 22.3711 22.4501Z" fill="white"/>
<path d="M24.9342 29.0425C23.8123 31.5466 20.8467 32.6548 18.3102 31.5184L22.3724 22.4509C24.909 23.5874 26.0557 26.5384 24.9342 29.0425Z" fill="#D0F6FF"/>
<path d="M17.0002 40.3735L12.3091 50.8461C11.6289 50.3638 10.9714 49.8519 10.3395 49.3119C9.68878 48.7573 9.06287 48.172 8.46558 47.5619L12.574 38.3919L14.7867 39.3827L17.0002 40.3735Z" fill="#FFD112"/>
<path d="M17.0002 40.3735L12.3091 50.8461C11.6289 50.3638 10.9714 49.8519 10.3395 49.3119L14.7867 39.3827L17.0002 40.3735Z" fill="#FF9F00"/>
</g>
<defs>
<clipPath id="clip0_33_1922">
<rect width="56" height="56" fill="white" transform="translate(0.5)"/>
</clipPath>
</defs>
</svg>
