<svg width="57" height="56" viewBox="0 0 57 56" fill="none" xmlns="http://www.w3.org/2000/svg">
<path d="M28.5 56C43.964 56 56.5 43.464 56.5 28C56.5 12.536 43.964 0 28.5 0C13.036 0 0.5 12.536 0.5 28C0.5 43.464 13.036 56 28.5 56Z" fill="#08475E"/>
<path d="M56.4208 30.1151C51.0852 24.7794 33.7487 7.44296 33.7487 7.44296L7.94296 33.2487L30.6151 55.9208C44.3927 54.8917 55.3918 43.8927 56.4208 30.1151Z" fill="#05303D"/>
<path d="M26.4495 25.8722L15.2643 14.687L15.2987 14.3089L22.1646 7.44296C25.3635 4.24407 30.5498 4.24407 33.7487 7.44296C36.9476 10.6419 36.9476 15.8282 33.7487 19.0271L26.8828 25.893L26.4495 25.8722Z" fill="white"/>
<path d="M33.7482 19.027L26.8828 25.8925L26.4496 25.8723L20.8843 20.307L33.7482 7.44308C35.3476 9.04248 36.1473 11.1383 36.1473 13.2343C36.1474 15.3318 35.3476 17.4276 33.7482 19.027V19.027Z" fill="#D1FEFB"/>
<path d="M7.94296 33.2487C4.74407 30.0498 4.74407 24.8634 7.94296 21.6646L15.2986 14.3089L26.8828 25.893L19.5271 33.2487C16.3282 36.4476 11.1419 36.4476 7.94296 33.2487V33.2487Z" fill="#45F6FF"/>
<path d="M26.8828 25.8924L19.527 33.2482C16.3282 36.447 11.1419 36.447 7.94308 33.2482L21.0908 20.1005L26.8828 25.8924Z" fill="#5ECBF1"/>
<path d="M30.5505 30.1278L41.7357 41.313L41.7013 41.6911L34.8354 48.557C31.6365 51.7559 26.4502 51.7559 23.2513 48.557C20.0524 45.3581 20.0524 40.1718 23.2513 36.9729L30.1172 30.107L30.5505 30.1278Z" fill="white"/>
<path d="M41.7011 41.6914L34.8356 48.5569C31.6369 51.7557 26.4505 51.7557 23.2517 48.5569L36.1157 35.693L41.7359 41.3132L41.7011 41.6914Z" fill="#D1FEFB"/>
<path d="M49.057 22.7513C52.2559 25.9502 52.2559 31.1365 49.057 34.3354L41.7013 41.6911L30.1172 30.107L37.4729 22.7513C40.6718 19.5524 45.8581 19.5524 49.057 22.7513V22.7513Z" fill="#FF405C"/>
<path d="M49.0569 34.3356L41.7011 41.6914L35.9092 35.8995L49.0569 22.7517C52.2557 25.9505 52.2557 31.1369 49.0569 34.3356V34.3356Z" fill="#D01273"/>
</svg>
