<svg width="55" height="56" viewBox="0 0 55 56" fill="none" xmlns="http://www.w3.org/2000/svg">
<path d="M49.6005 44.3583C52.5621 40.0477 54.2967 34.8284 54.2967 29.2033C54.2967 14.4038 42.2993 2.40649 27.4999 2.40649C12.7005 2.40649 0.703247 14.4038 0.703247 29.2033C0.703247 34.8308 2.43936 40.0523 5.40331 44.3639L49.6005 44.3583Z" fill="#FF4155"/>
<path d="M27.3552 2.02704C21.1358 2.02704 16.076 7.08683 16.076 13.3062C16.0904 13.5228 16.036 13.6399 16.1446 13.7182C16.2893 13.8225 16.3756 13.9906 16.3756 14.1679V14.8071C16.3756 15.3871 17.0621 15.6791 17.1533 15.3957C17.3838 14.68 18.0213 14.6195 18.2887 14.624C18.2965 14.6241 18.3043 14.6245 18.3125 14.6241C18.5326 14.625 18.7454 14.691 18.9284 14.8153C19.0179 14.8765 19.1445 14.8353 19.1784 14.7286C19.2789 14.4097 19.3132 14.0868 19.2909 13.7844C19.1744 12.1979 19.2608 9.40985 21.1483 8.56044C22.8331 7.80149 24.5296 8.32748 25.6447 8.54108C26.2748 8.72451 27.3128 9.16584 28.7682 8.68174C30.137 8.22641 32.107 7.83573 33.7179 8.56034C35.6017 9.40821 35.6907 12.1892 35.5759 13.7716C35.5549 14.0634 35.5847 14.3571 35.6642 14.6443C35.6922 14.7457 35.8067 14.7946 35.8987 14.747C36.4818 14.447 37.3265 14.6804 37.557 15.3956C37.5823 15.4743 37.6615 15.5214 37.7428 15.5075C38.0858 15.4468 38.3348 15.1523 38.3348 14.807V14.1678C38.3348 13.9906 38.4211 13.8225 38.5658 13.7181C38.6747 13.6396 38.6201 13.5206 38.6344 13.3061C38.6344 7.08684 33.5746 2.02704 27.3552 2.02704Z" fill="#41416B"/>
<path d="M27.0419 2.39727C27.163 2.31305 27.1991 2.15894 27.146 2.02966C21.0228 2.14166 16.076 7.15673 16.076 13.3061C16.0904 13.5227 16.036 13.6398 16.1446 13.7181C16.2893 13.8224 16.3756 13.9905 16.3756 14.1678V14.807C16.3756 15.387 17.0621 15.679 17.1533 15.3956C17.3838 14.6799 18.0213 14.6194 18.2887 14.6239C18.2965 14.624 18.3043 14.6244 18.3125 14.624C18.5326 14.6249 18.7454 14.6909 18.9284 14.8152C19.0179 14.8765 19.1445 14.8352 19.1784 14.7285C19.2789 14.4096 19.3132 14.0867 19.2909 13.7843C19.1744 12.1978 19.2608 9.40974 21.1483 8.56034C22.8155 7.80937 24.4937 8.31632 25.6091 8.53398L25.6834 8.38041C25.6835 8.38041 23.5507 4.82485 27.0419 2.39727Z" fill="#35355E"/>
<path d="M5.32751 44.2546C10.1491 51.3435 18.2805 56 27.5 56C36.7221 56 44.8553 51.3411 49.6765 44.2489C49.016 42.141 47.798 40.0782 45.5811 38.937L45.5818 38.9354C45.4325 38.8644 45.2335 38.7597 44.8878 38.6242C37.7754 35.4625 36.9558 35.6042 36.2348 35.3636C36.2566 35.385 36.276 35.4088 36.2905 35.4374C36.265 35.6507 36.4017 35.6157 35.9008 36.9035C34.8625 39.4799 32.9746 41.7426 30.7867 43.4726C30.5657 43.6472 30.2599 43.6588 30.0256 43.5024C29.6482 43.2504 28.9841 45.6305 29.0201 46.3059C29.0328 46.7111 29.0233 46.229 29.0266 51.7355C29.0266 51.9525 28.8469 52.129 28.6259 52.129C28.6074 52.129 26.3105 52.129 26.3802 52.129C26.1594 52.129 25.9796 51.9525 25.9796 51.7355C25.983 46.2291 25.9734 46.7106 25.986 46.3059C25.9864 46.3011 25.9862 46.2962 25.9858 46.2915C25.8934 45.1008 25.3216 43.2747 24.9806 43.5024C24.7463 43.6589 24.4405 43.6472 24.2194 43.4726C22.0316 41.7424 20.1437 39.4799 19.1054 36.9035C18.6043 35.6157 18.7412 35.6507 18.7157 35.4374C18.7301 35.4088 18.7496 35.385 18.7712 35.3636C18.0502 35.6042 17.2308 35.4625 10.1184 38.6242C9.77262 38.7597 9.57356 38.8642 9.42426 38.9354L9.42503 38.937C7.20592 40.0792 5.9877 42.1447 5.32751 44.2546Z" fill="#FFDD40"/>
<path d="M18.7156 35.4374C18.73 35.4088 18.7494 35.385 18.7711 35.3636C18.0501 35.6042 17.2307 35.4625 10.1182 38.6242C9.77251 38.7597 9.57345 38.8642 9.42415 38.9354L9.42492 38.937C7.20613 40.0792 5.98792 42.1447 5.32773 44.2546C7.11557 46.8832 9.35831 49.1773 11.9433 51.0236L12.8071 48.173C13.1758 46.9564 14.04 45.9513 15.1876 45.4044L21.5776 42.3593V40.9275C20.5487 39.7123 19.6915 38.3579 19.1054 36.9034C18.6041 35.6157 18.7409 35.6507 18.7156 35.4374Z" fill="#FFC839"/>
<path d="M20.92 33.548L21.0392 34.2045L21.043 34.2201C21.0775 34.371 21.1168 34.5229 21.1598 34.6717L21.1664 34.6942C21.1808 34.7438 21.1961 34.7942 21.2115 34.8436L21.2209 34.8737C21.2374 34.9255 21.2545 34.9781 21.273 35.0333L21.2792 35.0513C21.672 36.2049 22.53 37.8862 24.3858 39.3449C24.8668 39.7232 25.3925 40.0708 25.9482 40.3781C26.1978 40.5161 26.3797 40.726 26.4742 40.9851C26.4804 41.0023 26.4899 41.0182 26.5021 41.0319C26.787 41.3526 27.0592 41.7051 27.3112 42.0796C27.3656 42.1601 27.4991 42.1601 27.5532 42.0796C27.8041 41.7063 28.0771 41.3533 28.3642 41.0304C28.3764 41.0167 28.3858 41.0009 28.3921 40.9837C28.487 40.7251 28.6686 40.5157 28.9173 40.3781C32.9081 38.1708 33.7662 34.9172 33.9489 33.5242C33.4604 32.4059 33.3044 31.0234 33.2679 29.9621C32.6785 30.6486 32.06 31.2228 31.4689 31.6818C30.3174 32.576 28.8964 33.0617 27.4329 33.0617C25.9693 33.0617 24.5483 32.5759 23.3968 31.6818C22.8058 31.2228 22.1871 30.6486 21.5977 29.9621C21.5612 31.0234 21.4051 32.406 20.9166 33.5243L20.92 33.548Z" fill="#FCA870"/>
<path d="M23.3972 31.6817C22.8061 31.2226 22.1875 30.6485 21.598 29.962C21.5615 31.0232 21.4054 32.4059 20.917 33.5242L20.9199 33.5479L21.0391 34.2045L21.0429 34.2201C21.0774 34.371 21.1167 34.5229 21.1597 34.6717L21.1663 34.6942C21.1807 34.7437 21.1959 34.7942 21.2114 34.8436L21.2208 34.8737C21.2373 34.9255 21.2544 34.9781 21.2729 35.0331L21.2791 35.0512C21.6719 36.2048 22.5299 37.8861 24.3857 39.3448C24.5369 39.4638 24.6941 39.5784 24.8538 39.6911C26.4811 36.9508 27.0032 34.4058 27.1708 33.0562C25.8006 33.0017 24.4797 32.5223 23.3972 31.6817Z" fill="#F9955F"/>
<path d="M36.5047 16.0425C36.3895 15.7416 36.2521 15.4652 36.0963 15.2209C35.83 14.8032 35.7038 14.2927 35.7406 13.7834C35.8584 12.158 35.761 9.29885 33.7857 8.40996C32.1267 7.6637 30.1131 8.06062 28.7161 8.52525C27.8887 8.80065 26.9774 8.80054 26.15 8.52525C24.7529 8.06062 22.7395 7.66326 21.0805 8.40996C20.2309 8.79223 18.8476 10.0004 19.1264 13.7965C19.1631 14.2965 19.0365 14.8025 18.7698 15.2211C18.6185 15.4583 18.4844 15.7261 18.3713 16.0166C18.04 16.8677 17.9329 17.8123 18.0613 18.7483L18.5246 22.1177C18.5246 27.6979 21.9008 30.9219 23.3523 32.0491C24.5108 32.9489 25.9601 33.4445 27.4331 33.4445C28.9059 33.4445 30.3552 32.949 31.5137 32.0491C32.9653 30.922 36.3414 27.6978 36.3407 22.1278L36.8046 18.7491C36.932 17.8223 36.8283 16.8864 36.5047 16.0425Z" fill="#F9BD91"/>
<path d="M27.2504 32.0489C26.2178 30.9218 23.8161 27.6978 23.8161 22.1176L23.4866 18.7482C23.3952 17.8121 23.4714 16.8676 23.7071 16.0164C23.7876 15.7258 23.883 15.4581 23.9906 15.2208C24.1804 14.8022 24.2704 14.2964 24.2442 13.7962C24.0459 10.0001 25.03 8.79198 25.6343 8.40971C25.6506 8.39943 25.6671 8.39013 25.6835 8.38018C24.3278 7.98873 22.5628 7.74252 21.0806 8.40971C20.2312 8.79198 18.8478 10.0001 19.1266 13.7962C19.1633 14.2963 19.0367 14.8022 18.77 15.2208C18.6187 15.4581 18.4847 15.7258 18.3716 16.0164C18.0403 16.8676 17.9331 17.8121 18.0615 18.7482L18.5248 22.1176C18.5248 27.6978 21.901 30.9217 23.3525 32.0489C24.511 32.9488 25.9603 33.4443 27.4333 33.4443C27.9706 33.4443 28.5046 33.3776 29.0227 33.2502C28.3809 33.0283 27.7739 32.6205 27.2504 32.0489Z" fill="#FCA870"/>
<path d="M27.5356 42.1532C26.7402 40.924 25.9561 40.2784 25.9561 40.2784L23.9299 43.5327C25.3895 44.4722 25.6503 46.7674 25.6967 47.5069C25.8178 45.1303 26.7179 43.3242 27.5356 42.1532Z" fill="#FF9100"/>
<path d="M29.1593 52.2477V47.7418C29.1593 47.7418 29.1847 44.66 30.9364 43.5327L28.9102 40.2784C28.9102 40.2784 25.6815 42.9313 25.6815 47.7419V52.2478H29.1593V52.2477Z" fill="#FFB332"/>
<path d="M26.0191 40.2505C21.9782 38.0156 21.1993 34.6883 21.0499 33.414C21.0235 33.1882 20.7622 33.0767 20.579 33.2111L17.8437 35.2165C17.6977 35.3236 17.6277 35.5083 17.6718 35.6837C18.7601 40.0154 22.2585 43.1782 23.8007 44.3975C24.1933 44.7079 24.7657 44.6179 25.0451 44.2027C25.4401 43.6156 25.9989 42.7852 26.4602 42.0999C26.8907 41.4599 26.694 40.6238 26.0191 40.2505Z" fill="#FFC839"/>
<path d="M24.4761 39.2304C21.7698 37.103 21.1778 34.5055 21.0498 33.4139C21.0234 33.1883 20.7621 33.0767 20.5789 33.2111L17.8436 35.2165C17.6976 35.3236 17.6276 35.5083 17.6717 35.6839C18.3681 38.4559 20.0511 40.748 21.5773 42.3595C22.7888 38.3822 24.1401 38.9982 24.4761 39.2304Z" fill="#FFB332"/>
<path d="M37.0225 35.2165L34.2873 33.2111C34.1041 33.0767 33.8428 33.1882 33.8163 33.414C33.6669 34.6883 32.888 38.0156 28.8472 40.2505C28.1722 40.6238 27.9755 41.4599 28.4062 42.0999C28.8673 42.7852 29.4261 43.6156 29.8213 44.2027C30.1006 44.6179 30.6732 44.7078 31.0656 44.3975C32.6078 43.1782 36.1063 40.0154 37.1945 35.6837C37.2385 35.5082 37.1685 35.3234 37.0225 35.2165Z" fill="#FFC839"/>
<path d="M28.2686 46.428C28.2686 46.8054 27.9628 47.1113 27.5853 47.1113C27.208 47.1113 26.9021 46.8054 26.9021 46.428C26.9021 46.0507 27.208 45.7448 27.5853 45.7448C27.9628 45.7448 28.2686 46.0507 28.2686 46.428Z" fill="#FFC839"/>
<path d="M28.1163 49.8171C28.1163 50.1944 27.8104 50.5003 27.4331 50.5003C27.0557 50.5003 26.7498 50.1944 26.7498 49.8171C26.7498 49.4397 27.0557 49.1338 27.4331 49.1338C27.8104 49.1338 28.1163 49.4397 28.1163 49.8171Z" fill="#FFC839"/>
<path d="M25.6814 52.0954V53.372C25.6814 53.6916 25.9439 53.9506 26.2677 53.9506H28.5731C28.8968 53.9506 29.1593 53.6916 29.1593 53.372V52.0954H25.6814Z" fill="#FF9100"/>
<path d="M27.3553 0C20.1351 0 14.2819 5.85309 14.2819 13.0733V14.6274H16.241V13.3061C16.241 7.168 21.2171 2.19198 27.3552 2.19198C33.4934 2.19198 38.4694 7.168 38.4694 13.3061V14.6274H40.4286V13.0733C40.4286 5.85309 34.5755 0 27.3553 0V0Z" fill="#E3E7FC"/>
<path d="M14.2819 13.0733V14.6274H16.241V13.3061C16.241 7.231 21.1156 2.29502 27.1668 2.19439C27.1796 2.10897 27.1577 2.01808 27.0972 1.946C26.802 1.59392 26.4656 0.889547 27.3552 0C20.135 0 14.2819 5.85309 14.2819 13.0733Z" fill="#C8CEFC"/>
<path d="M39.9172 13.4484H38.8892C38.492 13.4484 38.1699 13.7705 38.1699 14.1678V14.807C38.1699 15.1324 37.8887 15.3812 37.5646 15.352L37.5583 15.3514C37.5985 15.4721 37.6205 15.6002 37.6205 15.7328V24.3029C37.6205 24.4356 37.5986 24.5637 37.5583 24.6843C38.2573 24.6222 38.9137 24.422 39.4973 24.1128C40.1994 23.7409 40.6365 23.0092 40.6365 22.2147V17.3047V16.7525V14.1678C40.6366 13.7704 40.3145 13.4484 39.9172 13.4484Z" fill="#C8CEFC"/>
<path d="M39.4974 18.7808C38.9311 19.0808 38.296 19.2769 37.6205 19.3451V24.3029C37.6205 24.4356 37.5986 24.5636 37.5585 24.6843C38.2574 24.6222 38.9138 24.4221 39.4975 24.1128C40.1995 23.7409 40.6366 23.0092 40.6366 22.2146V17.3045V16.8826C40.6366 17.6772 40.1994 18.4089 39.4974 18.7808Z" fill="#B8C0F4"/>
<path d="M36.5017 25.5766H36.4023C35.7017 25.5766 35.1285 25.0035 35.1285 24.3029V15.7328C35.1285 15.0323 35.7017 14.459 36.4023 14.459H36.5017C37.2022 14.459 37.7755 15.0323 37.7755 15.7328V24.3029C37.7754 25.0035 37.2022 25.5766 36.5017 25.5766Z" fill="#E3E7FC"/>
<path d="M14.7933 13.4484H15.8213C16.2185 13.4484 16.5406 13.7705 16.5406 14.1678V14.807C16.5406 15.1324 16.8218 15.3812 17.1459 15.352L17.1521 15.3514C17.112 15.4721 17.0901 15.6002 17.0901 15.7328V24.3029C17.0901 24.4356 17.112 24.5637 17.1521 24.6843C16.4532 24.6222 15.7968 24.422 15.2131 24.1128C14.5111 23.7409 14.074 23.0092 14.074 22.2147V17.3047V16.7525V14.1678C14.074 13.7704 14.396 13.4484 14.7933 13.4484Z" fill="#B8C0F4"/>
<path d="M17.09 19.2358C16.4145 19.1675 15.7793 18.9714 15.2131 18.6714C14.5111 18.2995 14.074 17.5678 14.074 16.7732V17.3045V22.2146C14.074 23.0091 14.5112 23.7408 15.2131 24.1128C15.7968 24.422 16.4532 24.6221 17.1521 24.6843C17.112 24.5636 17.0901 24.4357 17.0901 24.3029V19.2358H17.09Z" fill="#A4B0EA"/>
<path d="M18.2088 25.5766H18.3084C19.0089 25.5766 19.5821 25.0035 19.5821 24.3029V15.7328C19.5821 15.0323 19.009 14.459 18.3084 14.459H18.2088C17.5083 14.459 16.9352 15.0323 16.9352 15.7328V24.3029C16.9352 25.0035 17.5083 25.5766 18.2088 25.5766Z" fill="#E3E7FC"/>
<path d="M36.5017 20.1673H36.4021C35.7016 20.1673 35.1285 19.5941 35.1285 18.8937V24.303C35.1285 25.0036 35.7016 25.5768 36.4021 25.5768H36.5017C37.2022 25.5768 37.7754 25.0037 37.7754 24.303V18.8937C37.7755 19.5941 37.2022 20.1673 36.5017 20.1673Z" fill="#C8CEFC"/>
<path d="M18.3084 20.1673H18.2088C17.5083 20.1673 16.9352 19.5941 16.9352 18.8937V24.303C16.9352 25.0036 17.5083 25.5768 18.2088 25.5768H18.3084C19.0089 25.5768 19.5821 25.0037 19.5821 24.303V18.8937C19.582 19.5941 19.0089 20.1673 18.3084 20.1673Z" fill="#C8CEFC"/>
<path d="M32.1239 33.687C31.99 33.2516 32.2345 32.7901 32.67 32.6562C34.3162 32.1504 35.7938 31.5172 36.7434 31.075C37.0946 30.9116 37.3647 30.6057 37.4842 30.2358L38.7845 26.2113C39.0388 25.4245 38.571 24.892 38.4732 24.6167C38.2717 24.2083 38.4396 23.7137 38.8481 23.512C39.2567 23.3106 39.7511 23.4786 39.9528 23.887C40.0281 24.1218 40.846 25.1962 40.3543 26.7185L39.0541 30.7429C38.794 31.548 38.2054 32.2142 37.4397 32.5707C36.443 33.0346 34.8905 33.6997 33.1546 34.2331C32.7172 34.3677 32.2571 34.1205 32.1239 33.687Z" fill="#E3E7FC"/>
<path d="M28.2603 35.7526C27.4403 35.7526 26.7755 35.088 26.7755 34.2679C26.7755 33.4479 27.4402 32.7831 28.2603 32.7831C29.1977 32.7831 30.312 32.615 31.5722 32.2837C32.3657 32.0748 33.1771 32.5488 33.3857 33.3419C33.5943 34.135 33.1206 34.9469 32.3275 35.1554C30.8209 35.5516 29.4525 35.7526 28.2603 35.7526Z" fill="#FF4155"/>
<path d="M29.7582 33.7932C29.7582 33.312 29.9622 32.8793 30.2869 32.5737C29.5437 32.7122 28.8647 32.7831 28.2603 32.7831C27.4403 32.7831 26.7755 33.4479 26.7755 34.2678C26.7755 35.0879 27.4402 35.7526 28.2603 35.7526C29.123 35.7526 30.0793 35.6457 31.1121 35.4375C30.3406 35.2872 29.7582 34.6085 29.7582 33.7932Z" fill="#E80054"/>
<path d="M45.7182 2.02606H38.1789C34.1609 2.02606 30.8733 5.31355 30.8733 9.33166C30.8733 13.3498 34.1607 16.6372 38.1789 16.6372H43.3164C43.5604 16.6372 43.7583 16.8351 43.7583 17.0791V19.6412C43.7583 19.9307 44.0726 20.1121 44.3228 19.9663C45.7335 19.1438 46.432 17.9993 46.7774 17.0364C46.8849 16.7366 47.1308 16.5057 47.4403 16.4302C50.6345 15.6509 53.0239 12.757 53.0239 9.33155C53.0238 5.31366 49.7363 2.02606 45.7182 2.02606Z" fill="#49DAFC"/>
<path d="M30.8734 9.33166C30.8734 13.3498 34.1608 16.6372 38.1788 16.6372H40.5162C37.589 13.7682 40.3074 10.2379 40.3074 10.2379L39.7638 8.43741C36.969 5.15747 39.7638 2.02967 39.7638 2.02967L39.7584 2.02606H38.1789C34.1608 2.02606 30.8734 5.31366 30.8734 9.33166Z" fill="#26C6F7"/>
<path d="M36.8165 9.41978C36.8165 9.96239 36.3767 10.4022 35.834 10.4022C35.2914 10.4022 34.8515 9.96239 34.8515 9.41978C34.8515 8.87718 35.2914 8.43738 35.834 8.43738C36.3767 8.43738 36.8165 8.87718 36.8165 9.41978Z" fill="white"/>
<path d="M40.7461 9.41978C40.7461 9.96239 40.3063 10.4022 39.7637 10.4022C39.2211 10.4022 38.7813 9.96239 38.7813 9.41978C38.7813 8.87718 39.2211 8.43738 39.7637 8.43738C40.3063 8.43738 40.7461 8.87718 40.7461 9.41978Z" fill="white"/>
<path d="M44.6758 9.41978C44.6758 9.96239 44.236 10.4022 43.6934 10.4022C43.1508 10.4022 42.711 9.96239 42.711 9.41978C42.711 8.87718 43.1508 8.43738 43.6934 8.43738C44.236 8.43738 44.6758 8.87718 44.6758 9.41978Z" fill="white"/>
<path d="M48.6056 9.41978C48.6056 9.96239 48.1658 10.4022 47.6232 10.4022C47.0805 10.4022 46.6407 9.96239 46.6407 9.41978C46.6407 8.87718 47.0805 8.43738 47.6232 8.43738C48.1658 8.43738 48.6056 8.87718 48.6056 9.41978Z" fill="white"/>
</svg>
