<svg width="57" height="54" viewBox="0 0 57 54" fill="none" xmlns="http://www.w3.org/2000/svg">
<path d="M30.1037 53.7746C44.682 53.7746 56.5 41.9565 56.5 27.3782C56.5 12.8 44.682 0.981934 30.1037 0.981934C15.5254 0.981934 3.70737 12.8 3.70737 27.3782C3.70737 41.9565 15.5254 53.7746 30.1037 53.7746Z" fill="url(#paint0_linear_33_2130)"/>
<path d="M48.69 13.4945C47.7842 12.8292 46.8239 12.2189 45.8174 11.6647C45.2631 10.6581 44.6529 9.69777 43.9875 8.792C40.2927 3.76221 35.3619 0.992188 30.1037 0.992188C24.8454 0.992188 19.9146 3.76221 16.2199 8.792C15.5544 9.69777 14.9443 10.6582 14.3901 11.6647C13.3835 12.2189 12.4232 12.8291 11.5174 13.4945C6.48761 17.1894 3.71758 22.12 3.71758 27.3783C3.71758 32.6366 6.48761 37.5673 11.5174 41.2621C12.4232 41.9275 13.3836 42.5377 14.3901 43.0919C14.9443 44.0983 15.5544 45.0588 16.2199 45.9646C19.9148 50.9944 24.8454 53.7644 30.1037 53.7644C35.3619 53.7644 40.2927 50.9944 43.9875 45.9646C44.6529 45.0588 45.2631 44.0983 45.8174 43.0918C46.8239 42.5376 47.7843 41.9274 48.69 41.262C53.7198 37.5672 56.4898 32.6365 56.4898 27.3782C56.4898 22.1199 53.7198 17.1894 48.69 13.4945ZM30.1037 52.5223C28.6546 52.5223 27.1187 50.3637 25.9043 46.6804C27.2806 46.8422 28.6835 46.9261 30.1037 46.9261C31.5239 46.9261 32.9267 46.8422 34.303 46.6804C33.0887 50.3638 31.5528 52.5223 30.1037 52.5223ZM30.1037 45.684C28.5337 45.684 26.9973 45.5777 25.5062 45.3762C24.6787 42.4503 24.0779 38.9379 23.7341 35.1031C25.7925 35.2502 27.928 35.3261 30.1037 35.3261C32.2793 35.3261 34.4149 35.2502 36.4733 35.1031C36.1296 38.9379 35.5288 42.4502 34.7013 45.3762C33.2101 45.5777 31.6738 45.684 30.1037 45.684ZM30.1037 2.2344C31.5528 2.2344 33.0887 4.39303 34.303 8.0763C32.9267 7.91434 31.5239 7.83045 30.1037 7.83045C28.6835 7.83045 27.2806 7.91434 25.9043 8.0763C27.1187 4.39292 28.6546 2.2344 30.1037 2.2344ZM30.1037 9.07266C31.6738 9.07266 33.2101 9.17895 34.7013 9.38044C35.5288 12.3065 36.1296 15.8188 36.4733 19.6536C34.4149 19.5064 32.2793 19.4306 30.1037 19.4306C27.928 19.4306 25.7926 19.5064 23.7341 19.6536C24.0778 15.8188 24.6786 12.3065 25.5062 9.38044C26.9973 9.17895 28.5337 9.07266 30.1037 9.07266ZM23.398 27.3783C23.398 25.1635 23.4778 22.9932 23.6317 20.9063C25.7186 20.7524 27.8888 20.6726 30.1037 20.6726C32.3184 20.6726 34.4888 20.7524 36.5756 20.9063C36.7296 22.9932 36.8094 25.1634 36.8094 27.3783C36.8094 29.5931 36.7296 31.7634 36.5756 33.8501C34.4888 34.0041 32.3184 34.0839 30.1037 34.0839C27.8889 34.0839 25.7186 34.0041 23.6317 33.8501C23.4778 31.7635 23.398 29.5931 23.398 27.3783ZM22.3789 33.7479C18.5441 33.4042 15.0317 32.8034 12.1057 31.9758C11.9043 30.4846 11.7979 28.9483 11.7979 27.3783C11.7979 25.8083 11.9042 24.2719 12.1057 22.7808C15.0317 21.9533 18.5441 21.3525 22.3789 21.0087C22.2317 23.0671 22.1559 25.2026 22.1559 27.3783C22.1559 29.5539 22.2316 31.6895 22.3789 33.7479ZM37.8286 21.0088C41.6634 21.3525 45.1757 21.9533 48.1017 22.7809C48.3031 24.272 48.4095 25.8084 48.4095 27.3784C48.4095 28.9484 48.3032 30.4848 48.1017 31.9759C45.1757 32.8035 41.6634 33.4042 37.8286 33.748C37.9757 31.6896 38.0516 29.5541 38.0516 27.3784C38.0516 25.2026 37.9757 23.0672 37.8286 21.0088ZM37.729 19.7531C37.4019 15.9943 36.8317 12.5282 36.0468 9.5906C39.286 10.1643 42.2815 11.1958 44.8965 12.5856C46.2863 15.2006 47.3178 18.1959 47.8915 21.4352C44.9539 20.6504 41.4878 20.0802 37.729 19.7531ZM22.4784 19.7531C18.7195 20.0802 15.2535 20.6504 12.3159 21.4352C12.8896 18.1959 13.9211 15.2006 15.3109 12.5856C17.9259 11.1958 20.9212 10.1643 24.1604 9.5906C23.3757 12.5282 22.8056 15.9943 22.4784 19.7531ZM10.8016 31.5776C7.11832 30.3633 4.95968 28.8274 4.95968 27.3783C4.95968 25.9292 7.11821 24.3933 10.8016 23.1789C10.6397 24.5552 10.5557 25.9581 10.5557 27.3783C10.5557 28.7985 10.6397 30.2013 10.8016 31.5776ZM22.4784 35.0036C22.8055 38.7624 23.3757 42.2285 24.1604 45.1661C20.9212 44.5924 17.9259 43.5609 15.3109 42.1711C13.9211 39.5561 12.8896 36.5608 12.3159 33.3215C15.2536 34.1063 18.7197 34.6765 22.4784 35.0036ZM37.729 35.0036C41.4878 34.6765 44.9539 34.1063 47.8915 33.3215C47.3178 36.5608 46.2863 39.5561 44.8965 42.1711C42.2815 43.561 39.2861 44.5924 36.0468 45.1661C36.8317 42.2285 37.4019 38.7623 37.729 35.0036ZM49.4058 23.1791C53.089 24.3934 55.2476 25.9292 55.2476 27.3784C55.2476 28.8275 53.089 30.3634 49.4058 31.5777C49.5676 30.2015 49.6515 28.7986 49.6515 27.3784C49.6516 25.9581 49.5677 24.5553 49.4058 23.1791ZM54.9543 24.5809C53.7389 23.5445 51.8122 22.6128 49.2182 21.8156C48.7665 18.9554 47.9669 16.2306 46.8477 13.7347C51.0947 16.5001 54.0483 20.2977 54.9543 24.5809ZM43.7475 10.6344C41.2516 9.51517 38.5266 8.71558 35.6665 8.26373C34.8693 5.66961 33.9376 3.743 32.9012 2.52758C37.1844 3.43368 40.982 6.38729 43.7475 10.6344ZM27.3063 2.52769C26.2699 3.7431 25.3382 5.66972 24.541 8.26384C21.6808 8.71558 18.9558 9.51517 16.46 10.6344C19.2254 6.38729 23.023 3.43368 27.3063 2.52769ZM13.3597 13.7346C12.2406 16.2304 11.4409 18.9554 10.9891 21.8156C8.39501 22.6128 6.46839 23.5445 5.25297 24.5809C6.15896 20.2977 9.11269 16.5001 13.3597 13.7346ZM5.25297 30.1758C6.46839 31.2122 8.39501 32.1439 10.9891 32.9411C11.4409 35.8012 12.2406 38.5262 13.3597 41.0221C9.11269 38.2566 6.15896 34.459 5.25297 30.1758ZM16.4599 44.1223C18.9557 45.2415 21.6807 46.0411 24.5409 46.4928C25.3381 49.087 26.2698 51.0136 27.3062 52.229C23.023 51.323 19.2254 48.3693 16.4599 44.1223ZM32.901 52.229C33.9375 51.0136 34.8692 49.087 35.6663 46.4928C38.5265 46.0411 41.2515 45.2414 43.7474 44.1223C40.982 48.3693 37.1844 51.323 32.901 52.229ZM46.8477 41.0221C47.9669 38.5262 48.7665 35.8012 49.2182 32.9412C51.8124 32.144 53.739 31.2123 54.9543 30.1759C54.0483 34.459 51.0947 38.2566 46.8477 41.0221Z" fill="url(#paint1_linear_33_2130)"/>
<path d="M21.0252 2.5854C14.4163 5.00613 9.04582 9.9942 6.1201 16.3416C5.77333 17.0939 5.60171 17.915 5.60171 18.7434C5.60171 20.2862 6.21464 21.7658 7.30554 22.8568L7.84501 23.3963C10.2627 25.814 13.5416 27.1721 16.9607 27.1721C17.4715 27.1721 17.8856 26.7581 17.8856 26.2474C17.8856 25.7366 17.4715 25.3225 16.9607 25.3225H14.1178C12.8066 25.3225 11.7436 24.2596 11.7436 22.9483C11.7436 21.6371 12.8065 20.5741 14.1178 20.5741H16.3382C19.0008 20.5741 21.5542 19.5165 23.4368 17.6338L26.8652 14.2054C27.6118 13.4588 28.6244 13.0394 29.6802 13.0394C31.2075 13.0394 32.6002 12.1656 33.2646 10.7903C34.0789 9.10478 32.851 7.14775 30.9792 7.14775H26.5557C25.2552 7.14775 24.2008 6.09352 24.2008 4.79289C24.2007 3.15176 22.5664 2.02089 21.0252 2.5854Z" fill="url(#paint2_linear_33_2130)"/>
<path d="M55.8855 21.6909C55.521 20.031 54.0368 18.8569 52.3374 18.8569H48.6164H46.6273C43.2466 18.8569 40.506 21.5975 40.506 24.9783V25.7231C40.506 28.6925 42.9132 31.0997 45.8826 31.0997C47.3924 31.0997 48.6164 32.3237 48.6164 33.8335V40.9723C48.6164 42.8326 51.0319 43.5737 52.0657 42.0271C54.2141 38.8131 55.6756 35.1005 56.2403 31.0997C56.4111 29.8844 56.5001 28.6412 56.5001 27.3784C56.5 25.4254 56.2878 23.5226 55.8855 21.6909Z" fill="url(#paint3_linear_33_2130)"/>
<path d="M41.9116 3.76581C43.6919 7.31895 44.6954 11.3289 44.6954 15.5737C44.6954 30.1519 32.8774 41.97 18.2991 41.97C14.0543 41.97 10.0444 40.9665 6.49123 39.1861C10.8252 47.8358 19.7703 53.7746 30.1037 53.7746C44.6819 53.7746 56.5 41.9566 56.5 27.3783C56.5 17.0448 50.5613 8.09977 41.9116 3.76581Z" fill="url(#paint4_linear_33_2130)"/>
<path d="M43.4263 16.4708C42.1028 15.1473 38.8129 16.2418 32.5497 22.0918L28.8896 21.6407L27.7072 20.4209C27.0753 19.789 26.0508 19.789 25.4189 20.4209C25.2678 20.572 25.1545 20.7459 25.0761 20.9312L24.1347 19.9842C23.5028 19.3523 22.4784 19.3523 21.8464 19.9842C21.6351 20.1956 21.4962 20.4512 21.4261 20.721L20.0105 20.5465C19.673 20.5049 19.2856 20.6593 18.9928 20.9521L16.5699 23.375C16.3142 23.6308 16.3154 23.9992 16.5724 24.1098L23.8641 31.2354C21.7383 33.7084 19.796 36.1538 18.3047 38.2613L14.6748 37.7686C14.529 37.7488 14.3605 37.815 14.2334 37.9422L13.1026 39.0729C12.8843 39.2912 12.8648 39.6044 13.0617 39.7309L15.7878 42.3762C15.3301 43.3773 15.204 44.0865 15.5073 44.3899L24.2369 53.1194C26.1237 53.5476 28.087 53.7747 30.1036 53.7747C43.9803 53.7747 55.3554 43.0666 56.4182 29.4628L43.4263 16.4708Z" fill="url(#paint5_linear_33_2130)"/>
<path d="M22.9906 22.7463C23.8842 22.7463 24.6087 22.0218 24.6087 21.1282C24.6087 20.2346 23.8842 19.5101 22.9906 19.5101C22.097 19.5101 21.3725 20.2346 21.3725 21.1282C21.3725 22.0218 22.097 22.7463 22.9906 22.7463Z" fill="url(#paint6_linear_33_2130)"/>
<path d="M22.9906 22.4787C23.7364 22.4787 24.3411 21.8741 24.3411 21.1282C24.3411 20.3824 23.7364 19.7778 22.9906 19.7778C22.2447 19.7778 21.6401 20.3824 21.6401 21.1282C21.6401 21.8741 22.2447 22.4787 22.9906 22.4787Z" fill="url(#paint7_linear_33_2130)"/>
<path d="M24.5259 20.6165C24.449 20.8477 24.3187 21.065 24.1347 21.249C23.5028 21.8809 22.4784 21.8809 21.8464 21.249C21.6624 21.065 21.5322 20.8477 21.4553 20.6165C21.2682 21.1793 21.3985 21.8245 21.8464 22.2724C22.4784 22.9043 23.5028 22.9043 24.1347 22.2724C24.5826 21.8245 24.713 21.1794 24.5259 20.6165Z" fill="url(#paint8_linear_33_2130)"/>
<path d="M22.9906 22.7463C23.8842 22.7463 24.6087 22.0218 24.6087 21.1282C24.6087 20.2346 23.8842 19.5101 22.9906 19.5101C22.097 19.5101 21.3725 20.2346 21.3725 21.1282C21.3725 22.0218 22.097 22.7463 22.9906 22.7463Z" fill="url(#paint9_linear_33_2130)"/>
<path d="M27.7072 22.7091C27.0753 23.341 26.0508 23.341 25.4189 22.7091C24.787 22.0772 24.787 21.0527 25.4189 20.4208C26.0508 19.7889 27.0753 19.7889 27.7072 20.4208C28.339 21.0527 28.339 22.0773 27.7072 22.7091Z" fill="url(#paint10_linear_33_2130)"/>
<path d="M26.5631 22.9155C27.3089 22.9155 27.9135 22.3109 27.9135 21.565C27.9135 20.8192 27.3089 20.2145 26.5631 20.2145C25.8172 20.2145 25.2126 20.8192 25.2126 21.565C25.2126 22.3109 25.8172 22.9155 26.5631 22.9155Z" fill="url(#paint11_linear_33_2130)"/>
<path d="M28.0983 21.0533C28.0215 21.2845 27.8911 21.5018 27.7072 21.6858C27.0753 22.3177 26.0508 22.3177 25.4189 21.6858C25.2349 21.5018 25.1046 21.2845 25.0278 21.0533C24.8407 21.6161 24.971 22.2613 25.4189 22.7092C26.0508 23.3411 27.0753 23.3411 27.7072 22.7092C28.1551 22.2612 28.2854 21.6161 28.0983 21.0533Z" fill="url(#paint12_linear_33_2130)"/>
<path d="M27.7072 22.7091C27.0753 23.341 26.0508 23.341 25.4189 22.7091C24.787 22.0772 24.787 21.0527 25.4189 20.4208C26.0508 19.7889 27.0753 19.7889 27.7072 20.4208C28.339 21.0527 28.339 22.0773 27.7072 22.7091Z" fill="url(#paint13_linear_33_2130)"/>
<path d="M38.7689 38.5247C39.6625 38.5247 40.3869 37.8002 40.3869 36.9066C40.3869 36.013 39.6625 35.2885 38.7689 35.2885C37.8752 35.2885 37.1508 36.013 37.1508 36.9066C37.1508 37.8002 37.8752 38.5247 38.7689 38.5247Z" fill="url(#paint14_linear_33_2130)"/>
<path d="M38.7689 38.2571C39.5147 38.2571 40.1193 37.6525 40.1193 36.9066C40.1193 36.1608 39.5147 35.5562 38.7689 35.5562C38.023 35.5562 37.4184 36.1608 37.4184 36.9066C37.4184 37.6525 38.023 38.2571 38.7689 38.2571Z" fill="url(#paint15_linear_33_2130)"/>
<path d="M39.2805 35.3712C39.0494 35.4481 38.8321 35.5784 38.6481 35.7624C38.0162 36.3943 38.0162 37.4188 38.6481 38.0507C38.8321 38.2347 39.0494 38.3649 39.2805 38.4418C38.7178 38.6289 38.0726 38.4986 37.6247 38.0507C36.9928 37.4188 36.9928 36.3943 37.6247 35.7624C38.0726 35.3145 38.7177 35.1842 39.2805 35.3712Z" fill="url(#paint16_linear_33_2130)"/>
<path d="M38.7689 38.5247C39.6625 38.5247 40.3869 37.8002 40.3869 36.9066C40.3869 36.013 39.6625 35.2885 38.7689 35.2885C37.8752 35.2885 37.1508 36.013 37.1508 36.9066C37.1508 37.8002 37.8752 38.5247 38.7689 38.5247Z" fill="url(#paint17_linear_33_2130)"/>
<path d="M37.188 32.19C36.5561 32.8219 36.5561 33.8464 37.188 34.4783C37.8199 35.1102 38.8444 35.1102 39.4763 34.4783C40.1083 33.8464 40.1083 32.8219 39.4763 32.19C38.8444 31.5581 37.8199 31.5581 37.188 32.19Z" fill="url(#paint18_linear_33_2130)"/>
<path d="M38.3322 34.6846C39.078 34.6846 39.6826 34.08 39.6826 33.3341C39.6826 32.5883 39.078 31.9836 38.3322 31.9836C37.5863 31.9836 36.9817 32.5883 36.9817 33.3341C36.9817 34.08 37.5863 34.6846 38.3322 34.6846Z" fill="url(#paint19_linear_33_2130)"/>
<path d="M38.8439 31.7987C38.6127 31.8756 38.3954 32.0059 38.2114 32.1898C37.5795 32.8218 37.5795 33.8462 38.2114 34.4782C38.3954 34.6622 38.6127 34.7924 38.8439 34.8693C38.2811 35.0564 37.6359 34.9261 37.188 34.4782C36.5561 33.8462 36.5561 32.8218 37.188 32.1898C37.6359 31.742 38.281 31.6117 38.8439 31.7987Z" fill="url(#paint20_linear_33_2130)"/>
<path d="M37.188 32.19C36.5561 32.8219 36.5561 33.8464 37.188 34.4783C37.8199 35.1102 38.8444 35.1102 39.4763 34.4783C40.1083 33.8464 40.1083 32.8219 39.4763 32.19C38.8444 31.5581 37.8199 31.5581 37.188 32.19Z" fill="url(#paint21_linear_33_2130)"/>
<path d="M13.0617 39.7308L16.5299 41.9591L19.9981 38.491L14.6748 37.7686C14.529 37.7488 14.3605 37.815 14.2334 37.9422L13.1026 39.0729C12.8843 39.2912 12.8649 39.6043 13.0617 39.7308Z" fill="url(#paint22_linear_33_2130)"/>
<path d="M13.4409 38.7347L13.1027 39.0729C12.8845 39.2911 12.8649 39.6043 13.0618 39.7308L16.5301 41.9592L19.2056 39.2836L13.8824 38.5611C13.7365 38.5413 13.5681 38.6076 13.4409 38.7347Z" fill="url(#paint23_linear_33_2130)"/>
<path d="M20.1663 46.8354L17.938 43.3671L21.4061 39.899L22.1285 45.2223C22.1483 45.3681 22.0821 45.5366 21.955 45.6637L20.8243 46.7945C20.6059 47.0127 20.2928 47.0322 20.1663 46.8354Z" fill="url(#paint24_linear_33_2130)"/>
<path d="M21.1625 46.4562L20.8243 46.7944C20.606 47.0127 20.2928 47.0322 20.1663 46.8353L17.938 43.3671L20.6136 40.6915L21.3359 46.0148C21.3558 46.1606 21.2895 46.3291 21.1625 46.4562Z" fill="url(#paint25_linear_33_2130)"/>
<path d="M16.5724 24.1099L27.6091 28.8664L34.1824 22.293L20.0105 20.5466C19.673 20.505 19.2856 20.6594 18.9928 20.9522L16.5699 23.3752C16.3143 23.6307 16.3155 23.9991 16.5724 24.1099Z" fill="url(#paint26_linear_33_2130)"/>
<path d="M17.4312 22.5137L16.5699 23.375C16.3142 23.6308 16.3154 23.9992 16.5724 24.1098L27.6091 28.8663L32.6207 23.8547L18.4489 22.1082C18.1113 22.0665 17.7241 22.2209 17.4312 22.5137Z" fill="url(#paint27_linear_33_2130)"/>
<path d="M23.7386 22.76L18.4489 22.1081C18.1113 22.0665 17.7241 22.2209 17.4312 22.5138L16.5699 23.3751C16.3142 23.6308 16.3154 23.9992 16.5724 24.1099L20.6371 25.8616L23.7386 22.76Z" fill="url(#paint28_linear_33_2130)"/>
<path d="M16.5724 24.1098L27.6091 28.8663L29.8695 26.6059L17.634 22.311L16.57 23.375C16.3143 23.6307 16.3155 23.9991 16.5724 24.1098Z" fill="url(#paint29_linear_33_2130)"/>
<path d="M35.7872 43.3246L31.0309 32.288L37.6042 25.7147L39.3506 39.8866C39.3922 40.2241 39.2378 40.6115 38.945 40.9042L36.5222 43.3271C36.2664 43.5828 35.898 43.5816 35.7872 43.3246Z" fill="url(#paint30_linear_33_2130)"/>
<path d="M37.3834 42.4659L36.5221 43.3272C36.2663 43.5829 35.8979 43.5817 35.7872 43.3246L31.0309 32.288L36.0425 27.2764L37.789 41.4482C37.8306 41.7857 37.6762 42.173 37.3834 42.4659Z" fill="url(#paint31_linear_33_2130)"/>
<path d="M37.1372 36.1585L37.7891 41.4482C37.8307 41.7857 37.6763 42.173 37.3835 42.4659L36.5222 43.3272C36.2664 43.5829 35.898 43.5817 35.7874 43.3246L34.0357 39.26L37.1372 36.1585Z" fill="url(#paint32_linear_33_2130)"/>
<path d="M35.7872 43.3246L31.0309 32.288L33.2913 30.0276L37.5861 42.2631L36.5221 43.3272C36.2664 43.5828 35.898 43.5816 35.7872 43.3246Z" fill="url(#paint33_linear_33_2130)"/>
<path d="M35.6734 29.5496C27.9638 37.2592 16.9781 45.8604 15.5073 44.3896C14.0366 42.9189 22.6378 31.9333 30.3473 24.2236C38.0569 16.5141 41.9555 15 43.4262 16.4707C44.897 17.9415 43.383 21.8401 35.6734 29.5496Z" fill="url(#paint34_linear_33_2130)"/>
<path d="M35.1021 29.3243C27.7689 36.6575 17.4398 44.9588 16.1891 43.708C14.9384 42.4572 23.2397 32.1282 30.5728 24.795C37.9059 17.4619 41.494 15.9017 42.7446 17.1524C43.9954 18.4031 42.4351 21.9912 35.1021 29.3243Z" fill="url(#paint35_linear_33_2130)"/>
<path d="M35.6734 29.5496C43.3829 21.84 44.897 17.9415 43.4263 16.4708L15.5073 44.3897C16.9782 45.8604 27.9638 37.2593 35.6734 29.5496Z" fill="url(#paint36_linear_33_2130)"/>
<path d="M36.8598 19.3304C36.3877 19.7415 35.8922 20.1841 35.3726 20.6597C35.2398 20.7814 35.2518 20.9701 35.3956 20.996C36.2844 21.1561 37.0869 21.5455 37.7193 22.1778C38.3516 22.8102 38.741 23.6128 38.9011 24.5015C38.927 24.6452 39.1157 24.6573 39.2374 24.5245C39.713 24.0049 40.1556 23.5094 40.5667 23.0373C40.8465 22.7159 40.967 22.3116 40.8764 21.9852C40.6784 21.2723 40.3198 20.6289 39.794 20.1031C39.268 19.5771 38.6247 19.2186 37.9118 19.0206C37.5855 18.9299 37.1812 19.0505 36.8598 19.3304Z" fill="url(#paint37_linear_33_2130)"/>
<path d="M40.5664 23.0372C40.2051 23.4534 39.8186 23.8871 39.4068 24.3395C39.3508 24.401 39.2948 24.4625 39.2377 24.525C39.1158 24.6579 38.927 24.6458 38.9006 24.502C38.7414 23.6126 38.3516 22.8099 37.7191 22.1774C37.6818 22.1401 37.6445 22.1039 37.606 22.0698C37.1569 21.6537 36.6299 21.3528 36.0523 21.1617C36.5717 20.6885 37.0647 20.2471 37.5358 19.8375C37.8575 19.5575 38.2616 19.4367 38.5877 19.5279C38.9753 19.6355 39.342 19.7903 39.6813 19.9945C39.7198 20.0297 39.7571 20.0659 39.7944 20.1032C40.3204 20.6292 40.6784 21.2727 40.876 21.9853C40.9671 22.3114 40.8464 22.7155 40.5664 23.0372Z" fill="url(#paint38_linear_33_2130)"/>
<path d="M38.9011 24.5015C38.927 24.6452 39.1157 24.6573 39.2374 24.5245C39.713 24.0049 40.1556 23.5094 40.5667 23.0373C40.8465 22.7159 40.967 22.3116 40.8764 21.9852C40.6784 21.2723 40.3198 20.6289 39.794 20.1031L37.7192 22.1778C38.3516 22.8102 38.741 23.6128 38.9011 24.5015Z" fill="url(#paint39_linear_33_2130)"/>
<path d="M18.0983 42.0308L17.8663 41.7988C17.6722 41.6048 17.7388 41.2318 18.011 40.9881L22.0183 37.4008C22.1943 37.2432 22.4276 37.2183 22.5531 37.3439C22.6786 37.4694 22.6538 37.7028 22.4961 37.8788L18.9088 41.8861C18.6653 42.1582 18.2923 42.2248 18.0983 42.0308Z" fill="url(#paint40_linear_33_2130)"/>
<path d="M4.00867 50.2293C3.77831 50.2293 3.55661 50.2153 3.34524 50.1875C3.048 50.1483 2.85321 49.8567 2.93336 49.5678L3.15319 48.7743C3.21666 48.5454 3.43429 48.3934 3.6707 48.4166C4.11475 48.4601 4.66552 48.4121 5.29832 48.2737C5.55416 48.2177 5.80935 48.3729 5.87743 48.6258L6.08924 49.4124C6.16248 49.6845 5.99173 49.9602 5.71656 50.0214C5.09496 50.1595 4.52223 50.2293 4.00867 50.2293ZM7.94888 48.7826L7.64417 48.0282C7.54403 47.7802 7.66009 47.4988 7.90573 47.3931C8.45804 47.1554 9.04274 46.8775 9.6526 46.563C9.89131 46.4399 10.1853 46.531 10.3116 46.7681L10.6944 47.4859C10.8235 47.728 10.7288 48.0293 10.4849 48.1551C9.82817 48.494 9.19636 48.794 8.59738 49.0513C8.3445 49.16 8.05209 49.0381 7.94888 48.7826ZM1.29235 48.1534C1.01399 48.2713 0.693914 48.1133 0.622651 47.8195C0.541176 47.4829 0.5 47.1154 0.5 46.7207C0.5 46.3054 0.545569 45.8509 0.635937 45.3647C0.687435 45.0873 0.959639 44.9081 1.23404 44.9734L2.02638 45.1618C2.27948 45.222 2.44265 45.4699 2.39609 45.7258C2.32999 46.09 2.29661 46.4231 2.29661 46.7204C2.29661 46.9273 2.31275 47.116 2.34449 47.285C2.38742 47.5131 2.26806 47.7399 2.05427 47.8305L1.29235 48.1534ZM12.3806 46.5366L11.9659 45.8368C11.8288 45.6052 11.9027 45.3064 12.1328 45.1669C12.6757 44.8381 13.2353 44.4852 13.8046 44.1126C14.0301 43.965 14.3328 44.0277 14.4821 44.2521L14.9327 44.9293C15.0843 45.1571 15.0203 45.4642 14.7914 45.614C14.202 45.9997 13.622 46.3655 13.0588 46.7065C12.8246 46.8484 12.5201 46.7723 12.3806 46.5366ZM17.2119 43.9559C16.9896 44.1147 16.6806 44.0632 16.5232 43.8399L17.2119 43.9559ZM2.58232 43.3877L1.82303 43.0955C1.56565 42.9965 1.43882 42.7056 1.54391 42.4506C1.79206 41.8486 2.08502 41.2117 2.41904 40.5483C2.54246 40.3031 2.84311 40.2052 3.08654 40.3323L3.80784 40.7085C4.0459 40.8327 4.13978 41.1254 4.01911 41.3652C3.71067 41.9782 3.44077 42.5644 3.2126 43.1164C3.11059 43.3633 2.83158 43.4837 2.58232 43.3877ZM4.72526 39.0481L4.02251 38.6384C3.78621 38.5007 3.70737 38.197 3.84737 37.9622C3.85187 37.9547 3.85638 37.9471 3.86077 37.9396C4.00088 37.7049 4.30613 37.6291 4.53947 37.7715L5.23387 38.1953C5.46402 38.3357 5.53769 38.6356 5.39945 38.8672C5.3978 38.87 5.39605 38.8728 5.3944 38.8756C5.25638 39.1071 4.95815 39.1838 4.72526 39.0481ZM44.2608 16.0398L43.5944 15.5734C43.3734 15.4186 43.318 15.1144 43.4712 14.8924C43.8563 14.3342 44.225 13.7828 44.5728 13.2451C44.7191 13.0188 45.0205 12.9538 45.2481 13.0982L45.9348 13.5342C46.1656 13.6808 46.2325 13.987 46.0839 14.2166C45.7252 14.7715 45.345 15.3399 44.9482 15.9151C44.793 16.1401 44.4847 16.1965 44.2608 16.0398ZM46.941 11.8854L46.2389 11.4745C46.0068 11.3387 45.927 11.0408 46.0603 10.8072C46.3995 10.2127 46.7097 9.63626 46.9871 9.08493C47.1077 8.84534 47.3976 8.74761 47.6392 8.86434L48.3717 9.21834C48.619 9.33792 48.7209 9.63615 48.5975 9.88167C48.3037 10.466 47.9757 11.0759 47.6175 11.7034C47.4815 11.9414 47.1775 12.0237 46.941 11.8854ZM49.1517 7.43348L48.3937 7.13822C48.1448 7.04126 48.0206 6.76324 48.1106 6.51179C48.3411 5.86823 48.5059 5.28001 48.6033 4.75416C48.6503 4.50051 48.8864 4.32823 49.1427 4.35809L49.9522 4.45274C50.2332 4.48558 50.4297 4.7479 50.3797 5.02625C50.2642 5.66948 50.0679 6.37772 49.7933 7.14206C49.6997 7.40208 49.409 7.53373 49.1517 7.43348ZM42.4574 2.81348L42.1207 2.07263C42.0071 1.8225 42.1206 1.52658 42.373 1.41776C43.0817 1.11229 43.7511 0.863803 44.3724 0.67516C44.6402 0.593905 44.9217 0.749826 44.9928 1.0206L45.1992 1.80801C45.2659 2.06242 45.1212 2.32485 44.8697 2.40172C44.3243 2.56829 43.732 2.78889 43.1 3.06076C42.8541 3.1665 42.5681 3.05714 42.4574 2.81348ZM48.9634 2.68765C48.763 2.76473 48.5314 2.7062 48.4023 2.53469C48.3725 2.49505 48.3404 2.45805 48.3058 2.42346C48.04 2.15784 47.6011 2.02278 47.0008 2.0219H46.9838V0.225403V1.12371L46.9848 0.740713C46.9856 0.451489 47.2354 0.222438 47.5232 0.251756C48.3766 0.33872 49.0637 0.640901 49.5761 1.15303C49.7322 1.30906 49.8696 1.48321 49.9874 1.67372C50.1484 1.93417 50.0285 2.27775 49.7428 2.38766L48.9634 2.68765Z" fill="url(#paint41_linear_33_2130)"/>
<path d="M18.6776 9.16707C19.525 9.16707 20.212 8.48009 20.212 7.63267C20.212 6.78524 19.525 6.09827 18.6776 6.09827C17.8302 6.09827 17.1432 6.78524 17.1432 7.63267C17.1432 8.48009 17.8302 9.16707 18.6776 9.16707Z" fill="url(#paint42_linear_33_2130)"/>
<path d="M10.5026 20.5253C11.35 20.5253 12.037 19.8383 12.037 18.9909C12.037 18.1435 11.35 17.4565 10.5026 17.4565C9.65516 17.4565 8.96819 18.1435 8.96819 18.9909C8.96819 19.8383 9.65516 20.5253 10.5026 20.5253Z" fill="url(#paint43_linear_33_2130)"/>
<path d="M52.3402 24.4498C53.1876 24.4498 53.8746 23.7628 53.8746 22.9154C53.8746 22.068 53.1876 21.381 52.3402 21.381C51.4928 21.381 50.8058 22.068 50.8058 22.9154C50.8058 23.7628 51.4928 24.4498 52.3402 24.4498Z" fill="url(#paint44_linear_33_2130)"/>
<defs>
<linearGradient id="paint0_linear_33_2130" x1="17.3211" y1="14.5958" x2="49.3142" y2="46.5888" gradientUnits="userSpaceOnUse">
<stop stop-color="#00AEFC"/>
<stop offset="1" stop-color="#3F3CEE"/>
</linearGradient>
<linearGradient id="paint1_linear_33_2130" x1="34.1381" y1="56.4397" x2="24.6401" y2="-11.9779" gradientUnits="userSpaceOnUse">
<stop stop-color="#00AEFC" stop-opacity="0"/>
<stop offset="1" stop-color="#18CFFC"/>
</linearGradient>
<linearGradient id="paint2_linear_33_2130" x1="21.8114" y1="16.7976" x2="63.4012" y2="46.3075" gradientUnits="userSpaceOnUse">
<stop stop-color="#E5F3FF"/>
<stop offset="1" stop-color="#B3CCFF"/>
</linearGradient>
<linearGradient id="paint3_linear_33_2130" x1="44.5144" y1="29.6299" x2="63.152" y2="32.9088" gradientUnits="userSpaceOnUse">
<stop stop-color="#E5F3FF"/>
<stop offset="1" stop-color="#B3CCFF"/>
</linearGradient>
<linearGradient id="paint4_linear_33_2130" x1="38.8195" y1="22.1612" x2="58.2218" y2="-15.7452" gradientUnits="userSpaceOnUse">
<stop stop-color="#3F3CEE" stop-opacity="0"/>
<stop offset="1" stop-color="#2F43BC"/>
</linearGradient>
<linearGradient id="paint5_linear_33_2130" x1="41.614" y1="42.5774" x2="28.1801" y2="29.1436" gradientUnits="userSpaceOnUse">
<stop stop-color="#3F3CEE" stop-opacity="0"/>
<stop offset="1" stop-color="#2F43BC"/>
</linearGradient>
<linearGradient id="paint6_linear_33_2130" x1="23.0079" y1="20.2581" x2="23.0079" y2="23.2214" gradientUnits="userSpaceOnUse">
<stop stop-color="#F9F7FC"/>
<stop offset="1" stop-color="#F0DDFC"/>
</linearGradient>
<linearGradient id="paint7_linear_33_2130" x1="23.008" y1="21.8618" x2="23.008" y2="19.7912" gradientUnits="userSpaceOnUse">
<stop stop-color="#E9EDF5" stop-opacity="0"/>
<stop offset="1" stop-color="white"/>
</linearGradient>
<linearGradient id="paint8_linear_33_2130" x1="22.6093" y1="21.5923" x2="27.1064" y2="20.2402" gradientUnits="userSpaceOnUse">
<stop stop-color="#F0DDFC" stop-opacity="0"/>
<stop offset="0.2889" stop-color="#C8B7E0" stop-opacity="0.289"/>
<stop offset="0.5915" stop-color="#A595C8" stop-opacity="0.592"/>
<stop offset="0.8395" stop-color="#8F81B8" stop-opacity="0.84"/>
<stop offset="1" stop-color="#8779B3"/>
</linearGradient>
<linearGradient id="paint9_linear_33_2130" x1="23.1544" y1="20.2958" x2="22.8893" y2="21.7778" gradientUnits="userSpaceOnUse">
<stop stop-color="#F0DDFC" stop-opacity="0"/>
<stop offset="0.2889" stop-color="#C8B7E0" stop-opacity="0.289"/>
<stop offset="0.5915" stop-color="#A595C8" stop-opacity="0.592"/>
<stop offset="0.8395" stop-color="#8F81B8" stop-opacity="0.84"/>
<stop offset="1" stop-color="#8779B3"/>
</linearGradient>
<linearGradient id="paint10_linear_33_2130" x1="26.58" y1="20.6948" x2="26.5799" y2="23.6581" gradientUnits="userSpaceOnUse">
<stop stop-color="#F9F7FC"/>
<stop offset="1" stop-color="#F0DDFC"/>
</linearGradient>
<linearGradient id="paint11_linear_33_2130" x1="26.58" y1="22.2983" x2="26.5799" y2="20.2278" gradientUnits="userSpaceOnUse">
<stop stop-color="#E9EDF5" stop-opacity="0"/>
<stop offset="1" stop-color="white"/>
</linearGradient>
<linearGradient id="paint12_linear_33_2130" x1="26.1813" y1="22.029" x2="30.6783" y2="20.6769" gradientUnits="userSpaceOnUse">
<stop stop-color="#F0DDFC" stop-opacity="0"/>
<stop offset="0.2889" stop-color="#C8B7E0" stop-opacity="0.289"/>
<stop offset="0.5915" stop-color="#A595C8" stop-opacity="0.592"/>
<stop offset="0.8395" stop-color="#8F81B8" stop-opacity="0.84"/>
<stop offset="1" stop-color="#8779B3"/>
</linearGradient>
<linearGradient id="paint13_linear_33_2130" x1="26.7263" y1="20.7324" x2="26.4612" y2="22.2145" gradientUnits="userSpaceOnUse">
<stop stop-color="#F0DDFC" stop-opacity="0"/>
<stop offset="0.2889" stop-color="#C8B7E0" stop-opacity="0.289"/>
<stop offset="0.5915" stop-color="#A595C8" stop-opacity="0.592"/>
<stop offset="0.8395" stop-color="#8F81B8" stop-opacity="0.84"/>
<stop offset="1" stop-color="#8779B3"/>
</linearGradient>
<linearGradient id="paint14_linear_33_2130" x1="39.6427" y1="36.8928" x2="36.6794" y2="36.8929" gradientUnits="userSpaceOnUse">
<stop stop-color="#F9F7FC"/>
<stop offset="1" stop-color="#F0DDFC"/>
</linearGradient>
<linearGradient id="paint15_linear_33_2130" x1="38.0391" y1="36.8929" x2="40.1097" y2="36.8929" gradientUnits="userSpaceOnUse">
<stop stop-color="#E9EDF5" stop-opacity="0"/>
<stop offset="1" stop-color="white"/>
</linearGradient>
<linearGradient id="paint16_linear_33_2130" x1="38.3085" y1="37.2916" x2="39.6606" y2="32.7945" gradientUnits="userSpaceOnUse">
<stop stop-color="#F0DDFC" stop-opacity="0"/>
<stop offset="0.2889" stop-color="#C8B7E0" stop-opacity="0.289"/>
<stop offset="0.5915" stop-color="#A595C8" stop-opacity="0.592"/>
<stop offset="0.8395" stop-color="#8F81B8" stop-opacity="0.84"/>
<stop offset="1" stop-color="#8779B3"/>
</linearGradient>
<linearGradient id="paint17_linear_33_2130" x1="39.605" y1="36.7465" x2="38.123" y2="37.0115" gradientUnits="userSpaceOnUse">
<stop stop-color="#F0DDFC" stop-opacity="0"/>
<stop offset="0.2889" stop-color="#C8B7E0" stop-opacity="0.289"/>
<stop offset="0.5915" stop-color="#A595C8" stop-opacity="0.592"/>
<stop offset="0.8395" stop-color="#8F81B8" stop-opacity="0.84"/>
<stop offset="1" stop-color="#8779B3"/>
</linearGradient>
<linearGradient id="paint18_linear_33_2130" x1="39.2061" y1="33.3209" x2="36.2427" y2="33.3209" gradientUnits="userSpaceOnUse">
<stop stop-color="#F9F7FC"/>
<stop offset="1" stop-color="#F0DDFC"/>
</linearGradient>
<linearGradient id="paint19_linear_33_2130" x1="37.6025" y1="33.3209" x2="39.673" y2="33.3209" gradientUnits="userSpaceOnUse">
<stop stop-color="#E9EDF5" stop-opacity="0"/>
<stop offset="1" stop-color="white"/>
</linearGradient>
<linearGradient id="paint20_linear_33_2130" x1="37.8719" y1="33.7196" x2="39.2239" y2="29.2225" gradientUnits="userSpaceOnUse">
<stop stop-color="#F0DDFC" stop-opacity="0"/>
<stop offset="0.2889" stop-color="#C8B7E0" stop-opacity="0.289"/>
<stop offset="0.5915" stop-color="#A595C8" stop-opacity="0.592"/>
<stop offset="0.8395" stop-color="#8F81B8" stop-opacity="0.84"/>
<stop offset="1" stop-color="#8779B3"/>
</linearGradient>
<linearGradient id="paint21_linear_33_2130" x1="39.1684" y1="33.1746" x2="37.6863" y2="33.4396" gradientUnits="userSpaceOnUse">
<stop stop-color="#F0DDFC" stop-opacity="0"/>
<stop offset="0.2889" stop-color="#C8B7E0" stop-opacity="0.289"/>
<stop offset="0.5915" stop-color="#A595C8" stop-opacity="0.592"/>
<stop offset="0.8395" stop-color="#8F81B8" stop-opacity="0.84"/>
<stop offset="1" stop-color="#8779B3"/>
</linearGradient>
<linearGradient id="paint22_linear_33_2130" x1="16.5205" y1="38.6751" x2="16.1405" y2="41.2155" gradientUnits="userSpaceOnUse">
<stop stop-color="#FFDA45"/>
<stop offset="0.3043" stop-color="#FFCE3E"/>
<stop offset="0.8558" stop-color="#FFAE2B"/>
<stop offset="1" stop-color="#FFA425"/>
</linearGradient>
<linearGradient id="paint23_linear_33_2130" x1="15.6456" y1="39.6999" x2="19.4162" y2="35.8478" gradientUnits="userSpaceOnUse">
<stop stop-color="#FFDA45" stop-opacity="0"/>
<stop offset="1" stop-color="#B53759"/>
</linearGradient>
<linearGradient id="paint24_linear_33_2130" x1="21.2274" y1="43.3821" x2="18.6872" y2="43.7621" gradientUnits="userSpaceOnUse">
<stop stop-color="#FFDA45"/>
<stop offset="0.3043" stop-color="#FFCE3E"/>
<stop offset="0.8558" stop-color="#FFAE2B"/>
<stop offset="1" stop-color="#FFA425"/>
</linearGradient>
<linearGradient id="paint25_linear_33_2130" x1="20.2027" y1="44.257" x2="24.0548" y2="40.4864" gradientUnits="userSpaceOnUse">
<stop stop-color="#FFDA45" stop-opacity="0"/>
<stop offset="1" stop-color="#B53759"/>
</linearGradient>
<linearGradient id="paint26_linear_33_2130" x1="25.867" y1="22.0065" x2="21.9251" y2="28.5957" gradientUnits="userSpaceOnUse">
<stop stop-color="#FFDA45"/>
<stop offset="0.3043" stop-color="#FFCE3E"/>
<stop offset="0.8558" stop-color="#FFAE2B"/>
<stop offset="1" stop-color="#FFA425"/>
</linearGradient>
<linearGradient id="paint27_linear_33_2130" x1="22.7889" y1="26.3059" x2="30.8924" y2="14.2292" gradientUnits="userSpaceOnUse">
<stop stop-color="#FFDA45" stop-opacity="0"/>
<stop offset="1" stop-color="#B53759"/>
</linearGradient>
<linearGradient id="paint28_linear_33_2130" x1="20.7805" y1="24.2121" x2="24.6963" y2="29.123" gradientUnits="userSpaceOnUse">
<stop stop-color="#F0DDFC" stop-opacity="0"/>
<stop offset="0.2889" stop-color="#C8B7E0" stop-opacity="0.289"/>
<stop offset="0.5915" stop-color="#A595C8" stop-opacity="0.592"/>
<stop offset="0.8395" stop-color="#8F81B8" stop-opacity="0.84"/>
<stop offset="1" stop-color="#8779B3"/>
</linearGradient>
<linearGradient id="paint29_linear_33_2130" x1="22.9669" y1="25.4456" x2="21.33" y2="28.4856" gradientUnits="userSpaceOnUse">
<stop stop-color="#FFDA45" stop-opacity="0"/>
<stop offset="1" stop-color="#B53759"/>
</linearGradient>
<linearGradient id="paint30_linear_33_2130" x1="37.8943" y1="34.0337" x2="31.3052" y2="37.9758" gradientUnits="userSpaceOnUse">
<stop stop-color="#FFDA45"/>
<stop offset="0.3043" stop-color="#FFCE3E"/>
<stop offset="0.8558" stop-color="#FFAE2B"/>
<stop offset="1" stop-color="#FFA425"/>
</linearGradient>
<linearGradient id="paint31_linear_33_2130" x1="34.3874" y1="36.5803" x2="46.4641" y2="28.4768" gradientUnits="userSpaceOnUse">
<stop stop-color="#FFDA45" stop-opacity="0"/>
<stop offset="1" stop-color="#B53759"/>
</linearGradient>
<linearGradient id="paint32_linear_33_2130" x1="36.1494" y1="39.4877" x2="31.2386" y2="35.572" gradientUnits="userSpaceOnUse">
<stop stop-color="#FFDA45" stop-opacity="0"/>
<stop offset="1" stop-color="#B53759"/>
</linearGradient>
<linearGradient id="paint33_linear_33_2130" x1="34.4552" y1="36.9338" x2="31.4152" y2="38.5708" gradientUnits="userSpaceOnUse">
<stop stop-color="#FFDA45" stop-opacity="0"/>
<stop offset="1" stop-color="#B53759"/>
</linearGradient>
<linearGradient id="paint34_linear_33_2130" x1="28.3889" y1="29.3554" x2="31.7216" y2="32.688" gradientUnits="userSpaceOnUse">
<stop stop-color="#E5F3FF"/>
<stop offset="1" stop-color="#B3CCFF"/>
</linearGradient>
<linearGradient id="paint35_linear_33_2130" x1="30.6982" y1="31.5312" x2="25.9561" y2="27.2971" gradientUnits="userSpaceOnUse">
<stop stop-color="#E5F3FF" stop-opacity="0"/>
<stop offset="1" stop-color="white"/>
</linearGradient>
<linearGradient id="paint36_linear_33_2130" x1="29.2299" y1="34.718" x2="36.6092" y2="-16.7933" gradientUnits="userSpaceOnUse">
<stop stop-color="#B3CCFF" stop-opacity="0"/>
<stop offset="1" stop-color="#9FB0CB"/>
</linearGradient>
<linearGradient id="paint37_linear_33_2130" x1="37.1305" y1="19.7338" x2="40.0327" y2="24.2944" gradientUnits="userSpaceOnUse">
<stop stop-color="#8B788A"/>
<stop offset="1" stop-color="#6E566E"/>
</linearGradient>
<linearGradient id="paint38_linear_33_2130" x1="38.5953" y1="22.0271" x2="37.8266" y2="19.3644" gradientUnits="userSpaceOnUse">
<stop stop-color="#8B788A" stop-opacity="0"/>
<stop offset="1" stop-color="#9E8C92"/>
</linearGradient>
<linearGradient id="paint39_linear_33_2130" x1="39.1912" y1="22.6301" x2="41.0152" y2="17.9364" gradientUnits="userSpaceOnUse">
<stop stop-color="#555A66" stop-opacity="0"/>
<stop offset="1" stop-color="#555A66"/>
</linearGradient>
<linearGradient id="paint40_linear_33_2130" x1="20.1791" y1="39.541" x2="20.5742" y2="39.9362" gradientUnits="userSpaceOnUse">
<stop stop-color="#E5F3FF"/>
<stop offset="1" stop-color="#B3CCFF"/>
</linearGradient>
<linearGradient id="paint41_linear_33_2130" x1="0.5" y1="25.2273" x2="50.3874" y2="25.2273" gradientUnits="userSpaceOnUse">
<stop stop-color="#FF7044"/>
<stop offset="1" stop-color="#F92814"/>
</linearGradient>
<linearGradient id="paint42_linear_33_2130" x1="18.5587" y1="7.51386" x2="20.2488" y2="9.20385" gradientUnits="userSpaceOnUse">
<stop stop-color="#FF7044"/>
<stop offset="1" stop-color="#F92814"/>
</linearGradient>
<linearGradient id="paint43_linear_33_2130" x1="9.85354" y1="18.3418" x2="11.6967" y2="20.1851" gradientUnits="userSpaceOnUse">
<stop stop-color="#92F37F"/>
<stop offset="1" stop-color="#4AB272"/>
</linearGradient>
<linearGradient id="paint44_linear_33_2130" x1="51.3931" y1="21.9683" x2="54.0375" y2="24.6127" gradientUnits="userSpaceOnUse">
<stop stop-color="#92F37F"/>
<stop offset="1" stop-color="#4AB272"/>
</linearGradient>
</defs>
</svg>
